{
DisplayStrings = (
finn,
/knPHA/knmU,
"htTpx/knKA/knmAU/knA/knAnusvara \012/knKA/knVirama/knUU \012/knKA/knmAU/knI/knAnusvara \012/knRRA/knmI/knTTHA/knmI \012",
/knRAc2.following/knLAc2.following/knVAc2.following/knSHAc2.following/knSSAc2.following/knSAc2.following/knHAc2.following/knRRAc2.following/knLLAc2.following/knLLLAc2.following/knKSSAc2.following/knTAc2_RAc2.following,
"T/knNYI/knCHI g/knCHI  /knAIlengthmark/knmE/knmEE/knmAI/knSSAc2.following h"
);
classes = (
{
code = "knmvR knmvRR knAIlengthmark knKAc2 knKHAc2 knGAc2 knGHAc2 knNGAc2 knCAc2 knCHAc2 knJAc2 knJHAc2 knNYAc2 knTTAc2 knTTHAc2 knDDAc2 knDDHAc2 knNNAc2 knTAc2 knTHAc2 knDAc2 knDHAc2 knNAc2 knPAc2 knPHAc2 knBAc2 knBHAc2 knMAc2 knYAc2 knRAc2 knLAc2 knVAc2 knSHAc2 knSSAc2 knSAc2 knHAc2 knRRAc2 knLLAc2 knLLLAc2 knKSSAc2 knTAc2_RAc2 ";
name = BELOW_BASE_MARKS;
},
{
code = "knmvR.following knmvRR.following knAIlengthmark.following knKAc2.following knKHAc2.following knGAc2.following knGHAc2.following knNGAc2.following knCAc2.following knCHAc2.following knJAc2.following knJHAc2.following knNYAc2.following knTTAc2.following knTTHAc2.following knDDAc2.following knDDHAc2.following knNNAc2.following knTAc2.following knTHAc2.following knDAc2.following knDHAc2.following knNAc2.following knPAc2.following knPHAc2.following knBAc2.following knBHAc2.following knMAc2.following knYAc2.following knRAc2.following knLAc2.following knVAc2.following knSHAc2.following knSSAc2.following knSAc2.following knHAc2.following knRRAc2.following knLLAc2.following knLLLAc2.following knKSSAc2.following knTAc2_RAc2.following ";
name = BELOW_BASE_MARKS_FOLLOWING;
}
);
copyright = "Copyright \U00A9 2015 by John-Daniel Harrington  All rights reserved. Copyright \U00A9 2015 by Georg Duffner. All rights reserved. Copyright \U00A9 2015 by Indian Type Foundry. All rights reserved.";
customParameters = (
{
name = glyphOrder;
value = (
    knA,
    knAA,
    knI,
    knII,
    knU,
    knUU,
    knvR,
    knvRR,
    knvL,
    knvLL,
    knE,

glyphs = (
{
color = 4;
glyphname = knA;
lastChange = "2016-01-25 15:16:29 +0000";
layers = (
{
layerId = "034236B8-3FA8-43DA-9EDA-EFF269A687EC";
name = Regular;
paths = (
{
closed = 1;
nodes = (
"592 -14 OFFCURVE",
"712 104 OFFCURVE",
"712 280 CURVE SMOOTH",
"712 414 OFFCURVE",
"640 520 OFFCURVE",
"540 520 CURVE SMOOTH",
"472 520 OFFCURVE",
"445 471 OFFCURVE",
"445 423 CURVE SMOOTH",
"445 392 OFFCURVE",
"457 368 OFFCURVE",
"469 354 CURVE",
"374 354 LINE",
"374 283 LINE",
"604 283 LINE",
"604 354 LINE",
"551 354 LINE SMOOTH",
"506 354 OFFCURVE",
"485 379 OFFCURVE",
"485 406 CURVE SMOOTH",
"485 434 OFFCURVE",
"509 454 OFFCURVE",
"550 454 CURVE SMOOTH",
"629 454 OFFCURVE",
"673 389 OFFCURVE",
"673 300 CURVE SMOOTH",
"673 171 OFFCURVE",
"571 71 OFFCURVE",
"381 71 CURVE SMOOTH",
"190 71 OFFCURVE",
"90 171 OFFCURVE",
"90 302 CURVE SMOOTH",
"90 387 OFFCURVE",
"132 454 OFFCURVE",
"222 454 CURVE SMOOTH",
"263 454 OFFCURVE",
"297 440 OFFCURVE",
"297 401 CURVE SMOOTH",
"297 365 OFFCURVE",
"269 344 OFFCURVE",
"225 344 CURVE SMOOTH",
"180 344 OFFCURVE",
"149 365 OFFCURVE",
"149 409 CURVE SMOOTH",
"149 423 OFFCURVE",
"152 439 OFFCURVE",
"156 450 CURVE",
"125 429 LINE",
"123 417 OFFCURVE",
"121 400 OFFCURVE",
"121 383 CURVE SMOOTH",
"121 308 OFFCURVE",
"164 273 OFFCURVE",
"219 273 CURVE SMOOTH",
"285 273 OFFCURVE",
"327 325 OFFCURVE",
"327 393 CURVE SMOOTH",
"327 457 OFFCURVE",
"291 519 OFFCURVE",
"216 519 CURVE SMOOTH",
"118 519 OFFCURVE",
"50 414 OFFCURVE",
"50 283 CURVE SMOOTH",
"50 104 OFFCURVE",
"170 -14 OFFCURVE",
"381 -14 CURVE SMOOTH"
);
}
);
width = 762;
}
);
unicode = 0C85;
userData = {
public.markColor = "0.97,1,0,1";
};
},
{
color = 4;
glyphname = knAA;
lastChange = "2016-01-25 15:16:55 +0000";
layers = (
{
layerId = "034236B8-3FA8-43DA-9EDA-EFF269A687EC";
name = Regular;
paths = (
{
closed = 1;
nodes = (
"564 355 LINE",
"552 370 OFFCURVE",
"544 385 OFFCURVE",
"544 403 CURVE SMOOTH",
"544 432 OFFCURVE",
"566 454 OFFCURVE",
"605 454 CURVE SMOOTH",
"644 454 OFFCURVE",
"668 431 OFFCURVE",
"668 402 CURVE SMOOTH",
"668 373 OFFCURVE",
"642 355 OFFCURVE",
"591 355 CURVE SMOOTH"
);
},
{
closed = 1;
nodes = (
"190 71 OFFCURVE",
"90 171 OFFCURVE",
"90 302 CURVE SMOOTH",
"90 387 OFFCURVE",
"132 454 OFFCURVE",
"222 454 CURVE SMOOTH",
"263 454 OFFCURVE",
"297 440 OFFCURVE",
"297 401 CURVE SMOOTH",
"297 365 OFFCURVE",
"269 344 OFFCURVE",
"225 344 CURVE SMOOTH",
"180 344 OFFCURVE",
"149 365 OFFCURVE",
"149 408 CURVE SMOOTH",
"149 426 OFFCURVE",
"153 440 OFFCURVE",
"156 450 CURVE",
"125 429 LINE",
"122 407 OFFCURVE",
"121 394 OFFCURVE",
"121 382 CURVE SMOOTH",
"121 308 OFFCURVE",
"164 273 OFFCURVE",
"218 273 CURVE SMOOTH",
"285 273 OFFCURVE",
"327 325 OFFCURVE",
"327 394 CURVE SMOOTH",
"327 457 OFFCURVE",
"291 519 OFFCURVE",
"216 519 CURVE SMOOTH",
"118 519 OFFCURVE",
"50 414 OFFCURVE",
"50 280 CURVE SMOOTH",
"50 104 OFFCURVE",
"170 -14 OFFCURVE",
"371 -14 CURVE SMOOTH",
"565 -14 OFFCURVE",
"655 90 OFFCURVE",
"655 193 CURVE SMOOTH",
"655 236 OFFCURVE",
"639 268 OFFCURVE",
"620 293 CURVE",
"670 310 OFFCURVE",
"699 351 OFFCURVE",
"699 402 CURVE SMOOTH",
"699 463 OFFCURVE",
"658 519 OFFCURVE",
"593 519 CURVE SMOOTH",
"542 519 OFFCURVE",
"505 485 OFFCURVE",
"505 422 CURVE SMOOTH",
"505 395 OFFCURVE",
"512 373 OFFCURVE",
"522 355 CURVE",
"386 355 LINE",
"386 283 LINE",
"558 283 LINE SMOOTH",
"565 283 OFFCURVE",
"572 283 OFFCURVE",
"579 284 CURVE",
"597 262 OFFCURVE",
"611 241 OFFCURVE",
"611 211 CURVE SMOOTH",
"611 136 OFFCURVE",
"525 71 OFFCURVE",
"372 71 CURVE SMOOTH"
);
}
);
width = 729;
}
);
unicode = 0C86;
userData = {
public.markColor = "0.97,1,0,1";
};
},
{
color = 4;
glyphname = knI;
lastChange = "2016-01-25 15:17:03 +0000";
layers = (
{
layerId = "034236B8-3FA8-43DA-9EDA-EFF269A687EC";
name = Regular;
paths = (
{
closed = 1;
nodes = (
"74 519 OFFCURVE",
"25 467 OFFCURVE",
"25 388 CURVE SMOOTH",
"25 356 OFFCURVE",
"33 323 OFFCURVE",
"54 296 CURVE",
"85 317 LINE",
"78 327 OFFCURVE",
"72 341 OFFCURVE",
"72 360 CURVE SMOOTH",
"72 402 OFFCURVE",
"103 442 OFFCURVE",
"164 442 CURVE SMOOTH",
"251 442 OFFCURVE",
"301 358 OFFCURVE",
"315 283 CURVE",
"325 283 LINE",
"337 357 OFFCURVE",
"393 441 OFFCURVE",
"475 441 CURVE SMOOTH",
"538 441 OFFCURVE",
"590 390 OFFCURVE",
"590 300 CURVE SMOOTH",
"590 174 OFFCURVE",
"477 71 OFFCURVE",
"345 71 CURVE SMOOTH",
"286 71 OFFCURVE",
"235 89 OFFCURVE",
"235 125 CURVE SMOOTH",
"235 155 OFFCURVE",
"273 184 OFFCURVE",
"343 184 CURVE SMOOTH",
"491 184 OFFCURVE",
"574 46 OFFCURVE",
"574 -45 CURVE SMOOTH",
"574 -76 OFFCURVE",
"584 -97 OFFCURVE",
"605 -97 CURVE SMOOTH",
"622 -97 OFFCURVE",
"633 -84 OFFCURVE",
"633 -54 CURVE SMOOTH",
"633 39 OFFCURVE",
"526 216 OFFCURVE",
"338 216 CURVE SMOOTH",
"239 216 OFFCURVE",
"182 168 OFFCURVE",
"182 105 CURVE SMOOTH",
"182 38 OFFCURVE",
"245 -14 OFFCURVE",
"335 -14 CURVE SMOOTH",
"492 -14 OFFCURVE",
"626 128 OFFCURVE",
"626 320 CURVE SMOOTH",
"626 462 OFFCURVE",
"573 519 OFFCURVE",
"490 519 CURVE SMOOTH",
"409 519 OFFCURVE",
"344 461 OFFCURVE",
"321 377 CURVE",
"319 377 LINE",
"296 461 OFFCURVE",
"230 519 OFFCURVE",
"150 519 CURVE SMOOTH"
);
}
);
width = 683;
}
);
unicode = 0C87;
userData = {
public.markColor = "0.97,1,0,1";
};
},
{
color = 4;
glyphname = knII;
lastChange = "2016-01-25 14:48:33 +0000";
layers = (
{
layerId = "034236B8-3FA8-43DA-9EDA-EFF269A687EC";
name = Regular;
paths = (
{
closed = 1;
nodes = (
"757 -14 OFFCURVE",
"811 30 OFFCURVE",
"811 104 CURVE SMOOTH",
"811 223 OFFCURVE",
"677 279 OFFCURVE",
"677 361 CURVE SMOOTH",
"677 397 OFFCURVE",
"703 418 OFFCURVE",
"736 418 CURVE SMOOTH",
"767 418 OFFCURVE",
"793 400 OFFCURVE",
"793 364 CURVE SMOOTH",
"793 325 OFFCURVE",
"763 298 OFFCURVE",
"687 298 CURVE SMOOTH",
"40 298 LINE",
"40 239 LINE",
"654 239 LINE SMOOTH",
"759 239 OFFCURVE",
"831 286 OFFCURVE",
"831 369 CURVE SMOOTH",
"831 434 OFFCURVE",
"787 479 OFFCURVE",
"729 479 CURVE SMOOTH",
"676 479 OFFCURVE",
"637 441 OFFCURVE",
"637 382 CURVE SMOOTH",
"637 277 OFFCURVE",
"760 228 OFFCURVE",
"760 142 CURVE SMOOTH",
"760 106 OFFCURVE",
"738 88 OFFCURVE",
"716 79 CURVE SMOOTH",
"692 70 OFFCURVE",
"673 73 OFFCURVE",
"656 67 CURVE SMOOTH",
"639 61 OFFCURVE",
"628 48 OFFCURVE",
"628 30 CURVE SMOOTH",
"628 5 OFFCURVE",
"649 -14 OFFCURVE",
"692 -14 CURVE SMOOTH"
);
},
{
closed = 1;
nodes = (
"475 -14 OFFCURVE",
"569 88 OFFCURVE",
"569 228 CURVE SMOOTH",
"569 317 OFFCURVE",
"523 401 OFFCURVE",
"449 439 CURVE SMOOTH",
"417 456 OFFCURVE",
"380 464 OFFCURVE",
"339 464 CURVE SMOOTH",
"298 464 OFFCURVE",
"261 456 OFFCURVE",
"229 439 CURVE SMOOTH",
"155 401 OFFCURVE",
"109 317 OFFCURVE",
"109 228 CURVE SMOOTH",
"109 88 OFFCURVE",
"203 -14 OFFCURVE",
"339 -14 CURVE SMOOTH"
);
},
{
closed = 1;
nodes = (
"229 71 OFFCURVE",
"154 146 OFFCURVE",
"154 249 CURVE SMOOTH",
"154 350 OFFCURVE",
"238 436 OFFCURVE",
"339 436 CURVE SMOOTH",
"440 436 OFFCURVE",
"524 351 OFFCURVE",
"524 250 CURVE SMOOTH",
"524 147 OFFCURVE",
"448 71 OFFCURVE",
"339 71 CURVE SMOOTH"
);
},
{
closed = 1;
nodes = (
"230 434 LINE",
"340 444 LINE",
"439 434 LINE",
"520 434 OFFCURVE",
"574 479 OFFCURVE",
"574 552 CURVE SMOOTH",
"574 607 OFFCURVE",
"543 648 OFFCURVE",
"500 664 CURVE",
"485 644 LINE",
"509 635 OFFCURVE",
"531 610 OFFCURVE",
"531 576 CURVE SMOOTH",
"531 536 OFFCURVE",
"500 509 OFFCURVE",
"439 509 CURVE SMOOTH",
"110 509 LINE",
"110 434 LINE"
);
}
);
width = 871;
}
);
unicode = 0C88;
userData = {
public.markColor = "0.97,1,0,1";
};
},
{
color = 4;
glyphname = knU;
lastChange = "2016-01-25 14:48:25 +0000";
layers = (
{
layerId = "034236B8-3FA8-43DA-9EDA-EFF269A687EC";
name = Regular;
paths = (
{
closed = 1;
nodes = (
"55 115 OFFCURVE",
"163 -14 OFFCURVE",
"300 -14 CURVE SMOOTH",
"402 -14 OFFCURVE",
"468 42 OFFCURVE",
"468 150 CURVE SMOOTH",
"468 229 OFFCURVE",
"456 284 OFFCURVE",
"456 339 CURVE SMOOTH",
"456 396 OFFCURVE",
"487 441 OFFCURVE",
"547 441 CURVE SMOOTH",
"600 441 OFFCURVE",
"634 406 OFFCURVE",
"634 339 CURVE SMOOTH",
"634 276 OFFCURVE",
"629 220 OFFCURVE",
"629 150 CURVE SMOOTH",
"629 65 OFFCURVE",
"674 -14 OFFCURVE",
"775 -14 CURVE SMOOTH",
"894 -14 OFFCURVE",
"974 95 OFFCURVE",
"974 246 CURVE SMOOTH",
"974 415 OFFCURVE",
"878 513 OFFCURVE",
"808 513 CURVE SMOOTH",
"776 513 OFFCURVE",
"759 492 OFFCURVE",
"759 470 CURVE SMOOTH",
"759 451 OFFCURVE",
"771 435 OFFCURVE",
"787 430 CURVE SMOOTH",
"810 423 OFFCURVE",
"832 428 OFFCURVE",
"853 421 CURVE SMOOTH",
"892 407 OFFCURVE",
"939 344 OFFCURVE",
"939 251 CURVE SMOOTH",
"939 137 OFFCURVE",
"869 71 OFFCURVE",
"789 71 CURVE SMOOTH",
"708 71 OFFCURVE",
"668 138 OFFCURVE",
"668 207 CURVE SMOOTH",
"668 256 OFFCURVE",
"676 312 OFFCURVE",
"676 375 CURVE SMOOTH",
"676 453 OFFCURVE",
"632 519 OFFCURVE",
"548 519 CURVE SMOOTH",
"464 519 OFFCURVE",
"414 453 OFFCURVE",
"414 364 CURVE SMOOTH",
"414 312 OFFCURVE",
"431 256 OFFCURVE",
"431 189 CURVE SMOOTH",
"431 118 OFFCURVE",
"374 71 OFFCURVE",
"297 71 CURVE SMOOTH",
"185 71 OFFCURVE",
"95 171 OFFCURVE",
"95 302 CURVE SMOOTH",
"95 387 OFFCURVE",
"137 454 OFFCURVE",
"227 454 CURVE SMOOTH",
"268 454 OFFCURVE",
"302 440 OFFCURVE",
"302 401 CURVE SMOOTH",
"302 365 OFFCURVE",
"274 344 OFFCURVE",
"230 344 CURVE SMOOTH",
"185 344 OFFCURVE",
"154 365 OFFCURVE",
"154 409 CURVE SMOOTH",
"154 423 OFFCURVE",
"157 439 OFFCURVE",
"161 450 CURVE",
"130 429 LINE",
"128 417 OFFCURVE",
"126 400 OFFCURVE",
"126 383 CURVE SMOOTH",
"126 308 OFFCURVE",
"169 273 OFFCURVE",
"224 273 CURVE SMOOTH",
"290 273 OFFCURVE",
"332 325 OFFCURVE",
"332 393 CURVE SMOOTH",
"332 457 OFFCURVE",
"296 519 OFFCURVE",
"221 519 CURVE SMOOTH",
"123 519 OFFCURVE",
"55 414 OFFCURVE",
"55 279 CURVE SMOOTH"
);
}
);
width = 1034;
}
);
unicode = 0C89;
userData = {
public.markColor = "0.97,1,0,1";
};
},
{
color = 4;
glyphname = knUU;
lastChange = "2016-01-25 14:48:49 +0000";
layers = (
{
layerId = "034236B8-3FA8-43DA-9EDA-EFF269A687EC";
name = Regular;
paths = (
{
closed = 1;
nodes = (
"874 -14 OFFCURVE",
"917 73 OFFCURVE",
"917 231 CURVE SMOOTH",
"917 371 OFFCURVE",
"993 441 OFFCURVE",
"1100 441 CURVE SMOOTH",
"1215 441 OFFCURVE",
"1314 363 OFFCURVE",
"1314 235 CURVE SMOOTH",
"1314 129 OFFCURVE",
"1252 68 OFFCURVE",
"1162 68 CURVE SMOOTH",
"1088 68 OFFCURVE",
"1044 113 OFFCURVE",
"1044 172 CURVE SMOOTH",
"1044 212 OFFCURVE",
"1065 237 OFFCURVE",
"1077 237 CURVE SMOOTH",
"1082 237 OFFCURVE",
"1083 233 OFFCURVE",
"1083 227 CURVE SMOOTH",
"1084 191 OFFCURVE",
"1105 165 OFFCURVE",
"1138 165 CURVE SMOOTH",
"1173 165 OFFCURVE",
"1199 194 OFFCURVE",
"1198 230 CURVE",
"1199 262 OFFCURVE",
"1174 299 OFFCURVE",
"1119 299 CURVE SMOOTH",
"1047 299 OFFCURVE",
"1007 235 OFFCURVE",
"1006 157 CURVE SMOOTH",
"1007 58 OFFCURVE",
"1067 -14 OFFCURVE",
"1163 -14 CURVE SMOOTH",
"1275 -14 OFFCURVE",
"1349 92 OFFCURVE",
"1349 238 CURVE SMOOTH",
"1349 402 OFFCURVE",
"1239 519 OFFCURVE",
"1091 519 CURVE SMOOTH",
"969 519 OFFCURVE",
"880 423 OFFCURVE",
"880 248 CURVE SMOOTH",
"880 116 OFFCURVE",
"844 71 OFFCURVE",
"771 71 CURVE SMOOTH",
"702 71 OFFCURVE",
"668 138 OFFCURVE",
"668 207 CURVE SMOOTH",
"668 256 OFFCURVE",
"676 312 OFFCURVE",
"676 375 CURVE SMOOTH",
"676 453 OFFCURVE",
"632 519 OFFCURVE",
"548 519 CURVE SMOOTH",
"464 519 OFFCURVE",
"414 453 OFFCURVE",
"414 364 CURVE SMOOTH",
"414 312 OFFCURVE",
"431 256 OFFCURVE",
"431 189 CURVE SMOOTH",
"431 118 OFFCURVE",
"374 71 OFFCURVE",
"297 71 CURVE SMOOTH",
"185 71 OFFCURVE",
"95 171 OFFCURVE",
"95 301 CURVE SMOOTH",
"95 387 OFFCURVE",
"137 454 OFFCURVE",
"227 454 CURVE SMOOTH",
"268 454 OFFCURVE",
"302 440 OFFCURVE",
"302 401 CURVE SMOOTH",
"302 365 OFFCURVE",
"274 344 OFFCURVE",
"230 344 CURVE SMOOTH",
"185 344 OFFCURVE",
"154 365 OFFCURVE",
"154 409 CURVE SMOOTH",
"154 423 OFFCURVE",
"157 439 OFFCURVE",
"161 450 CURVE",
"130 429 LINE",
"128 417 OFFCURVE",
"126 400 OFFCURVE",
"126 383 CURVE SMOOTH",
"126 308 OFFCURVE",
"169 273 OFFCURVE",
"224 273 CURVE SMOOTH",
"290 273 OFFCURVE",
"332 325 OFFCURVE",
"332 394 CURVE SMOOTH",
"332 457 OFFCURVE",
"296 519 OFFCURVE",
"220 519 CURVE SMOOTH",
"123 519 OFFCURVE",
"55 414 OFFCURVE",
"55 276 CURVE SMOOTH",
"55 104 OFFCURVE",
"163 -14 OFFCURVE",
"300 -14 CURVE SMOOTH",
"402 -14 OFFCURVE",
"468 42 OFFCURVE",
"468 150 CURVE SMOOTH",
"468 229 OFFCURVE",
"456 284 OFFCURVE",
"456 339 CURVE SMOOTH",
"456 396 OFFCURVE",
"487 441 OFFCURVE",
"546 441 CURVE SMOOTH",
"600 441 OFFCURVE",
"634 406 OFFCURVE",
"634 339 CURVE SMOOTH",
"634 276 OFFCURVE",
"629 220 OFFCURVE",
"629 150 CURVE SMOOTH",
"629 65 OFFCURVE",
"670 -14 OFFCURVE",
"774 -14 CURVE SMOOTH"
);
}
);
width = 1409;
}
);
leftMetricsKey = "=knU";
unicode = 0C8A;
userData = {
public.markColor = "0.97,1,0,1";
};
},
{
color = 4;
glyphname = knvR;
lastChange = "2016-01-25 14:33:18 +0000";
layers = (
{
layerId = "034236B8-3FA8-43DA-9EDA-EFF269A687EC";
name = Regular;
paths = (
{
closed = 1;
nodes = (
"987 -14 OFFCURVE",
"1067 95 OFFCURVE",
"1067 242 CURVE SMOOTH",
"1067 415 OFFCURVE",
"971 514 OFFCURVE",
"901 514 CURVE SMOOTH",
"869 514 OFFCURVE",
"852 494 OFFCURVE",
"852 471 CURVE SMOOTH",
"852 452 OFFCURVE",
"864 436 OFFCURVE",
"880 431 CURVE SMOOTH",
"891 428 OFFCURVE",
"902 427 OFFCURVE",
"913 427 CURVE SMOOTH",
"924 426 OFFCURVE",
"934 426 OFFCURVE",
"945 422 CURVE SMOOTH",
"985 408 OFFCURVE",
"1032 344 OFFCURVE",
"1032 255 CURVE SMOOTH",
"1032 137 OFFCURVE",
"962 71 OFFCURVE",
"871 71 CURVE SMOOTH",
"805 71 OFFCURVE",
"752 105 OFFCURVE",
"715 207 CURVE",
"695 188 LINE",
"713 61 OFFCURVE",
"788 -14 OFFCURVE",
"878 -14 CURVE SMOOTH"
);
},
{
closed = 1;
nodes = (
"323 -15 OFFCURVE",
"403 120 OFFCURVE",
"403 251 CURVE SMOOTH",
"403 382 OFFCURVE",
"325 519 OFFCURVE",
"191 519 CURVE SMOOTH",
"111 519 OFFCURVE",
"58 471 OFFCURVE",
"58 407 CURVE SMOOTH",
"58 339 OFFCURVE",
"117 289 OFFCURVE",
"174 289 CURVE SMOOTH",
"228 289 OFFCURVE",
"272 332 OFFCURVE",
"272 405 CURVE SMOOTH",
"272 418 OFFCURVE",
"271 431 OFFCURVE",
"268 453 CURVE",
"237 470 LINE",
"240 460 OFFCURVE",
"244 439 OFFCURVE",
"244 428 CURVE SMOOTH",
"244 382 OFFCURVE",
"214 355 OFFCURVE",
"168 355 CURVE SMOOTH",
"126 355 OFFCURVE",
"95 377 OFFCURVE",
"95 405 CURVE SMOOTH",
"95 432 OFFCURVE",
"124 449 OFFCURVE",
"173 449 CURVE SMOOTH",
"281 449 OFFCURVE",
"363 365 OFFCURVE",
"363 249 CURVE SMOOTH",
"363 149 OFFCURVE",
"296 57 OFFCURVE",
"183 57 CURVE SMOOTH",
"123 57 OFFCURVE",
"93 83 OFFCURVE",
"93 112 CURVE SMOOTH",
"93 140 OFFCURVE",
"122 161 OFFCURVE",
"160 161 CURVE SMOOTH",
"211 161 OFFCURVE",
"241 122 OFFCURVE",
"241 76 CURVE SMOOTH",
"241 65 OFFCURVE",
"239 45 OFFCURVE",
"237 34 CURVE",
"265 54 LINE",
"268 72 OFFCURVE",
"269 87 OFFCURVE",
"269 99 CURVE SMOOTH",
"269 175 OFFCURVE",
"225 227 OFFCURVE",
"164 227 CURVE SMOOTH",
"104 227 OFFCURVE",
"55 176 OFFCURVE",
"55 111 CURVE SMOOTH",
"55 42 OFFCURVE",
"111 -15 OFFCURVE",
"194 -15 CURVE SMOOTH"
);
},
{
closed = 1;
nodes = (
"651 -14 OFFCURVE",
"731 95 OFFCURVE",
"731 242 CURVE SMOOTH",
"731 415 OFFCURVE",
"635 509 OFFCURVE",
"564 509 CURVE",
"584 434 LINE",
"631 411 OFFCURVE",
"696 344 OFFCURVE",
"696 244 CURVE SMOOTH",
"696 137 OFFCURVE",
"621 71 OFFCURVE",
"533 71 CURVE SMOOTH",
"469 71 OFFCURVE",
"416 105 OFFCURVE",
"379 207 CURVE",
"359 188 LINE",
"377 61 OFFCURVE",
"452 -14 OFFCURVE",
"542 -14 CURVE SMOOTH"
);
},
{
closed = 1;
nodes = (
"628 434 LINE SMOOTH",
"709 434 OFFCURVE",
"763 480 OFFCURVE",
"763 552 CURVE SMOOTH",
"763 607 OFFCURVE",
"732 648 OFFCURVE",
"689 664 CURVE",
"674 644 LINE",
"698 635 OFFCURVE",
"720 610 OFFCURVE",
"720 576 CURVE SMOOTH",
"720 536 OFFCURVE",
"689 509 OFFCURVE",
"628 509 CURVE SMOOTH",
"436 509 LINE",
"436 434 LINE"
);
}
);
width = 1127;
}
);
rightMetricsKey = "=knmU";
unicode = 0C8B;
userData = {
public.markColor = "0.97,1,0,1";
};
},
{
color = 4;
glyphname = knvRR;
lastChange = "2016-01-25 14:38:59 +0000";
layers = (
{
layerId = "034236B8-3FA8-43DA-9EDA-EFF269A687EC";
name = Regular;
paths = (
{
closed = 1;
nodes = (
"651 -14 OFFCURVE",
"731 95 OFFCURVE",
"731 242 CURVE SMOOTH",
"731 415 OFFCURVE",
"635 509 OFFCURVE",
"564 509 CURVE",
"584 434 LINE",
"637 415 OFFCURVE",
"696 354 OFFCURVE",
"696 244 CURVE SMOOTH",
"696 137 OFFCURVE",
"621 71 OFFCURVE",
"533 71 CURVE SMOOTH",
"469 71 OFFCURVE",
"416 105 OFFCURVE",
"379 207 CURVE",
"369 141 LINE",
"397 43 OFFCURVE",
"464 -14 OFFCURVE",
"542 -14 CURVE SMOOTH"
);
},
{
closed = 1;
nodes = (
"628 434 LINE SMOOTH",
"709 434 OFFCURVE",
"763 480 OFFCURVE",
"763 552 CURVE SMOOTH",
"763 607 OFFCURVE",
"732 648 OFFCURVE",
"689 664 CURVE",
"674 644 LINE",
"698 635 OFFCURVE",
"720 610 OFFCURVE",
"720 576 CURVE SMOOTH",
"720 536 OFFCURVE",
"689 509 OFFCURVE",
"628 509 CURVE SMOOTH",
"436 509 LINE",
"436 434 LINE"
);
},
{
closed = 1;
nodes = (
"978 -14 OFFCURVE",
"1010 73 OFFCURVE",
"1010 231 CURVE SMOOTH",
"1010 371 OFFCURVE",
"1087 441 OFFCURVE",
"1196 441 CURVE SMOOTH",
"1309 441 OFFCURVE",
"1408 363 OFFCURVE",
"1408 233 CURVE SMOOTH",
"1408 129 OFFCURVE",
"1346 68 OFFCURVE",
"1257 68 CURVE SMOOTH",
"1182 68 OFFCURVE",
"1138 113 OFFCURVE",
"1138 172 CURVE SMOOTH",
"1138 212 OFFCURVE",
"1158 237 OFFCURVE",
"1174 237 CURVE SMOOTH",
"1177 237 OFFCURVE",
"1178 236 OFFCURVE",
"1178 227 CURVE SMOOTH",
"1178 191 OFFCURVE",
"1199 165 OFFCURVE",
"1232 165 CURVE SMOOTH",
"1267 165 OFFCURVE",
"1293 194 OFFCURVE",
"1293 229 CURVE SMOOTH",
"1293 262 OFFCURVE",
"1268 299 OFFCURVE",
"1213 299 CURVE SMOOTH",
"1141 299 OFFCURVE",
"1101 235 OFFCURVE",
"1100 157 CURVE SMOOTH",
"1101 58 OFFCURVE",
"1161 -14 OFFCURVE",
"1255 -14 CURVE SMOOTH",
"1369 -14 OFFCURVE",
"1443 92 OFFCURVE",
"1443 232 CURVE SMOOTH",
"1443 402 OFFCURVE",
"1333 519 OFFCURVE",
"1191 519 CURVE SMOOTH",
"1063 519 OFFCURVE",
"975 423 OFFCURVE",
"975 241 CURVE SMOOTH",
"975 116 OFFCURVE",
"938 71 OFFCURVE",
"870 71 CURVE SMOOTH",
"784 71 OFFCURVE",
"734 145 OFFCURVE",
"705 222 CURVE",
"701 145 LINE",
"734 62 OFFCURVE",
"801 -14 OFFCURVE",
"888 -14 CURVE SMOOTH"
);
},
{
closed = 1;
nodes = (
"323 -14 OFFCURVE",
"400 121 OFFCURVE",
"400 253 CURVE SMOOTH",
"400 383 OFFCURVE",
"325 519 OFFCURVE",
"191 519 CURVE SMOOTH",
"111 519 OFFCURVE",
"58 471 OFFCURVE",
"58 407 CURVE SMOOTH",
"58 339 OFFCURVE",
"117 289 OFFCURVE",
"175 289 CURVE SMOOTH",
"228 289 OFFCURVE",
"272 332 OFFCURVE",
"272 409 CURVE SMOOTH",
"272 422 OFFCURVE",
"271 436 OFFCURVE",
"268 453 CURVE",
"237 470 LINE",
"241 459 OFFCURVE",
"244 444 OFFCURVE",
"244 429 CURVE SMOOTH",
"244 382 OFFCURVE",
"214 355 OFFCURVE",
"168 355 CURVE SMOOTH",
"126 355 OFFCURVE",
"95 377 OFFCURVE",
"95 405 CURVE SMOOTH",
"95 432 OFFCURVE",
"124 449 OFFCURVE",
"173 449 CURVE SMOOTH",
"281 449 OFFCURVE",
"365 375 OFFCURVE",
"365 246 CURVE SMOOTH",
"365 129 OFFCURVE",
"296 57 OFFCURVE",
"188 57 CURVE SMOOTH",
"123 57 OFFCURVE",
"93 83 OFFCURVE",
"93 112 CURVE SMOOTH",
"93 140 OFFCURVE",
"122 161 OFFCURVE",
"160 161 CURVE SMOOTH",
"211 161 OFFCURVE",
"241 122 OFFCURVE",
"241 71 CURVE SMOOTH",
"241 62 OFFCURVE",
"240 50 OFFCURVE",
"237 34 CURVE",
"265 54 LINE",
"268 70 OFFCURVE",
"269 87 OFFCURVE",
"269 99 CURVE SMOOTH",
"269 175 OFFCURVE",
"225 227 OFFCURVE",
"164 227 CURVE SMOOTH",
"104 227 OFFCURVE",
"55 176 OFFCURVE",
"55 111 CURVE SMOOTH",
"55 42 OFFCURVE",
"111 -14 OFFCURVE",
"194 -14 CURVE SMOOTH"
);
}
);
width = 1503;
}
);
leftMetricsKey = "=knvR";
rightMetricsKey = "=knUU";
unicode = 0CE0;
userData = {
public.markColor = "0.97,1,0,1";
};
},
{
color = 4;
glyphname = knvL;
lastChange = "2016-01-25 14:45:17 +0000";
layers = (
{
layerId = "034236B8-3FA8-43DA-9EDA-EFF269A687EC";
name = Regular;
paths = (
{
closed = 1;
nodes = (
"823 -14 OFFCURVE",
"916 120 OFFCURVE",
"916 265 CURVE SMOOTH",
"916 419 OFFCURVE",
"818 514 OFFCURVE",
"733 514 CURVE SMOOTH",
"699 514 OFFCURVE",
"682 494 OFFCURVE",
"682 471 CURVE SMOOTH",
"682 452 OFFCURVE",
"694 436 OFFCURVE",
"711 431 CURVE SMOOTH",
"717 429 OFFCURVE",
"722 428 OFFCURVE",
"728 428 CURVE SMOOTH",
"731 428 OFFCURVE",
"735 429 OFFCURVE",
"738 429 CURVE SMOOTH",
"750 429 OFFCURVE",
"762 429 OFFCURVE",
"778 424 CURVE SMOOTH",
"829 408 OFFCURVE",
"882 353 OFFCURVE",
"882 262 CURVE SMOOTH",
"882 137 OFFCURVE",
"776 71 OFFCURVE",
"624 71 CURVE SMOOTH",
"519 71 OFFCURVE",
"464 100 OFFCURVE",
"464 152 CURVE SMOOTH",
"464 190 OFFCURVE",
"493 218 OFFCURVE",
"525 248 CURVE SMOOTH",
"564 284 OFFCURVE",
"607 325 OFFCURVE",
"607 393 CURVE SMOOTH",
"607 464 OFFCURVE",
"558 519 OFFCURVE",
"486 519 CURVE SMOOTH",
"413 519 OFFCURVE",
"341 461 OFFCURVE",
"318 377 CURVE",
"316 377 LINE",
"293 461 OFFCURVE",
"228 519 OFFCURVE",
"151 519 CURVE SMOOTH",
"79 519 OFFCURVE",
"30 467 OFFCURVE",
"30 393 CURVE SMOOTH",
"30 346 OFFCURVE",
"49 308 OFFCURVE",
"87 269 CURVE",
"109 286 LINE",
"92 305 OFFCURVE",
"77 329 OFFCURVE",
"77 359 CURVE SMOOTH",
"77 402 OFFCURVE",
"108 442 OFFCURVE",
"166 442 CURVE SMOOTH",
"249 442 OFFCURVE",
"298 358 OFFCURVE",
"312 283 CURVE",
"321 283 LINE",
"334 358 OFFCURVE",
"396 442 OFFCURVE",
"484 442 CURVE SMOOTH",
"533 442 OFFCURVE",
"561 415 OFFCURVE",
"561 373 CURVE SMOOTH",
"561 328 OFFCURVE",
"529 299 OFFCURVE",
"495 269 CURVE SMOOTH",
"457 235 OFFCURVE",
"417 199 OFFCURVE",
"417 131 CURVE SMOOTH",
"417 56 OFFCURVE",
"465 -14 OFFCURVE",
"619 -14 CURVE SMOOTH"
);
}
);
width = 956;
}
);
rightMetricsKey = "=knE-10";
unicode = 0C8C;
userData = {
public.markColor = "0.97,1,0,1";
};
},
{
color = 4;
glyphname = knvLL;
lastChange = "2016-01-25 14:48:13 +0000";
layers = (
{
layerId = "034236B8-3FA8-43DA-9EDA-EFF269A687EC";
name = Regular;
paths = (
{
closed = 1;
nodes = (
"1241 -13 OFFCURVE",
"1315 93 OFFCURVE",
"1315 239 CURVE SMOOTH",
"1315 390 OFFCURVE",
"1245 509 OFFCURVE",
"1007 509 CURVE SMOOTH",
"730 509 LINE",
"730 434 LINE",
"1016 434 LINE SMOOTH",
"1210 434 OFFCURVE",
"1280 346 OFFCURVE",
"1280 236 CURVE SMOOTH",
"1280 130 OFFCURVE",
"1218 69 OFFCURVE",
"1128 69 CURVE SMOOTH",
"1054 69 OFFCURVE",
"1010 114 OFFCURVE",
"1010 173 CURVE SMOOTH",
"1010 213 OFFCURVE",
"1031 238 OFFCURVE",
"1043 238 CURVE SMOOTH",
"1047 238 OFFCURVE",
"1049 234 OFFCURVE",
"1049 228 CURVE SMOOTH",
"1049 192 OFFCURVE",
"1071 166 OFFCURVE",
"1104 166 CURVE SMOOTH",
"1139 166 OFFCURVE",
"1165 195 OFFCURVE",
"1165 229 CURVE SMOOTH",
"1165 263 OFFCURVE",
"1140 300 OFFCURVE",
"1085 300 CURVE SMOOTH",
"1013 300 OFFCURVE",
"973 236 OFFCURVE",
"972 158 CURVE SMOOTH",
"973 59 OFFCURVE",
"1033 -13 OFFCURVE",
"1129 -13 CURVE SMOOTH"
);
},
{
closed = 1;
nodes = (
"516 71 OFFCURVE",
"464 100 OFFCURVE",
"464 152 CURVE SMOOTH",
"464 190 OFFCURVE",
"493 218 OFFCURVE",
"525 248 CURVE SMOOTH",
"564 284 OFFCURVE",
"607 325 OFFCURVE",
"607 394 CURVE SMOOTH",
"607 464 OFFCURVE",
"558 519 OFFCURVE",
"486 519 CURVE SMOOTH",
"413 519 OFFCURVE",
"341 461 OFFCURVE",
"318 377 CURVE",
"316 377 LINE",
"293 461 OFFCURVE",
"228 519 OFFCURVE",
"151 519 CURVE SMOOTH",
"79 519 OFFCURVE",
"30 467 OFFCURVE",
"30 393 CURVE SMOOTH",
"30 346 OFFCURVE",
"49 308 OFFCURVE",
"87 269 CURVE",
"109 286 LINE",
"88 306 OFFCURVE",
"77 329 OFFCURVE",
"77 356 CURVE SMOOTH",
"77 402 OFFCURVE",
"108 442 OFFCURVE",
"166 442 CURVE SMOOTH",
"249 442 OFFCURVE",
"298 358 OFFCURVE",
"312 283 CURVE",
"321 283 LINE",
"334 358 OFFCURVE",
"396 442 OFFCURVE",
"484 442 CURVE SMOOTH",
"533 442 OFFCURVE",
"561 415 OFFCURVE",
"561 373 CURVE SMOOTH",
"561 328 OFFCURVE",
"529 299 OFFCURVE",
"495 269 CURVE SMOOTH",
"457 235 OFFCURVE",
"417 199 OFFCURVE",
"417 136 CURVE SMOOTH",
"417 56 OFFCURVE",
"461 -14 OFFCURVE",
"625 -14 CURVE SMOOTH",
"803 -14 OFFCURVE",
"895 105 OFFCURVE",
"895 236 CURVE SMOOTH",
"895 325 OFFCURVE",
"856 399 OFFCURVE",
"794 444 CURVE",
"733 435 LINE",
"790 418 OFFCURVE",
"859 344 OFFCURVE",
"859 244 CURVE SMOOTH",
"859 129 OFFCURVE",
"766 71 OFFCURVE",
"633 71 CURVE SMOOTH"
);
}
);
width = 1375;
}
);
rightMetricsKey = "=knUU";
unicode = 0CE1;
userData = {
public.markColor = "0.97,1,0,1";
};
},
{
color = 4;
glyphname = knE;
lastChange = "2016-01-25 14:38:49 +0000";
layers = (
{
layerId = "034236B8-3FA8-43DA-9EDA-EFF269A687EC";
name = Regular;
paths = (
{
closed = 1;
nodes = (
"242 -14 OFFCURVE",
"310 43 OFFCURVE",
"333 126 CURVE",
"335 126 LINE",
"358 43 OFFCURVE",
"426 -14 OFFCURVE",
"504 -14 CURVE SMOOTH",
"607 -14 OFFCURVE",
"669 88 OFFCURVE",
"669 211 CURVE SMOOTH",
"669 426 OFFCURVE",
"475 519 OFFCURVE",
"342 519 CURVE SMOOTH",
"307 519 OFFCURVE",
"287 496 OFFCURVE",
"287 472 CURVE SMOOTH",
"287 456 OFFCURVE",
"296 443 OFFCURVE",
"311 438 CURVE SMOOTH",
"318 436 OFFCURVE",
"325 435 OFFCURVE",
"332 435 CURVE SMOOTH",
"339 435 OFFCURVE",
"346 436 OFFCURVE",
"353 437 CURVE SMOOTH",
"362 438 OFFCURVE",
"371 439 OFFCURVE",
"382 439 CURVE SMOOTH",
"521 439 OFFCURVE",
"633 352 OFFCURVE",
"633 227 CURVE SMOOTH",
"633 138 OFFCURVE",
"578 71 OFFCURVE",
"500 71 CURVE SMOOTH",
"417 71 OFFCURVE",
"351 146 OFFCURVE",
"338 221 CURVE",
"329 221 LINE",
"315 145 OFFCURVE",
"250 71 OFFCURVE",
"176 71 CURVE SMOOTH",
"126 71 OFFCURVE",
"90 104 OFFCURVE",
"90 156 CURVE SMOOTH",
"90 204 OFFCURVE",
"122 227 OFFCURVE",
"163 227 CURVE SMOOTH",
"189 227 OFFCURVE",
"212 217 OFFCURVE",
"221 193 CURVE",
"237 208 LINE",
"226 250 OFFCURVE",
"202 287 OFFCURVE",
"153 287 CURVE SMOOTH",
"94 287 OFFCURVE",
"50 232 OFFCURVE",
"50 146 CURVE SMOOTH",
"50 56 OFFCURVE",
"100 -14 OFFCURVE",
"175 -14 CURVE SMOOTH"
);
}
);
width = 719;
}
);
unicode = 0C8E;
userData = {
public.markColor = "0.97,1,0,1";
};
},
{
color = 4;
glyphname = knEE;
lastChange = "2016-01-25 14:33:42 +0000";
layers = (
{
layerId = "034236B8-3FA8-43DA-9EDA-EFF269A687EC";
name = Regular;
paths = (
{
closed = 1;
nodes = (
"417 71 OFFCURVE",
"351 146 OFFCURVE",
"338 221 CURVE",
"329 221 LINE",
"315 145 OFFCURVE",
"250 71 OFFCURVE",
"176 71 CURVE SMOOTH",
"126 71 OFFCURVE",
"90 104 OFFCURVE",
"90 156 CURVE SMOOTH",
"90 204 OFFCURVE",
"122 227 OFFCURVE",
"163 227 CURVE SMOOTH",
"189 227 OFFCURVE",
"212 217 OFFCURVE",
"221 193 CURVE",
"237 208 LINE",
"226 250 OFFCURVE",
"202 287 OFFCURVE",
"153 287 CURVE SMOOTH",
"94 287 OFFCURVE",
"50 232 OFFCURVE",
"50 146 CURVE SMOOTH",
"50 56 OFFCURVE",
"100 -14 OFFCURVE",
"175 -14 CURVE SMOOTH",
"242 -14 OFFCURVE",
"310 43 OFFCURVE",
"333 126 CURVE",
"335 126 LINE",
"358 43 OFFCURVE",
"426 -14 OFFCURVE",
"504 -14 CURVE SMOOTH",
"607 -14 OFFCURVE",
"669 68 OFFCURVE",
"669 252 CURVE SMOOTH",
"669 488 OFFCURVE",
"536 633 OFFCURVE",
"372 632 CURVE",
"348 580 OFFCURVE",
"317 557 OFFCURVE",
"275 557 CURVE SMOOTH",
"224 557 OFFCURVE",
"185 592 OFFCURVE",
"185 645 CURVE SMOOTH",
"185 657 OFFCURVE",
"187 670 OFFCURVE",
"189 681 CURVE",
"168 692 LINE",
"159 666 OFFCURVE",
"152 637 OFFCURVE",
"152 609 CURVE SMOOTH",
"152 541 OFFCURVE",
"194 484 OFFCURVE",
"263 484 CURVE SMOOTH",
"319 484 OFFCURVE",
"355 521 OFFCURVE",
"382 576 CURVE",
"500 570 OFFCURVE",
"634 460 OFFCURVE",
"634 265 CURVE SMOOTH",
"634 118 OFFCURVE",
"578 71 OFFCURVE",
"500 71 CURVE SMOOTH"
);
}
);
width = 724;
}
);
leftMetricsKey = "=knE";
rightMetricsKey = "=knE+5";
unicode = 0C8F;
userData = {
public.markColor = "0.97,1,0,1";
};
},
{
color = 4;
glyphname = knAI;
lastChange = "2016-01-24 20:04:03 +0000";
layers = (
{
layerId = "034236B8-3FA8-43DA-9EDA-EFF269A687EC";
name = Regular;
paths = (
{
closed = 1;
nodes = (
"276 444 OFFCURVE",
"326 358 OFFCURVE",
"340 283 CURVE",
"349 283 LINE",
"361 357 OFFCURVE",
"417 444 OFFCURVE",
"505 444 CURVE SMOOTH",
"590 444 OFFCURVE",
"645 363 OFFCURVE",
"645 247 CURVE SMOOTH",
"645 138 OFFCURVE",
"589 71 OFFCURVE",
"512 71 CURVE SMOOTH",
"428 71 OFFCURVE",
"362 146 OFFCURVE",
"349 221 CURVE",
"340 221 LINE",
"326 145 OFFCURVE",
"261 71 OFFCURVE",
"188 71 CURVE SMOOTH",
"137 71 OFFCURVE",
"102 104 OFFCURVE",
"100 156 CURVE",
"102 201 OFFCURVE",
"131 227 OFFCURVE",
"172 227 CURVE SMOOTH",
"198 227 OFFCURVE",
"223 217 OFFCURVE",
"232 193 CURVE",
"248 208 LINE",
"237 250 OFFCURVE",
"213 287 OFFCURVE",
"163 287 CURVE SMOOTH",
"105 287 OFFCURVE",
"62 232 OFFCURVE",
"60 143 CURVE",
"62 56 OFFCURVE",
"111 -14 OFFCURVE",
"186 -14 CURVE SMOOTH",
"253 -14 OFFCURVE",
"321 43 OFFCURVE",
"344 126 CURVE",
"346 126 LINE",
"369 43 OFFCURVE",
"437 -14 OFFCURVE",
"513 -14 CURVE SMOOTH",
"618 -14 OFFCURVE",
"680 88 OFFCURVE",
"680 241 CURVE SMOOTH",
"680 388 OFFCURVE",
"618 519 OFFCURVE",
"509 519 CURVE SMOOTH",
"435 519 OFFCURVE",
"368 461 OFFCURVE",
"345 377 CURVE",
"343 377 LINE",
"324 461 OFFCURVE",
"264 519 OFFCURVE",
"195 519 CURVE SMOOTH",
"108 519 OFFCURVE",
"55 428 OFFCURVE",
"55 343 CURVE",
"78 332 LINE",
"93 399 OFFCURVE",
"136 444 OFFCURVE",
"195 444 CURVE SMOOTH"
);
}
);
width = 730;
}
);
leftMetricsKey = "=knE+5";
rightMetricsKey = "=knE";
unicode = 0C90;
userData = {
public.markColor = "0.97,1,0,1";
};
},
{
color = 4;
glyphname = knO;
lastChange = "2016-01-24 20:04:04 +0000";
layers = (
{
layerId = "034236B8-3FA8-43DA-9EDA-EFF269A687EC";
name = Regular;
paths = (
{
closed = 1;
nodes = (
"276 -14 OFFCURVE",
"344 43 OFFCURVE",
"367 126 CURVE",
"369 126 LINE",
"392 43 OFFCURVE",
"460 -14 OFFCURVE",
"528 -14 CURVE SMOOTH",
"594 -14 OFFCURVE",
"655 38 OFFCURVE",
"655 117 CURVE SMOOTH",
"655 172 OFFCURVE",
"626 222 OFFCURVE",
"592 251 CURVE",
"571 236 LINE",
"595 212 OFFCURVE",
"607 183 OFFCURVE",
"607 156 CURVE SMOOTH",
"607 116 OFFCURVE",
"582 71 OFFCURVE",
"525 71 CURVE SMOOTH",
"451 71 OFFCURVE",
"385 146 OFFCURVE",
"372 221 CURVE",
"363 221 LINE",
"349 145 OFFCURVE",
"284 71 OFFCURVE",
"212 71 CURVE SMOOTH",
"158 71 OFFCURVE",
"131 114 OFFCURVE",
"131 151 CURVE SMOOTH",
"131 187 OFFCURVE",
"155 223 OFFCURVE",
"189 257 CURVE SMOOTH",
"230 298 OFFCURVE",
"278 349 OFFCURVE",
"278 407 CURVE SMOOTH",
"278 465 OFFCURVE",
"230 519 OFFCURVE",
"154 519 CURVE SMOOTH",
"79 519 OFFCURVE",
"40 465 OFFCURVE",
"40 407 CURVE SMOOTH",
"40 381 OFFCURVE",
"48 352 OFFCURVE",
"69 330 CURVE",
"89 345 LINE",
"81 359 OFFCURVE",
"79 370 OFFCURVE",
"79 384 CURVE SMOOTH",
"79 421 OFFCURVE",
"102 452 OFFCURVE",
"149 452 CURVE SMOOTH",
"191 452 OFFCURVE",
"225 427 OFFCURVE",
"225 384 CURVE SMOOTH",
"225 344 OFFCURVE",
"194 311 OFFCURVE",
"162 278 CURVE SMOOTH",
"123 238 OFFCURVE",
"80 193 OFFCURVE",
"80 123 CURVE SMOOTH",
"80 38 OFFCURVE",
"141 -14 OFFCURVE",
"207 -14 CURVE SMOOTH"
);
}
);
width = 700;
}
);
leftMetricsKey = "=knBA";
unicode = 0C92;
userData = {
public.markColor = "0.97,1,0,1";
};
},
{
color = 4;
glyphname = knOO;
lastChange = "2016-01-24 20:04:03 +0000";
layers = (
{
layerId = "034236B8-3FA8-43DA-9EDA-EFF269A687EC";
name = Regular;
paths = (
{
closed = 1;
nodes = (
"200 508 LINE",
"158 537 OFFCURVE",
"140 564 OFFCURVE",
"140 601 CURVE SMOOTH",
"140 646 OFFCURVE",
"163 677 OFFCURVE",
"215 689 CURVE",
"206 711 LINE",
"122 706 OFFCURVE",
"76 660 OFFCURVE",
"76 606 CURVE SMOOTH",
"76 551 OFFCURVE",
"125 511 OFFCURVE",
"179 492 CURVE"
);
},
{
closed = 1;
nodes = (
"276 -14 OFFCURVE",
"344 43 OFFCURVE",
"367 126 CURVE",
"369 126 LINE",
"392 43 OFFCURVE",
"460 -14 OFFCURVE",
"528 -14 CURVE SMOOTH",
"594 -14 OFFCURVE",
"655 38 OFFCURVE",
"655 117 CURVE SMOOTH",
"655 172 OFFCURVE",
"626 222 OFFCURVE",
"592 251 CURVE",
"571 236 LINE",
"595 212 OFFCURVE",
"607 183 OFFCURVE",
"607 156 CURVE SMOOTH",
"607 116 OFFCURVE",
"582 71 OFFCURVE",
"525 71 CURVE SMOOTH",
"451 71 OFFCURVE",
"385 146 OFFCURVE",
"372 221 CURVE",
"363 221 LINE",
"349 145 OFFCURVE",
"284 71 OFFCURVE",
"212 71 CURVE SMOOTH",
"158 71 OFFCURVE",
"131 114 OFFCURVE",
"131 151 CURVE SMOOTH",
"131 187 OFFCURVE",
"155 223 OFFCURVE",
"189 257 CURVE SMOOTH",
"230 298 OFFCURVE",
"278 349 OFFCURVE",
"278 407 CURVE SMOOTH",
"278 465 OFFCURVE",
"230 519 OFFCURVE",
"154 519 CURVE SMOOTH",
"79 519 OFFCURVE",
"40 465 OFFCURVE",
"40 407 CURVE SMOOTH",
"40 381 OFFCURVE",
"48 352 OFFCURVE",
"69 330 CURVE",
"89 345 LINE",
"81 359 OFFCURVE",
"79 370 OFFCURVE",
"79 384 CURVE SMOOTH",
"79 421 OFFCURVE",
"102 452 OFFCURVE",
"149 452 CURVE SMOOTH",
"191 452 OFFCURVE",
"225 427 OFFCURVE",
"225 384 CURVE SMOOTH",
"225 344 OFFCURVE",
"194 311 OFFCURVE",
"162 278 CURVE SMOOTH",
"123 238 OFFCURVE",
"80 193 OFFCURVE",
"80 123 CURVE SMOOTH",
"80 38 OFFCURVE",
"141 -14 OFFCURVE",
"207 -14 CURVE SMOOTH"
);
}
);
width = 700;
}
);
leftMetricsKey = "=knO";
rightMetricsKey = "=knO";
unicode = 0C93;
userData = {
public.markColor = "0.97,1,0,1";
};
},
{
color = 4;
glyphname = knAU;
lastChange = "2016-01-24 20:04:03 +0000";
layers = (
{
layerId = "034236B8-3FA8-43DA-9EDA-EFF269A687EC";
name = Regular;
paths = (
{
closed = 1;
nodes = (
"585 287 OFFCURVE",
"647 364 OFFCURVE",
"647 471 CURVE SMOOTH",
"647 602 OFFCURVE",
"555 698 OFFCURVE",
"406 698 CURVE SMOOTH",
"56 698 LINE",
"56 626 LINE",
"283 626 LINE",
"284 623 OFFCURVE",
"285 618 OFFCURVE",
"285 614 CURVE SMOOTH",
"285 596 OFFCURVE",
"277 578 OFFCURVE",
"249 578 CURVE SMOOTH",
"56 578 LINE",
"56 508 LINE",
"231 508 LINE SMOOTH",
"285 508 OFFCURVE",
"325 541 OFFCURVE",
"325 587 CURVE SMOOTH",
"325 599 OFFCURVE",
"322 613 OFFCURVE",
"315 626 CURVE",
"406 626 LINE SMOOTH",
"533 626 OFFCURVE",
"613 561 OFFCURVE",
"613 469 CURVE SMOOTH",
"613 399 OFFCURVE",
"565 351 OFFCURVE",
"499 351 CURVE SMOOTH",
"442 351 OFFCURVE",
"405 386 OFFCURVE",
"405 434 CURVE SMOOTH",
"405 470 OFFCURVE",
"425 490 OFFCURVE",
"443 490 CURVE SMOOTH",
"447 490 OFFCURVE",
"448 488 OFFCURVE",
"448 483 CURVE SMOOTH",
"448 452 OFFCURVE",
"466 432 OFFCURVE",
"492 432 CURVE SMOOTH",
"521 432 OFFCURVE",
"542 455 OFFCURVE",
"542 482 CURVE SMOOTH",
"542 511 OFFCURVE",
"517 541 OFFCURVE",
"471 541 CURVE SMOOTH",
"416 541 OFFCURVE",
"369 495 OFFCURVE",
"369 424 CURVE SMOOTH",
"369 348 OFFCURVE",
"423 287 OFFCURVE",
"499 287 CURVE SMOOTH"
);
},
{
closed = 1;
nodes = (
"276 -14 OFFCURVE",
"344 43 OFFCURVE",
"367 126 CURVE",
"369 126 LINE",
"392 43 OFFCURVE",
"460 -14 OFFCURVE",
"528 -14 CURVE SMOOTH",
"594 -14 OFFCURVE",
"655 38 OFFCURVE",
"655 117 CURVE SMOOTH",
"655 172 OFFCURVE",
"626 222 OFFCURVE",
"592 251 CURVE",
"571 236 LINE",
"595 212 OFFCURVE",
"607 183 OFFCURVE",
"607 156 CURVE SMOOTH",
"607 116 OFFCURVE",
"582 71 OFFCURVE",
"525 71 CURVE SMOOTH",
"451 71 OFFCURVE",
"385 146 OFFCURVE",
"372 221 CURVE",
"363 221 LINE",
"349 145 OFFCURVE",
"284 71 OFFCURVE",
"212 71 CURVE SMOOTH",
"158 71 OFFCURVE",
"131 114 OFFCURVE",
"131 151 CURVE SMOOTH",
"131 187 OFFCURVE",
"155 223 OFFCURVE",
"189 257 CURVE SMOOTH",
"230 298 OFFCURVE",
"278 349 OFFCURVE",
"278 407 CURVE SMOOTH",
"278 465 OFFCURVE",
"230 519 OFFCURVE",
"154 519 CURVE SMOOTH",
"79 519 OFFCURVE",
"40 465 OFFCURVE",
"40 407 CURVE SMOOTH",
"40 381 OFFCURVE",
"48 352 OFFCURVE",
"69 330 CURVE",
"89 345 LINE",
"81 359 OFFCURVE",
"79 370 OFFCURVE",
"79 382 CURVE SMOOTH",
"79 421 OFFCURVE",
"102 452 OFFCURVE",
"149 452 CURVE SMOOTH",
"191 452 OFFCURVE",
"225 427 OFFCURVE",
"225 384 CURVE SMOOTH",
"225 344 OFFCURVE",
"194 311 OFFCURVE",
"162 278 CURVE SMOOTH",
"123 238 OFFCURVE",
"80 193 OFFCURVE",
"80 123 CURVE SMOOTH",
"80 38 OFFCURVE",
"141 -14 OFFCURVE",
"207 -14 CURVE SMOOTH"
);
}
);
width = 715;
}
);
leftMetricsKey = "=knO";
unicode = 0C94;
userData = {
public.markColor = "0.97,1,0,1";
};
},
{
color = 4;
glyphname = knmAA;
lastChange = "2016-01-24 20:04:01 +0000";
layers = (
{
layerId = "034236B8-3FA8-43DA-9EDA-EFF269A687EC";
name = Regular;
paths = (
{
closed = 1;
nodes = (
"311 -13 OFFCURVE",
"385 93 OFFCURVE",
"385 239 CURVE SMOOTH",
"385 390 OFFCURVE",
"315 509 OFFCURVE",
"77 509 CURVE SMOOTH",
"-200 509 LINE",
"-200 434 LINE",
"86 434 LINE SMOOTH",
"280 434 OFFCURVE",
"350 346 OFFCURVE",
"350 236 CURVE SMOOTH",
"350 130 OFFCURVE",
"288 69 OFFCURVE",
"199 69 CURVE SMOOTH",
"124 69 OFFCURVE",
"80 114 OFFCURVE",
"80 173 CURVE SMOOTH",
"80 213 OFFCURVE",
"101 238 OFFCURVE",
"113 238 CURVE SMOOTH",
"118 238 OFFCURVE",
"120 234 OFFCURVE",
"120 228 CURVE SMOOTH",
"120 192 OFFCURVE",
"141 166 OFFCURVE",
"174 166 CURVE SMOOTH",
"209 166 OFFCURVE",
"235 195 OFFCURVE",
"235 229 CURVE SMOOTH",
"235 263 OFFCURVE",
"210 300 OFFCURVE",
"155 300 CURVE SMOOTH",
"83 300 OFFCURVE",
"43 236 OFFCURVE",
"42 158 CURVE SMOOTH",
"43 59 OFFCURVE",
"103 -13 OFFCURVE",
"197 -13 CURVE SMOOTH"
);
}
);
width = 445;
}
);
rightMetricsKey = "=knUU";
unicode = 0CBE;
userData = {
public.markColor = "0.97,1,0,1";
};
},
{
color = 4;
glyphname = knmI;
lastChange = "2016-01-24 20:04:01 +0000";
layers = (
{
layerId = "034236B8-3FA8-43DA-9EDA-EFF269A687EC";
name = Regular;
paths = (
{
closed = 1;
nodes = (
"183 334 OFFCURVE",
"235 400 OFFCURVE",
"235 487 CURVE SMOOTH",
"235 581 OFFCURVE",
"174 674 OFFCURVE",
"90 674 CURVE SMOOTH",
"31 674 OFFCURVE",
"-5 629 OFFCURVE",
"-5 566 CURVE SMOOTH",
"-5 500 OFFCURVE",
"34 451 OFFCURVE",
"89 451 CURVE SMOOTH",
"149 451 OFFCURVE",
"179 505 OFFCURVE",
"179 565 CURVE SMOOTH",
"179 594 OFFCURVE",
"172 614 OFFCURVE",
"163 629 CURVE",
"133 631 LINE",
"143 619 OFFCURVE",
"151 603 OFFCURVE",
"151 582 CURVE SMOOTH",
"151 550 OFFCURVE",
"132 511 OFFCURVE",
"83 511 CURVE SMOOTH",
"49 511 OFFCURVE",
"28 530 OFFCURVE",
"28 557 CURVE SMOOTH",
"28 583 OFFCURVE",
"48 608 OFFCURVE",
"91 608 CURVE SMOOTH",
"158 608 OFFCURVE",
"203 549 OFFCURVE",
"203 492 CURVE SMOOTH",
"203 431 OFFCURVE",
"153 389 OFFCURVE",
"32 375 CURVE",
"61 314 LINE"
);
}
);
width = 245;
}
);
unicode = 0CBF;
userData = {
public.markColor = "0.97,1,0,1";
};
},
{
color = 4;
glyphname = knmII;
lastChange = "2016-01-24 20:04:03 +0000";
layers = (
{
layerId = "034236B8-3FA8-43DA-9EDA-EFF269A687EC";
name = Regular;
paths = (
{
closed = 1;
nodes = (
"183 334 OFFCURVE",
"235 400 OFFCURVE",
"235 487 CURVE SMOOTH",
"235 581 OFFCURVE",
"174 674 OFFCURVE",
"90 674 CURVE SMOOTH",
"31 674 OFFCURVE",
"-5 629 OFFCURVE",
"-5 566 CURVE SMOOTH",
"-5 500 OFFCURVE",
"34 451 OFFCURVE",
"89 451 CURVE SMOOTH",
"149 451 OFFCURVE",
"179 505 OFFCURVE",
"179 565 CURVE SMOOTH",
"179 594 OFFCURVE",
"172 612 OFFCURVE",
"161 627 CURVE",
"133 631 LINE",
"143 620 OFFCURVE",
"151 603 OFFCURVE",
"151 582 CURVE SMOOTH",
"151 550 OFFCURVE",
"132 511 OFFCURVE",
"84 511 CURVE SMOOTH",
"49 511 OFFCURVE",
"28 530 OFFCURVE",
"28 557 CURVE SMOOTH",
"28 583 OFFCURVE",
"48 608 OFFCURVE",
"91 608 CURVE SMOOTH",
"158 608 OFFCURVE",
"203 549 OFFCURVE",
"203 492 CURVE SMOOTH",
"203 431 OFFCURVE",
"153 389 OFFCURVE",
"32 375 CURVE",
"61 314 LINE"
);
},
{
closed = 1;
nodes = (
"451 -14 LINE",
"451 0 LINE",
"352 79 OFFCURVE",
"306 170 OFFCURVE",
"306 259 CURVE SMOOTH",
"306 346 OFFCURVE",
"350 408 OFFCURVE",
"418 408 CURVE SMOOTH",
"458 408 OFFCURVE",
"487 386 OFFCURVE",
"487 350 CURVE SMOOTH",
"487 317 OFFCURVE",
"462 287 OFFCURVE",
"424 287 CURVE SMOOTH",
"388 287 OFFCURVE",
"370 314 OFFCURVE",
"370 350 CURVE SMOOTH",
"370 381 OFFCURVE",
"383 408 OFFCURVE",
"410 438 CURVE",
"366 420 LINE",
"356 392 OFFCURVE",
"346 361 OFFCURVE",
"346 325 CURVE SMOOTH",
"346 267 OFFCURVE",
"373 229 OFFCURVE",
"415 229 CURVE SMOOTH",
"458 229 OFFCURVE",
"515 269 OFFCURVE",
"515 352 CURVE SMOOTH",
"515 421 OFFCURVE",
"478 476 OFFCURVE",
"414 476 CURVE SMOOTH",
"323 476 OFFCURVE",
"270 363 OFFCURVE",
"270 248 CURVE SMOOTH",
"270 151 OFFCURVE",
"309 60 OFFCURVE",
"378 -14 CURVE"
);
}
);
width = 525;
}
);
leftMetricsKey = "=knmI";
unicode = 0CC0;
userData = {
public.markColor = "0.97,1,0,1";
};
},
{
color = 4;
glyphname = knmU;
lastChange = "2016-01-21 22:30:47 +0000";
layers = (
{
layerId = "034236B8-3FA8-43DA-9EDA-EFF269A687EC";
name = Regular;
paths = (
{
closed = 1;
nodes = (
"207 -14 OFFCURVE",
"287 95 OFFCURVE",
"287 242 CURVE SMOOTH",
"287 415 OFFCURVE",
"191 513 OFFCURVE",
"121 513 CURVE SMOOTH",
"89 513 OFFCURVE",
"72 493 OFFCURVE",
"72 470 CURVE SMOOTH",
"72 451 OFFCURVE",
"84 435 OFFCURVE",
"100 430 CURVE SMOOTH",
"111 427 OFFCURVE",
"122 426 OFFCURVE",
"133 426 CURVE SMOOTH",
"144 425 OFFCURVE",
"154 425 OFFCURVE",
"165 421 CURVE SMOOTH",
"205 407 OFFCURVE",
"252 344 OFFCURVE",
"252 255 CURVE SMOOTH",
"252 137 OFFCURVE",
"182 71 OFFCURVE",
"91 71 CURVE SMOOTH",
"25 71 OFFCURVE",
"-28 105 OFFCURVE",
"-65 207 CURVE",
"-72 129 LINE",
"-42 38 OFFCURVE",
"23 -14 OFFCURVE",
"98 -14 CURVE SMOOTH"
);
}
);
width = 347;
}
);
rightMetricsKey = "=knE+10";
unicode = 0CC1;
userData = {
public.markColor = "0.97,1,0,1";
};
},
{
color = 4;
glyphname = knmUU;
lastChange = "2016-01-24 20:04:01 +0000";
layers = (
{
layerId = "034236B8-3FA8-43DA-9EDA-EFF269A687EC";
name = Regular;
paths = (
{
closed = 1;
nodes = (
"193 -14 OFFCURVE",
"226 73 OFFCURVE",
"226 231 CURVE SMOOTH",
"226 371 OFFCURVE",
"302 441 OFFCURVE",
"409 441 CURVE SMOOTH",
"524 441 OFFCURVE",
"623 363 OFFCURVE",
"623 235 CURVE SMOOTH",
"623 129 OFFCURVE",
"561 68 OFFCURVE",
"471 68 CURVE SMOOTH",
"397 68 OFFCURVE",
"353 113 OFFCURVE",
"353 172 CURVE SMOOTH",
"353 212 OFFCURVE",
"374 237 OFFCURVE",
"386 237 CURVE SMOOTH",
"391 237 OFFCURVE",
"393 233 OFFCURVE",
"393 227 CURVE SMOOTH",
"393 191 OFFCURVE",
"414 165 OFFCURVE",
"447 165 CURVE SMOOTH",
"482 165 OFFCURVE",
"508 194 OFFCURVE",
"508 229 CURVE SMOOTH",
"508 262 OFFCURVE",
"483 299 OFFCURVE",
"428 299 CURVE SMOOTH",
"356 299 OFFCURVE",
"316 235 OFFCURVE",
"315 157 CURVE SMOOTH",
"316 58 OFFCURVE",
"376 -14 OFFCURVE",
"472 -14 CURVE SMOOTH",
"584 -14 OFFCURVE",
"658 92 OFFCURVE",
"658 238 CURVE SMOOTH",
"658 402 OFFCURVE",
"548 519 OFFCURVE",
"400 519 CURVE SMOOTH",
"278 519 OFFCURVE",
"189 423 OFFCURVE",
"189 248 CURVE SMOOTH",
"189 116 OFFCURVE",
"153 71 OFFCURVE",
"85 71 CURVE SMOOTH",
"-1 71 OFFCURVE",
"-49 145 OFFCURVE",
"-80 222 CURVE",
"-80 145 LINE",
"-55 65 OFFCURVE",
"16 -14 OFFCURVE",
"103 -14 CURVE SMOOTH"
);
}
);
width = 718;
}
);
rightMetricsKey = "=knUU";
unicode = 0CC2;
userData = {
public.markColor = "0.97,1,0,1";
};
},
{
color = 4;
glyphname = knmvR;
lastChange = "2016-01-17 18:56:06 +0000";
layers = (
{
background = {
paths = (
{
closed = 0;
nodes = (
"-202 -260 LINE",
"-202 -349 OFFCURVE",
"-136 -412 OFFCURVE",
"-49 -412 CURVE",
"57 -412 OFFCURVE",
"118 -314 OFFCURVE",
"118 -192 CURVE",
"118 -109 OFFCURVE",
"83 -24 OFFCURVE",
"50 23 CURVE SMOOTH",
"36 43 OFFCURVE",
"25 54 OFFCURVE",
"10 54 CURVE SMOOTH",
"-3 54 OFFCURVE",
"-13 44 OFFCURVE",
"-13 29 CURVE SMOOTH",
"-13 13 OFFCURVE",
"-4 -1 OFFCURVE",
"14 -14 CURVE SMOOTH",
"54 -44 OFFCURVE",
"93 -114 OFFCURVE",
"93 -196 CURVE",
"93 -280 OFFCURVE",
"51 -359 OFFCURVE",
"-55 -359 CURVE",
"-130 -359 OFFCURVE",
"-177 -311 OFFCURVE",
"-177 -245 CURVE"
);
},
{
closed = 0;
nodes = (
"-175 -280 LINE",
"-175 -203 OFFCURVE",
"-151 -147 OFFCURVE",
"-92 -147 CURVE SMOOTH",
"-64 -147 OFFCURVE",
"-49 -156 OFFCURVE",
"-49 -181 CURVE SMOOTH",
"-49 -203 OFFCURVE",
"-60 -217 OFFCURVE",
"-93 -217 CURVE SMOOTH",
"-125 -217 OFFCURVE",
"-140 -203 OFFCURVE",
"-140 -177 CURVE SMOOTH",
"-140 -169 OFFCURVE",
"-138 -156 OFFCURVE",
"-135 -150 CURVE",
"-128 -135 OFFCURVE",
"-132 -118 OFFCURVE",
"-141 -121 CURVE",
"-156 -163 LINE",
"-157 -178 OFFCURVE",
"-158 -187 OFFCURVE",
"-158 -193 CURVE SMOOTH",
"-158 -239 OFFCURVE",
"-130 -261 OFFCURVE",
"-88 -261 CURVE SMOOTH",
"-47 -261 OFFCURVE",
"-21 -235 OFFCURVE",
"-21 -183 CURVE SMOOTH",
"-21 -137 OFFCURVE",
"-37 -106 OFFCURVE",
"-95 -106 CURVE SMOOTH",
"-160 -106 OFFCURVE",
"-205 -187 OFFCURVE",
"-205 -287 CURVE SMOOTH"
);
}
);
};
layerId = "034236B8-3FA8-43DA-9EDA-EFF269A687EC";
name = Regular;
paths = (
{
closed = 1;
nodes = (
"-201 -346 OFFCURVE",
"-146 -412 OFFCURVE",
"-52 -412 CURVE SMOOTH",
"57 -412 OFFCURVE",
"118 -314 OFFCURVE",
"118 -194 CURVE SMOOTH",
"118 -109 OFFCURVE",
"83 -24 OFFCURVE",
"50 23 CURVE SMOOTH",
"36 43 OFFCURVE",
"25 54 OFFCURVE",
"10 54 CURVE SMOOTH",
"-3 54 OFFCURVE",
"-13 44 OFFCURVE",
"-13 29 CURVE SMOOTH",
"-13 13 OFFCURVE",
"-4 -1 OFFCURVE",
"14 -14 CURVE SMOOTH",
"54 -44 OFFCURVE",
"93 -114 OFFCURVE",
"93 -196 CURVE SMOOTH",
"93 -280 OFFCURVE",
"51 -359 OFFCURVE",
"-55 -359 CURVE SMOOTH",
"-130 -359 OFFCURVE",
"-175 -321 OFFCURVE",
"-175 -251 CURVE SMOOTH",
"-175 -203 OFFCURVE",
"-151 -147 OFFCURVE",
"-92 -147 CURVE SMOOTH",
"-64 -147 OFFCURVE",
"-49 -156 OFFCURVE",
"-49 -181 CURVE SMOOTH",
"-49 -203 OFFCURVE",
"-60 -217 OFFCURVE",
"-93 -217 CURVE SMOOTH",
"-125 -217 OFFCURVE",
"-140 -203 OFFCURVE",
"-140 -177 CURVE SMOOTH",
"-140 -169 OFFCURVE",
"-138 -156 OFFCURVE",
"-135 -150 CURVE",
"-145 -142 LINE",
"-156 -163 LINE",
"-157 -178 OFFCURVE",
"-158 -187 OFFCURVE",
"-158 -193 CURVE SMOOTH",
"-158 -239 OFFCURVE",
"-130 -261 OFFCURVE",
"-88 -261 CURVE SMOOTH",
"-47 -261 OFFCURVE",
"-21 -235 OFFCURVE",
"-21 -183 CURVE SMOOTH",
"-21 -137 OFFCURVE",
"-37 -106 OFFCURVE",
"-85 -106 CURVE SMOOTH",
"-160 -106 OFFCURVE",
"-201 -187 OFFCURVE",
"-201 -260 CURVE SMOOTH"
);
}
);
width = 47;
},
{
associatedMasterId = "034236B8-3FA8-43DA-9EDA-EFF269A687EC";
layerId = "6600ABAE-3FBD-4DBA-8296-B084349EF80C";
name = "Regular Jan 16 16, 18:10";
paths = (
{
closed = 1;
nodes = (
"118 -109 OFFCURVE",
"83 -24 OFFCURVE",
"50 23 CURVE SMOOTH",
"36 43 OFFCURVE",
"25 54 OFFCURVE",
"10 54 CURVE SMOOTH",
"-3 54 OFFCURVE",
"-13 44 OFFCURVE",
"-13 29 CURVE SMOOTH",
"-13 13 OFFCURVE",
"-4 -1 OFFCURVE",
"14 -14 CURVE SMOOTH",
"54 -44 OFFCURVE",
"93 -114 OFFCURVE",
"93 -196 CURVE",
"93 -280 OFFCURVE",
"51 -359 OFFCURVE",
"-55 -359 CURVE",
"-130 -359 OFFCURVE",
"-177 -311 OFFCURVE",
"-177 -245 CURVE SMOOTH",
"-177 -195 OFFCURVE",
"-142 -170 OFFCURVE",
"-111 -170 CURVE SMOOTH",
"-89 -170 OFFCURVE",
"-76 -183 OFFCURVE",
"-76 -200 CURVE SMOOTH",
"-76 -216 OFFCURVE",
"-92 -229 OFFCURVE",
"-115 -229 CURVE SMOOTH",
"-139 -229 OFFCURVE",
"-160 -212 OFFCURVE",
"-160 -191 CURVE SMOOTH",
"-160 -176 OFFCURVE",
"-159 -169 OFFCURVE",
"-156 -156 CURVE",
"-169 -167 LINE",
"-174 -173 OFFCURVE",
"-176 -183 OFFCURVE",
"-176 -202 CURVE SMOOTH",
"-176 -239 OFFCURVE",
"-148 -267 OFFCURVE",
"-112 -267 CURVE SMOOTH",
"-77 -267 OFFCURVE",
"-48 -240 OFFCURVE",
"-48 -199 CURVE SMOOTH",
"-48 -161 OFFCURVE",
"-74 -132 OFFCURVE",
"-110 -132 CURVE SMOOTH",
"-159 -132 OFFCURVE",
"-202 -185 OFFCURVE",
"-202 -260 CURVE SMOOTH",
"-202 -349 OFFCURVE",
"-136 -412 OFFCURVE",
"-49 -412 CURVE",
"57 -412 OFFCURVE",
"118 -314 OFFCURVE",
"118 -192 CURVE"
);
},
{
closed = 0;
nodes = (
"-180 -280 LINE SMOOTH",
"-180 -203 OFFCURVE",
"-156 -147 OFFCURVE",
"-97 -147 CURVE SMOOTH",
"-69 -147 OFFCURVE",
"-54 -156 OFFCURVE",
"-54 -181 CURVE SMOOTH",
"-54 -203 OFFCURVE",
"-65 -217 OFFCURVE",
"-98 -217 CURVE SMOOTH",
"-130 -217 OFFCURVE",
"-145 -203 OFFCURVE",
"-145 -177 CURVE SMOOTH",
"-145 -169 OFFCURVE",
"-143 -156 OFFCURVE",
"-140 -150 CURVE",
"-133 -135 OFFCURVE",
"-137 -118 OFFCURVE",
"-146 -121 CURVE",
"-161 -163 LINE",
"-162 -178 OFFCURVE",
"-163 -187 OFFCURVE",
"-163 -193 CURVE SMOOTH",
"-163 -239 OFFCURVE",
"-135 -261 OFFCURVE",
"-93 -261 CURVE SMOOTH",
"-52 -261 OFFCURVE",
"-26 -235 OFFCURVE",
"-26 -183 CURVE SMOOTH",
"-26 -137 OFFCURVE",
"-42 -106 OFFCURVE",
"-100 -106 CURVE SMOOTH",
"-165 -106 OFFCURVE",
"-210 -187 OFFCURVE",
"-210 -287 CURVE SMOOTH"
);
}
);
width = 47;
}
);
unicode = 0CC3;
userData = {
com.typemytype.robofont.layerData = {
bkgd = {
anchors = (
);
components = (
);
contours = (
);
lib = {
};
name = knmvR;
unicodes = (
);
width = 107;
};
};
public.markColor = "0.85,0.26,0.06,1";
};
},
{
color = 4;
glyphname = knmvRR;
lastChange = "2016-01-20 15:48:54 +0000";
layers = (
{
background = {
paths = (
{
closed = 1;
nodes = (
"221 20 LINE SMOOTH",
"294 20 OFFCURVE",
"351 -30 OFFCURVE",
"351 -99 CURVE SMOOTH",
"351 -149 OFFCURVE",
"321 -181 OFFCURVE",
"268 -181 CURVE SMOOTH",
"225 -181 OFFCURVE",
"198 -160 OFFCURVE",
"198 -128 CURVE SMOOTH",
"198 -101 OFFCURVE",
"205 -82 OFFCURVE",
"212 -82 CURVE SMOOTH",
"215 -82 OFFCURVE",
"216 -84 OFFCURVE",
"216 -87 CURVE SMOOTH",
"216 -109 OFFCURVE",
"229 -124 OFFCURVE",
"248 -124 CURVE SMOOTH",
"269 -124 OFFCURVE",
"284 -107 OFFCURVE",
"284 -87 CURVE SMOOTH",
"284 -67 OFFCURVE",
"269 -45 OFFCURVE",
"235 -45 CURVE SMOOTH",
"190 -45 OFFCURVE",
"168 -84 OFFCURVE",
"168 -131 CURVE SMOOTH",
"168 -190 OFFCURVE",
"207 -231 OFFCURVE",
"263 -231 CURVE SMOOTH",
"323 -231 OFFCURVE",
"376 -183 OFFCURVE",
"376 -95 CURVE SMOOTH",
"376 19 OFFCURVE",
"286 60 OFFCURVE",
"204 60 CURVE SMOOTH",
"1 60 LINE",
"-4 46 LINE",
"40 14 OFFCURVE",
"93 -94 OFFCURVE",
"93 -196 CURVE SMOOTH",
"93 -280 OFFCURVE",
"51 -359 OFFCURVE",
"-55 -359 CURVE SMOOTH",
"-130 -359 OFFCURVE",
"-175 -321 OFFCURVE",
"-175 -251 CURVE SMOOTH",
"-175 -203 OFFCURVE",
"-151 -147 OFFCURVE",
"-92 -147 CURVE SMOOTH",
"-64 -147 OFFCURVE",
"-49 -156 OFFCURVE",
"-49 -181 CURVE SMOOTH",
"-49 -203 OFFCURVE",
"-60 -217 OFFCURVE",
"-93 -217 CURVE SMOOTH",
"-125 -217 OFFCURVE",
"-140 -203 OFFCURVE",
"-140 -177 CURVE SMOOTH",
"-140 -169 OFFCURVE",
"-138 -156 OFFCURVE",
"-135 -150 CURVE",
"-145 -142 LINE",
"-156 -163 LINE",
"-157 -178 OFFCURVE",
"-158 -187 OFFCURVE",
"-158 -193 CURVE SMOOTH",
"-158 -239 OFFCURVE",
"-130 -261 OFFCURVE",
"-88 -261 CURVE SMOOTH",
"-47 -261 OFFCURVE",
"-21 -235 OFFCURVE",
"-21 -183 CURVE SMOOTH",
"-21 -137 OFFCURVE",
"-37 -106 OFFCURVE",
"-85 -106 CURVE SMOOTH",
"-160 -106 OFFCURVE",
"-201 -187 OFFCURVE",
"-201 -260 CURVE SMOOTH",
"-201 -346 OFFCURVE",
"-146 -412 OFFCURVE",
"-52 -412 CURVE SMOOTH",
"57 -412 OFFCURVE",
"118 -314 OFFCURVE",
"118 -194 CURVE SMOOTH",
"118 -89 OFFCURVE",
"70 -3 OFFCURVE",
"52 20 CURVE"
);
}
);
};
layerId = "034236B8-3FA8-43DA-9EDA-EFF269A687EC";
name = Regular;
paths = (
{
closed = 1;
nodes = (
"221 20 LINE SMOOTH",
"294 20 OFFCURVE",
"351 -30 OFFCURVE",
"351 -99 CURVE SMOOTH",
"351 -149 OFFCURVE",
"321 -181 OFFCURVE",
"268 -181 CURVE SMOOTH",
"225 -181 OFFCURVE",
"198 -160 OFFCURVE",
"198 -128 CURVE SMOOTH",
"198 -101 OFFCURVE",
"205 -82 OFFCURVE",
"212 -82 CURVE SMOOTH",
"215 -82 OFFCURVE",
"216 -84 OFFCURVE",
"216 -87 CURVE SMOOTH",
"216 -109 OFFCURVE",
"229 -124 OFFCURVE",
"248 -124 CURVE SMOOTH",
"269 -124 OFFCURVE",
"284 -107 OFFCURVE",
"284 -87 CURVE SMOOTH",
"284 -67 OFFCURVE",
"269 -45 OFFCURVE",
"235 -45 CURVE SMOOTH",
"190 -45 OFFCURVE",
"168 -84 OFFCURVE",
"168 -131 CURVE SMOOTH",
"168 -190 OFFCURVE",
"207 -231 OFFCURVE",
"263 -231 CURVE SMOOTH",
"323 -231 OFFCURVE",
"376 -183 OFFCURVE",
"376 -95 CURVE SMOOTH",
"376 19 OFFCURVE",
"286 60 OFFCURVE",
"204 60 CURVE SMOOTH",
"1 60 LINE",
"-4 46 LINE",
"40 14 OFFCURVE",
"93 -94 OFFCURVE",
"93 -192 CURVE SMOOTH",
"93 -280 OFFCURVE",
"51 -359 OFFCURVE",
"-55 -359 CURVE SMOOTH",
"-130 -359 OFFCURVE",
"-175 -321 OFFCURVE",
"-175 -253 CURVE SMOOTH",
"-175 -203 OFFCURVE",
"-151 -147 OFFCURVE",
"-93 -147 CURVE SMOOTH",
"-64 -147 OFFCURVE",
"-49 -156 OFFCURVE",
"-49 -181 CURVE SMOOTH",
"-49 -203 OFFCURVE",
"-60 -217 OFFCURVE",
"-93 -217 CURVE SMOOTH",
"-125 -217 OFFCURVE",
"-140 -203 OFFCURVE",
"-140 -177 CURVE SMOOTH",
"-140 -169 OFFCURVE",
"-138 -156 OFFCURVE",
"-135 -150 CURVE",
"-155 -161 LINE",
"-157 -173 OFFCURVE",
"-158 -184 OFFCURVE",
"-158 -193 CURVE SMOOTH",
"-158 -239 OFFCURVE",
"-130 -261 OFFCURVE",
"-90 -261 CURVE SMOOTH",
"-47 -261 OFFCURVE",
"-21 -235 OFFCURVE",
"-21 -180 CURVE SMOOTH",
"-21 -137 OFFCURVE",
"-37 -106 OFFCURVE",
"-84 -106 CURVE SMOOTH",
"-160 -106 OFFCURVE",
"-201 -187 OFFCURVE",
"-201 -261 CURVE SMOOTH",
"-201 -346 OFFCURVE",
"-146 -412 OFFCURVE",
"-52 -412 CURVE SMOOTH",
"57 -412 OFFCURVE",
"118 -314 OFFCURVE",
"118 -193 CURVE SMOOTH",
"118 -99 OFFCURVE",
"82 -20 OFFCURVE",
"52 20 CURVE"
);
}
);
width = 331;
}
);
unicode = 0CC4;
userData = {
public.markColor = "0.85,0.26,0.06,1";
};
},
{
color = 4;
glyphname = knmvL;
lastChange = "2016-01-20 15:49:48 +0000";
layers = (
{
anchors = (
{
name = _bottom;
position = "{0, 0}";
}
);
layerId = "034236B8-3FA8-43DA-9EDA-EFF269A687EC";
name = Regular;
paths = (
{
closed = 1;
nodes = (
"247 -215 OFFCURVE",
"240 -162 OFFCURVE",
"200 -106 CURVE SMOOTH",
"186 -86 OFFCURVE",
"175 -75 OFFCURVE",
"160 -75 CURVE SMOOTH",
"146 -75 OFFCURVE",
"137 -85 OFFCURVE",
"137 -100 CURVE SMOOTH",
"137 -116 OFFCURVE",
"146 -130 OFFCURVE",
"164 -143 CURVE SMOOTH",
"200 -169 OFFCURVE",
"222 -213 OFFCURVE",
"222 -253 CURVE SMOOTH",
"222 -309 OFFCURVE",
"180 -358 OFFCURVE",
"75 -358 CURVE SMOOTH",
"20 -358 OFFCURVE",
"-21 -346 OFFCURVE",
"-21 -307 CURVE SMOOTH",
"-21 -284 OFFCURVE",
"-4 -269 OFFCURVE",
"16 -254 CURVE SMOOTH",
"39 -234 OFFCURVE",
"64 -214 OFFCURVE",
"64 -166 CURVE SMOOTH",
"64 -117 OFFCURVE",
"37 -75 OFFCURVE",
"-16 -75 CURVE SMOOTH",
"-66 -75 OFFCURVE",
"-106 -112 OFFCURVE",
"-122 -165 CURVE",
"-125 -165 LINE",
"-141 -112 OFFCURVE",
"-181 -75 OFFCURVE",
"-232 -75 CURVE SMOOTH",
"-284 -75 OFFCURVE",
"-311 -114 OFFCURVE",
"-311 -164 CURVE SMOOTH",
"-311 -182 OFFCURVE",
"-308 -201 OFFCURVE",
"-294 -219 CURVE",
"-272 -203 LINE",
"-277 -193 OFFCURVE",
"-280 -183 OFFCURVE",
"-280 -172 CURVE SMOOTH",
"-280 -143 OFFCURVE",
"-261 -123 OFFCURVE",
"-229 -123 CURVE SMOOTH",
"-176 -123 OFFCURVE",
"-139 -177 OFFCURVE",
"-130 -224 CURVE",
"-118 -224 LINE",
"-109 -177 OFFCURVE",
"-72 -123 OFFCURVE",
"-21 -123 CURVE SMOOTH",
"15 -123 OFFCURVE",
"33 -150 OFFCURVE",
"33 -177 CURVE SMOOTH",
"33 -204 OFFCURVE",
"16 -219 OFFCURVE",
"-3 -234 CURVE SMOOTH",
"-25 -253 OFFCURVE",
"-49 -274 OFFCURVE",
"-49 -319 CURVE SMOOTH",
"-49 -368 OFFCURVE",
"-21 -411 OFFCURVE",
"69 -411 CURVE SMOOTH",
"186 -411 OFFCURVE",
"247 -343 OFFCURVE",
"247 -247 CURVE SMOOTH"
);
}
);
width = 0;
}
);
unicode = 0CE2;
userData = {
public.markColor = "0.97,1,0,1";
};
},
{
color = 4;
glyphname = knmvLL;
lastChange = "2016-01-20 15:50:28 +0000";
layers = (
{
anchors = (
{
name = _bottom;
position = "{51, 0}";
}
);
layerId = "034236B8-3FA8-43DA-9EDA-EFF269A687EC";
name = Regular;
paths = (
{
closed = 1;
nodes = (
"474 -382 OFFCURVE",
"517 -320 OFFCURVE",
"517 -232 CURVE SMOOTH",
"517 -146 OFFCURVE",
"477 -76 OFFCURVE",
"337 -76 CURVE SMOOTH",
"153 -76 LINE",
"195 -120 LINE",
"342 -120 LINE SMOOTH",
"455 -120 OFFCURVE",
"497 -172 OFFCURVE",
"497 -236 CURVE SMOOTH",
"497 -297 OFFCURVE",
"460 -333 OFFCURVE",
"408 -333 CURVE SMOOTH",
"365 -333 OFFCURVE",
"340 -308 OFFCURVE",
"339 -274 CURVE SMOOTH",
"339 -250 OFFCURVE",
"351 -235 OFFCURVE",
"358 -235 CURVE SMOOTH",
"361 -235 OFFCURVE",
"362 -237 OFFCURVE",
"362 -241 CURVE SMOOTH",
"362 -262 OFFCURVE",
"374 -277 OFFCURVE",
"394 -277 CURVE SMOOTH",
"414 -277 OFFCURVE",
"429 -260 OFFCURVE",
"429 -239 CURVE SMOOTH",
"429 -219 OFFCURVE",
"415 -198 OFFCURVE",
"383 -198 CURVE SMOOTH",
"340 -198 OFFCURVE",
"317 -236 OFFCURVE",
"316 -282 CURVE SMOOTH",
"317 -340 OFFCURVE",
"352 -382 OFFCURVE",
"408 -382 CURVE SMOOTH"
);
},
{
closed = 1;
nodes = (
"64 -118 OFFCURVE",
"37 -76 OFFCURVE",
"-16 -76 CURVE SMOOTH",
"-66 -76 OFFCURVE",
"-106 -113 OFFCURVE",
"-122 -166 CURVE",
"-125 -166 LINE",
"-141 -113 OFFCURVE",
"-181 -76 OFFCURVE",
"-232 -76 CURVE SMOOTH",
"-284 -76 OFFCURVE",
"-311 -115 OFFCURVE",
"-311 -165 CURVE SMOOTH",
"-311 -183 OFFCURVE",
"-308 -202 OFFCURVE",
"-294 -220 CURVE",
"-272 -204 LINE",
"-277 -194 OFFCURVE",
"-280 -184 OFFCURVE",
"-280 -173 CURVE SMOOTH",
"-280 -144 OFFCURVE",
"-261 -124 OFFCURVE",
"-229 -124 CURVE SMOOTH",
"-176 -124 OFFCURVE",
"-139 -178 OFFCURVE",
"-130 -225 CURVE",
"-118 -225 LINE",
"-109 -178 OFFCURVE",
"-72 -124 OFFCURVE",
"-21 -124 CURVE SMOOTH",
"15 -124 OFFCURVE",
"33 -151 OFFCURVE",
"33 -178 CURVE SMOOTH",
"33 -205 OFFCURVE",
"16 -220 OFFCURVE",
"-3 -235 CURVE SMOOTH",
"-25 -254 OFFCURVE",
"-49 -275 OFFCURVE",
"-49 -321 CURVE SMOOTH",
"-49 -369 OFFCURVE",
"-21 -412 OFFCURVE",
"67 -412 CURVE SMOOTH",
"186 -412 OFFCURVE",
"247 -334 OFFCURVE",
"247 -241 CURVE SMOOTH",
"247 -164 OFFCURVE",
"207 -109 OFFCURVE",
"168 -83 CURVE",
"153 -76 LINE",
"143 -98 LINE",
"177 -113 OFFCURVE",
"222 -164 OFFCURVE",
"222 -233 CURVE SMOOTH",
"222 -300 OFFCURVE",
"180 -359 OFFCURVE",
"67 -359 CURVE SMOOTH",
"20 -359 OFFCURVE",
"-21 -347 OFFCURVE",
"-21 -308 CURVE SMOOTH",
"-21 -285 OFFCURVE",
"-4 -270 OFFCURVE",
"16 -255 CURVE SMOOTH",
"39 -235 OFFCURVE",
"64 -215 OFFCURVE",
"64 -167 CURVE SMOOTH"
);
}
);
width = 0;
}
);
unicode = 0CE3;
userData = {
public.markColor = "0.97,1,0,1";
};
},
{
color = 4;
glyphname = knmE;
lastChange = "2016-01-25 13:37:51 +0000";
layers = (
{
layerId = "034236B8-3FA8-43DA-9EDA-EFF269A687EC";
name = Regular;
paths = (
{
closed = 1;
nodes = (
"-110 434 OFFCURVE",
"-56 480 OFFCURVE",
"-56 557 CURVE SMOOTH",
"-56 651 OFFCURVE",
"-134 685 OFFCURVE",
"-193 685 CURVE SMOOTH",
"-246 685 OFFCURVE",
"-274 657 OFFCURVE",
"-274 623 CURVE SMOOTH",
"-274 592 OFFCURVE",
"-251 571 OFFCURVE",
"-219 571 CURVE SMOOTH",
"-183 571 OFFCURVE",
"-162 597 OFFCURVE",
"-162 633 CURVE SMOOTH",
"-162 639 OFFCURVE",
"-160 643 OFFCURVE",
"-156 643 CURVE SMOOTH",
"-143 643 OFFCURVE",
"-99 629 OFFCURVE",
"-99 578 CURVE SMOOTH",
"-99 530 OFFCURVE",
"-139 509 OFFCURVE",
"-190 509 CURVE",
"-191 434 LINE"
);
}
);
width = 0;
}
);
unicode = 0CC6;
userData = {
public.markColor = "0.97,1,0,1";
};
},
{
color = 4;
glyphname = knmEE;
lastChange = "2016-01-25 13:37:43 +0000";
layers = (
{
layerId = "034236B8-3FA8-43DA-9EDA-EFF269A687EC";
name = Regular;
paths = (
{
closed = 1;
nodes = (
"216 -14 LINE",
"216 0 LINE",
"117 79 OFFCURVE",
"71 170 OFFCURVE",
"71 259 CURVE SMOOTH",
"71 346 OFFCURVE",
"115 408 OFFCURVE",
"183 408 CURVE SMOOTH",
"223 408 OFFCURVE",
"252 386 OFFCURVE",
"252 350 CURVE SMOOTH",
"252 317 OFFCURVE",
"227 287 OFFCURVE",
"189 287 CURVE SMOOTH",
"153 287 OFFCURVE",
"135 314 OFFCURVE",
"135 350 CURVE SMOOTH",
"135 381 OFFCURVE",
"148 408 OFFCURVE",
"175 438 CURVE",
"131 420 LINE",
"121 392 OFFCURVE",
"111 361 OFFCURVE",
"111 325 CURVE SMOOTH",
"111 267 OFFCURVE",
"138 229 OFFCURVE",
"180 229 CURVE SMOOTH",
"223 229 OFFCURVE",
"280 269 OFFCURVE",
"280 352 CURVE SMOOTH",
"280 421 OFFCURVE",
"243 476 OFFCURVE",
"179 476 CURVE SMOOTH",
"88 476 OFFCURVE",
"35 363 OFFCURVE",
"35 248 CURVE SMOOTH",
"35 151 OFFCURVE",
"74 60 OFFCURVE",
"143 -14 CURVE"
);
},
{
closed = 1;
nodes = (
"-110 434 OFFCURVE",
"-56 480 OFFCURVE",
"-56 557 CURVE SMOOTH",
"-56 651 OFFCURVE",
"-134 685 OFFCURVE",
"-193 685 CURVE SMOOTH",
"-246 685 OFFCURVE",
"-274 657 OFFCURVE",
"-274 623 CURVE SMOOTH",
"-274 592 OFFCURVE",
"-251 571 OFFCURVE",
"-219 571 CURVE SMOOTH",
"-183 571 OFFCURVE",
"-162 597 OFFCURVE",
"-162 633 CURVE SMOOTH",
"-162 639 OFFCURVE",
"-160 643 OFFCURVE",
"-156 643 CURVE SMOOTH",
"-143 643 OFFCURVE",
"-99 629 OFFCURVE",
"-99 578 CURVE SMOOTH",
"-99 530 OFFCURVE",
"-139 509 OFFCURVE",
"-190 509 CURVE",
"-191 434 LINE"
);
}
);
width = 290;
},
{
associatedMasterId = "034236B8-3FA8-43DA-9EDA-EFF269A687EC";
layerId = "50DFE1D4-362C-451B-A968-8ED1EF9CFC24";
name = "Regular Jan 20 16, 15:43";
paths = (
{
closed = 1;
nodes = (
"-106 434 OFFCURVE",
"-52 480 OFFCURVE",
"-52 557 CURVE SMOOTH",
"-52 651 OFFCURVE",
"-130 685 OFFCURVE",
"-189 685 CURVE SMOOTH",
"-242 685 OFFCURVE",
"-270 657 OFFCURVE",
"-270 623 CURVE SMOOTH",
"-270 592 OFFCURVE",
"-247 571 OFFCURVE",
"-215 571 CURVE SMOOTH",
"-179 571 OFFCURVE",
"-158 597 OFFCURVE",
"-158 633 CURVE SMOOTH",
"-158 639 OFFCURVE",
"-156 643 OFFCURVE",
"-152 643 CURVE SMOOTH",
"-139 643 OFFCURVE",
"-95 629 OFFCURVE",
"-95 578 CURVE",
"-95 530 OFFCURVE",
"-135 509 OFFCURVE",
"-186 509 CURVE",
"-187 434 LINE"
);
},
{
closed = 1;
nodes = (
"251 -14 LINE",
"251 0 LINE",
"152 79 OFFCURVE",
"108 170 OFFCURVE",
"108 259 CURVE SMOOTH",
"108 346 OFFCURVE",
"150 408 OFFCURVE",
"218 408 CURVE SMOOTH",
"258 408 OFFCURVE",
"287 386 OFFCURVE",
"287 350 CURVE SMOOTH",
"287 317 OFFCURVE",
"262 287 OFFCURVE",
"224 287 CURVE SMOOTH",
"188 287 OFFCURVE",
"170 314 OFFCURVE",
"170 350 CURVE SMOOTH",
"170 381 OFFCURVE",
"183 408 OFFCURVE",
"210 438 CURVE",
"166 420 LINE",
"156 392 OFFCURVE",
"146 361 OFFCURVE",
"146 325 CURVE SMOOTH",
"146 267 OFFCURVE",
"173 229 OFFCURVE",
"215 229 CURVE SMOOTH",
"258 229 OFFCURVE",
"315 269 OFFCURVE",
"315 352 CURVE SMOOTH",
"315 421 OFFCURVE",
"278 476 OFFCURVE",
"214 476 CURVE SMOOTH",
"123 476 OFFCURVE",
"72 363 OFFCURVE",
"72 248 CURVE SMOOTH",
"72 151 OFFCURVE",
"109 60 OFFCURVE",
"178 -14 CURVE"
);
}
);
width = 340;
}
);
leftMetricsKey = "=knmE";
rightMetricsKey = "=knmII";
unicode = 0CC7;
userData = {
public.markColor = "0.97,1,0,1";
};
},
{
color = 4;
glyphname = knmAI;
lastChange = "2016-01-25 13:37:55 +0000";
layers = (
{
background = {
paths = (
{
closed = 1;
nodes = (
"236 -14 LINE",
"236 0 LINE",
"137 79 OFFCURVE",
"91 170 OFFCURVE",
"91 259 CURVE SMOOTH",
"91 346 OFFCURVE",
"135 408 OFFCURVE",
"203 408 CURVE SMOOTH",
"243 408 OFFCURVE",
"272 386 OFFCURVE",
"272 350 CURVE SMOOTH",
"272 317 OFFCURVE",
"247 287 OFFCURVE",
"209 287 CURVE SMOOTH",
"173 287 OFFCURVE",
"155 314 OFFCURVE",
"155 350 CURVE SMOOTH",
"155 381 OFFCURVE",
"168 408 OFFCURVE",
"195 438 CURVE",
"151 420 LINE",
"141 392 OFFCURVE",
"131 361 OFFCURVE",
"131 325 CURVE SMOOTH",
"131 267 OFFCURVE",
"158 229 OFFCURVE",
"200 229 CURVE SMOOTH",
"243 229 OFFCURVE",
"300 269 OFFCURVE",
"300 352 CURVE SMOOTH",
"300 421 OFFCURVE",
"263 476 OFFCURVE",
"199 476 CURVE SMOOTH",
"108 476 OFFCURVE",
"55 363 OFFCURVE",
"55 248 CURVE SMOOTH",
"55 151 OFFCURVE",
"94 60 OFFCURVE",
"163 -14 CURVE"
);
}
);
};
layerId = "034236B8-3FA8-43DA-9EDA-EFF269A687EC";
name = Regular;
paths = (
{
closed = 1;
nodes = (
"60 -95 OFFCURVE",
"98 -57 OFFCURVE",
"98 -9 CURVE SMOOTH",
"98 38 OFFCURVE",
"62 68 OFFCURVE",
"9 73 CURVE",
"7 52 LINE",
"37 43 OFFCURVE",
"58 23 OFFCURVE",
"58 -11 CURVE SMOOTH",
"58 -43 OFFCURVE",
"38 -70 OFFCURVE",
"-3 -94 CURVE",
"18 -106 LINE"
);
},
{
closed = 1;
nodes = (
"78 -302 OFFCURVE",
"31 -359 OFFCURVE",
"-70 -359 CURVE SMOOTH",
"-150 -359 OFFCURVE",
"-205 -321 OFFCURVE",
"-205 -251 CURVE SMOOTH",
"-205 -203 OFFCURVE",
"-181 -147 OFFCURVE",
"-122 -147 CURVE SMOOTH",
"-94 -147 OFFCURVE",
"-79 -156 OFFCURVE",
"-79 -181 CURVE SMOOTH",
"-79 -203 OFFCURVE",
"-90 -217 OFFCURVE",
"-123 -217 CURVE SMOOTH",
"-155 -217 OFFCURVE",
"-170 -203 OFFCURVE",
"-170 -177 CURVE SMOOTH",
"-170 -169 OFFCURVE",
"-168 -156 OFFCURVE",
"-165 -150 CURVE",
"-186 -163 LINE",
"-187 -178 OFFCURVE",
"-188 -187 OFFCURVE",
"-188 -193 CURVE SMOOTH",
"-188 -239 OFFCURVE",
"-160 -261 OFFCURVE",
"-120 -261 CURVE SMOOTH",
"-77 -261 OFFCURVE",
"-51 -235 OFFCURVE",
"-51 -183 CURVE SMOOTH",
"-51 -137 OFFCURVE",
"-70 -106 OFFCURVE",
"-116 -106 CURVE SMOOTH",
"-190 -106 OFFCURVE",
"-231 -187 OFFCURVE",
"-231 -260 CURVE SMOOTH",
"-231 -346 OFFCURVE",
"-166 -412 OFFCURVE",
"-72 -412 CURVE SMOOTH",
"37 -412 OFFCURVE",
"108 -334 OFFCURVE",
"108 -238 CURVE SMOOTH",
"108 -158 OFFCURVE",
"65 -105 OFFCURVE",
"17 -94 CURVE",
"-3 -94 LINE",
"3 -110 LINE",
"43 -119 OFFCURVE",
"78 -173 OFFCURVE",
"78 -233 CURVE SMOOTH"
);
},
{
closed = 1;
nodes = (
"-110 434 OFFCURVE",
"-56 480 OFFCURVE",
"-56 557 CURVE SMOOTH",
"-56 651 OFFCURVE",
"-134 685 OFFCURVE",
"-193 685 CURVE SMOOTH",
"-246 685 OFFCURVE",
"-274 657 OFFCURVE",
"-274 623 CURVE SMOOTH",
"-274 592 OFFCURVE",
"-251 571 OFFCURVE",
"-219 571 CURVE SMOOTH",
"-183 571 OFFCURVE",
"-162 597 OFFCURVE",
"-162 633 CURVE SMOOTH",
"-162 639 OFFCURVE",
"-160 643 OFFCURVE",
"-156 643 CURVE SMOOTH",
"-143 643 OFFCURVE",
"-99 629 OFFCURVE",
"-99 578 CURVE SMOOTH",
"-99 530 OFFCURVE",
"-139 509 OFFCURVE",
"-190 509 CURVE",
"-191 434 LINE"
);
}
);
width = 98;
}
);
unicode = 0CC8;
userData = {
public.markColor = "0.85,0.26,0.06,1";
};
},
{
color = 4;
glyphname = knmO;
lastChange = "2016-01-25 13:37:59 +0000";
layers = (
{
layerId = "034236B8-3FA8-43DA-9EDA-EFF269A687EC";
name = Regular;
paths = (
{
closed = 1;
nodes = (
"208 -14 OFFCURVE",
"238 103 OFFCURVE",
"238 264 CURVE SMOOTH",
"238 416 OFFCURVE",
"327 437 OFFCURVE",
"385 437 CURVE SMOOTH",
"499 437 OFFCURVE",
"621 357 OFFCURVE",
"621 225 CURVE SMOOTH",
"621 140 OFFCURVE",
"571 71 OFFCURVE",
"479 71 CURVE SMOOTH",
"408 71 OFFCURVE",
"366 112 OFFCURVE",
"366 169 CURVE SMOOTH",
"366 211 OFFCURVE",
"375 237 OFFCURVE",
"387 237 CURVE SMOOTH",
"392 237 OFFCURVE",
"393 232 OFFCURVE",
"393 227 CURVE SMOOTH",
"393 191 OFFCURVE",
"415 165 OFFCURVE",
"448 165 CURVE SMOOTH",
"483 165 OFFCURVE",
"508 194 OFFCURVE",
"508 228 CURVE SMOOTH",
"508 262 OFFCURVE",
"483 299 OFFCURVE",
"426 299 CURVE SMOOTH",
"351 299 OFFCURVE",
"314 233 OFFCURVE",
"314 155 CURVE SMOOTH",
"314 56 OFFCURVE",
"377 -14 OFFCURVE",
"468 -14 CURVE SMOOTH",
"574 -14 OFFCURVE",
"660 82 OFFCURVE",
"660 238 CURVE SMOOTH",
"660 424 OFFCURVE",
"522 519 OFFCURVE",
"407 519 CURVE SMOOTH",
"312 519 OFFCURVE",
"191 456 OFFCURVE",
"191 259 CURVE SMOOTH",
"191 177 OFFCURVE",
"175 71 OFFCURVE",
"80 71 CURVE SMOOTH",
"1 71 OFFCURVE",
"-49 145 OFFCURVE",
"-78 222 CURVE",
"-100 182 LINE",
"-91 84 OFFCURVE",
"-4 -14 OFFCURVE",
"97 -14 CURVE SMOOTH"
);
},
{
closed = 1;
nodes = (
"-110 434 OFFCURVE",
"-56 480 OFFCURVE",
"-56 557 CURVE SMOOTH",
"-56 651 OFFCURVE",
"-134 685 OFFCURVE",
"-193 685 CURVE SMOOTH",
"-246 685 OFFCURVE",
"-274 657 OFFCURVE",
"-274 623 CURVE SMOOTH",
"-274 592 OFFCURVE",
"-251 571 OFFCURVE",
"-219 571 CURVE SMOOTH",
"-183 571 OFFCURVE",
"-162 597 OFFCURVE",
"-162 633 CURVE SMOOTH",
"-162 639 OFFCURVE",
"-160 643 OFFCURVE",
"-156 643 CURVE SMOOTH",
"-143 643 OFFCURVE",
"-99 629 OFFCURVE",
"-99 578 CURVE SMOOTH",
"-99 530 OFFCURVE",
"-139 509 OFFCURVE",
"-190 509 CURVE",
"-191 434 LINE"
);
}
);
width = 730;
}
);
unicode = 0CCA;
userData = {
public.markColor = "0.97,1,0,1";
};
},
{
color = 4;
glyphname = knmOO;
lastChange = "2016-01-25 13:38:08 +0000";
layers = (
{
layerId = "034236B8-3FA8-43DA-9EDA-EFF269A687EC";
name = Regular;
paths = (
{
closed = 1;
nodes = (
"208 -14 OFFCURVE",
"238 103 OFFCURVE",
"238 264 CURVE SMOOTH",
"238 416 OFFCURVE",
"327 437 OFFCURVE",
"385 437 CURVE SMOOTH",
"499 437 OFFCURVE",
"621 357 OFFCURVE",
"621 225 CURVE SMOOTH",
"621 140 OFFCURVE",
"571 71 OFFCURVE",
"479 71 CURVE SMOOTH",
"408 71 OFFCURVE",
"366 112 OFFCURVE",
"366 169 CURVE SMOOTH",
"366 211 OFFCURVE",
"375 237 OFFCURVE",
"387 237 CURVE SMOOTH",
"392 237 OFFCURVE",
"393 232 OFFCURVE",
"393 227 CURVE SMOOTH",
"393 191 OFFCURVE",
"415 165 OFFCURVE",
"448 165 CURVE SMOOTH",
"483 165 OFFCURVE",
"508 194 OFFCURVE",
"508 228 CURVE SMOOTH",
"508 262 OFFCURVE",
"483 299 OFFCURVE",
"426 299 CURVE SMOOTH",
"351 299 OFFCURVE",
"314 233 OFFCURVE",
"314 155 CURVE SMOOTH",
"314 56 OFFCURVE",
"377 -14 OFFCURVE",
"468 -14 CURVE SMOOTH",
"574 -14 OFFCURVE",
"660 82 OFFCURVE",
"660 238 CURVE SMOOTH",
"660 424 OFFCURVE",
"522 519 OFFCURVE",
"407 519 CURVE SMOOTH",
"312 519 OFFCURVE",
"191 456 OFFCURVE",
"191 259 CURVE SMOOTH",
"191 177 OFFCURVE",
"175 71 OFFCURVE",
"80 71 CURVE SMOOTH",
"1 71 OFFCURVE",
"-49 145 OFFCURVE",
"-78 222 CURVE",
"-100 182 LINE",
"-91 84 OFFCURVE",
"-4 -14 OFFCURVE",
"97 -14 CURVE SMOOTH"
);
},
{
closed = 1;
nodes = (
"927 -15 LINE",
"926 14 LINE",
"847 91 OFFCURVE",
"803 170 OFFCURVE",
"803 259 CURVE SMOOTH",
"803 346 OFFCURVE",
"845 408 OFFCURVE",
"913 408 CURVE SMOOTH",
"953 408 OFFCURVE",
"982 386 OFFCURVE",
"982 350 CURVE SMOOTH",
"982 317 OFFCURVE",
"957 287 OFFCURVE",
"919 287 CURVE SMOOTH",
"883 287 OFFCURVE",
"865 314 OFFCURVE",
"865 350 CURVE SMOOTH",
"865 381 OFFCURVE",
"878 408 OFFCURVE",
"905 438 CURVE",
"861 420 LINE",
"851 392 OFFCURVE",
"841 361 OFFCURVE",
"841 325 CURVE SMOOTH",
"841 267 OFFCURVE",
"868 229 OFFCURVE",
"910 229 CURVE SMOOTH",
"953 229 OFFCURVE",
"1010 269 OFFCURVE",
"1010 352 CURVE SMOOTH",
"1010 421 OFFCURVE",
"973 476 OFFCURVE",
"909 476 CURVE SMOOTH",
"818 476 OFFCURVE",
"767 363 OFFCURVE",
"767 248 CURVE SMOOTH",
"767 151 OFFCURVE",
"805 59 OFFCURVE",
"874 -15 CURVE"
);
},
{
closed = 1;
nodes = (
"-110 434 OFFCURVE",
"-56 480 OFFCURVE",
"-56 557 CURVE SMOOTH",
"-56 651 OFFCURVE",
"-134 685 OFFCURVE",
"-193 685 CURVE SMOOTH",
"-246 685 OFFCURVE",
"-274 657 OFFCURVE",
"-274 623 CURVE SMOOTH",
"-274 592 OFFCURVE",
"-251 571 OFFCURVE",
"-219 571 CURVE SMOOTH",
"-183 571 OFFCURVE",
"-162 597 OFFCURVE",
"-162 633 CURVE SMOOTH",
"-162 639 OFFCURVE",
"-160 643 OFFCURVE",
"-156 643 CURVE SMOOTH",
"-143 643 OFFCURVE",
"-99 629 OFFCURVE",
"-99 578 CURVE SMOOTH",
"-99 530 OFFCURVE",
"-139 509 OFFCURVE",
"-190 509 CURVE",
"-191 434 LINE"
);
}
);
width = 1020;
}
);
unicode = 0CCB;
userData = {
public.markColor = "0.97,1,0,1";
};
},
{
color = 4;
glyphname = knmAU;
lastChange = "2016-01-25 13:38:12 +0000";
layers = (
{
layerId = "034236B8-3FA8-43DA-9EDA-EFF269A687EC";
name = Regular;
paths = (
{
closed = 1;
nodes = (
"276 186 OFFCURVE",
"350 292 OFFCURVE",
"350 438 CURVE SMOOTH",
"350 601 OFFCURVE",
"261 709 OFFCURVE",
"41 709 CURVE SMOOTH",
"-304 709 LINE",
"-304 634 LINE",
"62 634 LINE SMOOTH",
"217 634 OFFCURVE",
"315 555 OFFCURVE",
"315 429 CURVE SMOOTH",
"315 329 OFFCURVE",
"253 268 OFFCURVE",
"164 268 CURVE SMOOTH",
"89 268 OFFCURVE",
"45 313 OFFCURVE",
"45 372 CURVE SMOOTH",
"45 412 OFFCURVE",
"66 437 OFFCURVE",
"78 437 CURVE SMOOTH",
"82 437 OFFCURVE",
"84 434 OFFCURVE",
"84 430 CURVE SMOOTH",
"84 429 OFFCURVE",
"84 428 OFFCURVE",
"84 427 CURVE",
"85 391 OFFCURVE",
"106 365 OFFCURVE",
"139 365 CURVE SMOOTH",
"174 365 OFFCURVE",
"200 394 OFFCURVE",
"200 429 CURVE SMOOTH",
"200 463 OFFCURVE",
"175 499 OFFCURVE",
"120 499 CURVE SMOOTH",
"48 499 OFFCURVE",
"8 435 OFFCURVE",
"7 357 CURVE SMOOTH",
"8 258 OFFCURVE",
"68 186 OFFCURVE",
"163 186 CURVE SMOOTH"
);
},
{
closed = 1;
nodes = (
"-189 434 LINE SMOOTH",
"-108 434 OFFCURVE",
"-54 480 OFFCURVE",
"-54 552 CURVE SMOOTH",
"-54 607 OFFCURVE",
"-85 648 OFFCURVE",
"-128 664 CURVE",
"-143 644 LINE",
"-119 635 OFFCURVE",
"-97 610 OFFCURVE",
"-97 576 CURVE SMOOTH",
"-97 536 OFFCURVE",
"-128 509 OFFCURVE",
"-189 509 CURVE SMOOTH",
"-210 509 LINE",
"-210 434 LINE"
);
}
);
width = 365;
}
);
unicode = 0CCC;
userData = {
public.markColor = "0.97,1,0,1";
};
},
{
color = 4;
glyphname = knLengthmark;
lastChange = "2016-01-24 16:54:38 +0000";
layers = (
{
layerId = "034236B8-3FA8-43DA-9EDA-EFF269A687EC";
name = Regular;
paths = (
{
closed = 1;
nodes = (
"236 -14 LINE",
"236 0 LINE",
"137 79 OFFCURVE",
"91 170 OFFCURVE",
"91 259 CURVE SMOOTH",
"91 346 OFFCURVE",
"135 408 OFFCURVE",
"203 408 CURVE SMOOTH",
"243 408 OFFCURVE",
"272 386 OFFCURVE",
"272 350 CURVE SMOOTH",
"272 317 OFFCURVE",
"247 287 OFFCURVE",
"209 287 CURVE SMOOTH",
"173 287 OFFCURVE",
"155 314 OFFCURVE",
"155 350 CURVE SMOOTH",
"155 381 OFFCURVE",
"168 408 OFFCURVE",
"195 438 CURVE",
"151 420 LINE",
"141 392 OFFCURVE",
"131 361 OFFCURVE",
"131 325 CURVE SMOOTH",
"131 267 OFFCURVE",
"158 229 OFFCURVE",
"200 229 CURVE SMOOTH",
"243 229 OFFCURVE",
"300 269 OFFCURVE",
"300 352 CURVE SMOOTH",
"300 421 OFFCURVE",
"263 476 OFFCURVE",
"199 476 CURVE SMOOTH",
"108 476 OFFCURVE",
"55 363 OFFCURVE",
"55 248 CURVE SMOOTH",
"55 151 OFFCURVE",
"94 60 OFFCURVE",
"163 -14 CURVE"
);
}
);
width = 310;
}
);
rightMetricsKey = "=knmII";
unicode = 0CD5;
userData = {
public.markColor = "0.97,1,0,1";
};
},
{
color = 4;
glyphname = knAIlengthmark;
lastChange = "2016-01-17 18:56:06 +0000";
layers = (
{
layerId = "034236B8-3FA8-43DA-9EDA-EFF269A687EC";
name = Regular;
paths = (
{
closed = 1;
nodes = (
"60 -95 OFFCURVE",
"98 -57 OFFCURVE",
"98 -9 CURVE SMOOTH",
"98 38 OFFCURVE",
"62 68 OFFCURVE",
"9 73 CURVE",
"7 52 LINE",
"37 43 OFFCURVE",
"58 23 OFFCURVE",
"58 -11 CURVE SMOOTH",
"58 -43 OFFCURVE",
"38 -70 OFFCURVE",
"-3 -94 CURVE",
"18 -106 LINE"
);
},
{
closed = 1;
nodes = (
"78 -302 OFFCURVE",
"31 -359 OFFCURVE",
"-70 -359 CURVE SMOOTH",
"-150 -359 OFFCURVE",
"-205 -321 OFFCURVE",
"-205 -251 CURVE SMOOTH",
"-205 -203 OFFCURVE",
"-181 -147 OFFCURVE",
"-122 -147 CURVE SMOOTH",
"-94 -147 OFFCURVE",
"-79 -156 OFFCURVE",
"-79 -181 CURVE SMOOTH",
"-79 -203 OFFCURVE",
"-90 -217 OFFCURVE",
"-123 -217 CURVE SMOOTH",
"-155 -217 OFFCURVE",
"-170 -203 OFFCURVE",
"-170 -177 CURVE SMOOTH",
"-170 -169 OFFCURVE",
"-168 -156 OFFCURVE",
"-165 -150 CURVE",
"-175 -142 LINE",
"-186 -163 LINE",
"-187 -178 OFFCURVE",
"-188 -187 OFFCURVE",
"-188 -193 CURVE SMOOTH",
"-188 -239 OFFCURVE",
"-160 -261 OFFCURVE",
"-120 -261 CURVE SMOOTH",
"-77 -261 OFFCURVE",
"-51 -235 OFFCURVE",
"-51 -183 CURVE SMOOTH",
"-51 -137 OFFCURVE",
"-70 -106 OFFCURVE",
"-116 -106 CURVE SMOOTH",
"-190 -106 OFFCURVE",
"-231 -187 OFFCURVE",
"-231 -260 CURVE SMOOTH",
"-231 -346 OFFCURVE",
"-166 -412 OFFCURVE",
"-72 -412 CURVE SMOOTH",
"37 -412 OFFCURVE",
"108 -334 OFFCURVE",
"108 -238 CURVE SMOOTH",
"108 -158 OFFCURVE",
"65 -105 OFFCURVE",
"17 -94 CURVE",
"-3 -94 LINE",
"3 -110 LINE",
"43 -119 OFFCURVE",
"78 -173 OFFCURVE",
"78 -233 CURVE SMOOTH"
);
}
);
width = 98;
}
);
unicode = 0CD6;
userData = {
public.markColor = "0.85,0.26,0.06,1";
};
},
{
color = 4;
glyphname = knKA;
lastChange = "2016-01-25 15:10:50 +0000";
layers = (
{
layerId = "034236B8-3FA8-43DA-9EDA-EFF269A687EC";
name = Regular;
paths = (
{
closed = 1;
nodes = (
"348 -14 OFFCURVE",
"421 64 OFFCURVE",
"421 157 CURVE SMOOTH",
"421 249 OFFCURVE",
"348 327 OFFCURVE",
"254 327 CURVE SMOOTH",
"157 327 OFFCURVE",
"84 249 OFFCURVE",
"84 157 CURVE SMOOTH",
"84 64 OFFCURVE",
"157 -14 OFFCURVE",
"254 -14 CURVE SMOOTH"
);
},
{
closed = 1;
nodes = (
"182 71 OFFCURVE",
"132 117 OFFCURVE",
"132 182 CURVE SMOOTH",
"132 252 OFFCURVE",
"191 297 OFFCURVE",
"254 297 CURVE SMOOTH",
"316 297 OFFCURVE",
"374 252 OFFCURVE",
"374 182 CURVE SMOOTH",
"374 117 OFFCURVE",
"325 71 OFFCURVE",
"254 71 CURVE SMOOTH"
);
},
{
closed = 1;
nodes = (
"264 331 OFFCURVE",
"281 367 OFFCURVE",
"281 401 CURVE SMOOTH",
"281 435 OFFCURVE",
"264 471 OFFCURVE",
"224 488 CURVE",
"211 465 LINE",
"235 453 OFFCURVE",
"247 430 OFFCURVE",
"247 403 CURVE SMOOTH",
"247 372 OFFCURVE",
"231 350 OFFCURVE",
"207 337 CURVE",
"224 314 LINE"
);
},
{
closed = 1;
nodes = (
"198 294 LINE",
"254 306 LINE",
"313 294 LINE",
"465 294 LINE",
"465 360 LINE",
"40 360 LINE",
"40 294 LINE"
);
},
{
closed = 1;
nodes = (
"320 434 LINE SMOOTH",
"402 434 OFFCURVE",
"455 480 OFFCURVE",
"455 552 CURVE SMOOTH",
"455 607 OFFCURVE",
"424 648 OFFCURVE",
"381 664 CURVE",
"366 644 LINE",
"390 635 OFFCURVE",
"412 610 OFFCURVE",
"412 576 CURVE SMOOTH",
"412 537 OFFCURVE",
"381 509 OFFCURVE",
"320 509 CURVE SMOOTH",
"40 509 LINE",
"40 434 LINE"
);
}
);
width = 505;
}
);
unicode = 0C95;
userData = {
public.markColor = "0.97,1,0,1";
};
},
{
color = 4;
glyphname = knKHA;
lastChange = "2016-01-25 15:12:46 +0000";
layers = (
{
layerId = "034236B8-3FA8-43DA-9EDA-EFF269A687EC";
name = Regular;
paths = (
{
closed = 1;
nodes = (
"348 -14 OFFCURVE",
"437 139 OFFCURVE",
"437 287 CURVE SMOOTH",
"437 445 OFFCURVE",
"357 520 OFFCURVE",
"268 520 CURVE SMOOTH",
"197 520 OFFCURVE",
"146 469 OFFCURVE",
"146 404 CURVE SMOOTH",
"146 350 OFFCURVE",
"180 300 OFFCURVE",
"236 300 CURVE SMOOTH",
"280 300 OFFCURVE",
"304 328 OFFCURVE",
"304 357 CURVE SMOOTH",
"304 385 OFFCURVE",
"283 408 OFFCURVE",
"255 408 CURVE SMOOTH",
"228 408 OFFCURVE",
"211 387 OFFCURVE",
"211 357 CURVE SMOOTH",
"211 352 OFFCURVE",
"210 351 OFFCURVE",
"207 351 CURVE SMOOTH",
"194 351 OFFCURVE",
"185 369 OFFCURVE",
"185 389 CURVE SMOOTH",
"185 426 OFFCURVE",
"217 455 OFFCURVE",
"266 455 CURVE SMOOTH",
"336 455 OFFCURVE",
"397 397 OFFCURVE",
"397 285 CURVE SMOOTH",
"397 159 OFFCURVE",
"326 71 OFFCURVE",
"202 71 CURVE SMOOTH",
"125 71 OFFCURVE",
"94 104 OFFCURVE",
"94 138 CURVE SMOOTH",
"94 167 OFFCURVE",
"117 196 OFFCURVE",
"170 196 CURVE SMOOTH",
"311 196 OFFCURVE",
"380 -14 OFFCURVE",
"528 -14 CURVE SMOOTH",
"641 -14 OFFCURVE",
"722 95 OFFCURVE",
"722 242 CURVE SMOOTH",
"722 415 OFFCURVE",
"625 513 OFFCURVE",
"555 513 CURVE SMOOTH",
"523 513 OFFCURVE",
"507 493 OFFCURVE",
"507 470 CURVE SMOOTH",
"507 451 OFFCURVE",
"518 435 OFFCURVE",
"536 430 CURVE SMOOTH",
"558 424 OFFCURVE",
"578 427 OFFCURVE",
"604 420 CURVE SMOOTH",
"640 410 OFFCURVE",
"687 344 OFFCURVE",
"687 252 CURVE SMOOTH",
"687 137 OFFCURVE",
"616 71 OFFCURVE",
"530 71 CURVE SMOOTH",
"381 71 OFFCURVE",
"312 231 OFFCURVE",
"168 231 CURVE SMOOTH",
"92 231 OFFCURVE",
"40 187 OFFCURVE",
"40 119 CURVE SMOOTH",
"40 46 OFFCURVE",
"100 -14 OFFCURVE",
"194 -14 CURVE SMOOTH"
);
}
);
width = 767;
}
);
rightMetricsKey = "=knE-5";
unicode = 0C96;
userData = {
public.markColor = "0.97,1,0,1";
};
},
{
color = 4;
glyphname = knGA;
lastChange = "2016-01-25 15:13:08 +0000";
layers = (
{
layerId = "034236B8-3FA8-43DA-9EDA-EFF269A687EC";
name = Regular;
paths = (
{
closed = 1;
nodes = (
"133 0 LINE",
"133 78 LINE SMOOTH",
"133 247 OFFCURVE",
"187 438 OFFCURVE",
"292 438 CURVE SMOOTH",
"397 438 OFFCURVE",
"451 247 OFFCURVE",
"451 78 CURVE SMOOTH",
"451 0 LINE",
"529 0 LINE",
"529 51 LINE SMOOTH",
"529 186 OFFCURVE",
"466 388 OFFCURVE",
"363 449 CURVE",
"292 465 LINE",
"221 449 LINE",
"118 388 OFFCURVE",
"55 186 OFFCURVE",
"55 51 CURVE SMOOTH",
"55 0 LINE"
);
},
{
closed = 1;
nodes = (
"227 434 LINE",
"292 444 LINE",
"358 434 LINE",
"388 434 LINE SMOOTH",
"469 434 OFFCURVE",
"523 480 OFFCURVE",
"523 552 CURVE SMOOTH",
"523 607 OFFCURVE",
"492 648 OFFCURVE",
"449 664 CURVE",
"434 644 LINE",
"458 635 OFFCURVE",
"480 610 OFFCURVE",
"480 576 CURVE SMOOTH",
"480 536 OFFCURVE",
"449 509 OFFCURVE",
"388 509 CURVE SMOOTH",
"60 509 LINE",
"60 434 LINE"
);
}
);
width = 584;
}
);
unicode = 0C97;
userData = {
public.markColor = "0.97,1,0,1";
};
},
{
color = 4;
glyphname = knGHA;
lastChange = "2016-01-25 15:13:12 +0000";
layers = (
{
background = {
paths = (
{
closed = 1;
nodes = (
"761 201 OFFCURVE",
"801 248 OFFCURVE",
"801 310 CURVE SMOOTH",
"801 362 OFFCURVE",
"772 411 OFFCURVE",
"710 449 CURVE",
"691 429 LINE",
"734 399 OFFCURVE",
"752 367 OFFCURVE",
"752 336 CURVE SMOOTH",
"752 301 OFFCURVE",
"729 275 OFFCURVE",
"692 275 CURVE SMOOTH",
"657 275 OFFCURVE",
"624 298 OFFCURVE",
"580 390 CURVE",
"574 372 LINE",
"614 228 OFFCURVE",
"655 201 OFFCURVE",
"701 201 CURVE SMOOTH"
);
}
);
};
layerId = "034236B8-3FA8-43DA-9EDA-EFF269A687EC";
name = Regular;
paths = (
{
closed = 1;
nodes = (
"241 -14 OFFCURVE",
"316 43 OFFCURVE",
"339 126 CURVE",
"341 126 LINE",
"364 43 OFFCURVE",
"433 -14 OFFCURVE",
"502 -14 CURVE SMOOTH",
"593 -14 OFFCURVE",
"630 84 OFFCURVE",
"630 174 CURVE SMOOTH",
"630 251 OFFCURVE",
"613 335 OFFCURVE",
"580 390 CURVE",
"557 372 LINE",
"577 330 OFFCURVE",
"594 270 OFFCURVE",
"594 202 CURVE SMOOTH",
"594 141 OFFCURVE",
"564 71 OFFCURVE",
"495 71 CURVE SMOOTH",
"423 71 OFFCURVE",
"358 145 OFFCURVE",
"344 221 CURVE",
"335 221 LINE",
"321 145 OFFCURVE",
"251 71 OFFCURVE",
"176 71 CURVE SMOOTH",
"125 71 OFFCURVE",
"90 104 OFFCURVE",
"90 155 CURVE SMOOTH",
"90 201 OFFCURVE",
"119 227 OFFCURVE",
"160 227 CURVE SMOOTH",
"186 227 OFFCURVE",
"211 217 OFFCURVE",
"222 193 CURVE",
"238 208 LINE",
"225 250 OFFCURVE",
"201 287 OFFCURVE",
"152 287 CURVE SMOOTH",
"93 287 OFFCURVE",
"50 232 OFFCURVE",
"50 147 CURVE SMOOTH",
"50 56 OFFCURVE",
"99 -14 OFFCURVE",
"173 -14 CURVE SMOOTH"
);
},
{
closed = 1;
nodes = (
"365 -220 OFFCURVE",
"390 -201 OFFCURVE",
"390 -161 CURVE SMOOTH",
"390 -117 OFFCURVE",
"361 -104 OFFCURVE",
"347 16 CURVE",
"331 16 LINE",
"318 -104 OFFCURVE",
"287 -117 OFFCURVE",
"287 -161 CURVE SMOOTH",
"287 -197 OFFCURVE",
"312 -220 OFFCURVE",
"340 -220 CURVE SMOOTH"
);
},
{
closed = 1;
nodes = (
"371 271 OFFCURVE",
"398 298 OFFCURVE",
"398 331 CURVE SMOOTH",
"398 363 OFFCURVE",
"371 390 OFFCURVE",
"338 390 CURVE SMOOTH",
"304 390 OFFCURVE",
"279 363 OFFCURVE",
"279 331 CURVE SMOOTH",
"279 298 OFFCURVE",
"304 271 OFFCURVE",
"338 271 CURVE SMOOTH"
);
},
{
closed = 1;
nodes = (
"642 434 LINE SMOOTH",
"723 434 OFFCURVE",
"777 480 OFFCURVE",
"777 552 CURVE SMOOTH",
"777 607 OFFCURVE",
"746 648 OFFCURVE",
"703 664 CURVE",
"688 644 LINE",
"712 635 OFFCURVE",
"734 610 OFFCURVE",
"734 576 CURVE SMOOTH",
"734 536 OFFCURVE",
"703 509 OFFCURVE",
"642 509 CURVE SMOOTH",
"51 509 LINE",
"51 434 LINE"
);
},
{
closed = 1;
nodes = (
"771 191 OFFCURVE",
"801 238 OFFCURVE",
"801 292 CURVE SMOOTH",
"801 343 OFFCURVE",
"774 380 OFFCURVE",
"740 406 CURVE",
"721 386 LINE",
"739 372 OFFCURVE",
"752 347 OFFCURVE",
"752 321 CURVE SMOOTH",
"752 287 OFFCURVE",
"729 265 OFFCURVE",
"697 265 CURVE SMOOTH",
"657 265 OFFCURVE",
"624 298 OFFCURVE",
"580 390 CURVE",
"574 372 LINE",
"614 228 OFFCURVE",
"665 191 OFFCURVE",
"715 191 CURVE SMOOTH"
);
}
);
width = 836;
}
);
leftMetricsKey = "=knE";
unicode = 0C98;
userData = {
public.markColor = "0.97,1,0,1";
};
},
{
color = 4;
glyphname = knNGA;
lastChange = "2016-01-25 15:13:14 +0000";
layers = (
{
layerId = "034236B8-3FA8-43DA-9EDA-EFF269A687EC";
name = Regular;
paths = (
{
closed = 1;
nodes = (
"276 -14 OFFCURVE",
"344 43 OFFCURVE",
"367 126 CURVE",
"369 126 LINE",
"392 43 OFFCURVE",
"460 -14 OFFCURVE",
"528 -14 CURVE SMOOTH",
"594 -14 OFFCURVE",
"655 38 OFFCURVE",
"655 117 CURVE SMOOTH",
"655 172 OFFCURVE",
"626 222 OFFCURVE",
"592 251 CURVE",
"571 236 LINE",
"595 212 OFFCURVE",
"607 183 OFFCURVE",
"607 156 CURVE SMOOTH",
"607 116 OFFCURVE",
"582 71 OFFCURVE",
"525 71 CURVE SMOOTH",
"451 71 OFFCURVE",
"385 146 OFFCURVE",
"372 221 CURVE",
"363 221 LINE",
"349 145 OFFCURVE",
"284 71 OFFCURVE",
"212 71 CURVE SMOOTH",
"158 71 OFFCURVE",
"131 114 OFFCURVE",
"131 152 CURVE SMOOTH",
"131 187 OFFCURVE",
"155 223 OFFCURVE",
"189 257 CURVE SMOOTH",
"230 298 OFFCURVE",
"278 349 OFFCURVE",
"278 407 CURVE SMOOTH",
"278 465 OFFCURVE",
"230 519 OFFCURVE",
"154 519 CURVE SMOOTH",
"79 519 OFFCURVE",
"40 464 OFFCURVE",
"40 406 CURVE SMOOTH",
"40 380 OFFCURVE",
"48 352 OFFCURVE",
"69 330 CURVE",
"89 345 LINE",
"82 360 OFFCURVE",
"79 372 OFFCURVE",
"79 385 CURVE SMOOTH",
"79 421 OFFCURVE",
"102 452 OFFCURVE",
"149 452 CURVE SMOOTH",
"191 452 OFFCURVE",
"225 427 OFFCURVE",
"225 385 CURVE SMOOTH",
"225 344 OFFCURVE",
"194 311 OFFCURVE",
"162 278 CURVE SMOOTH",
"123 238 OFFCURVE",
"80 193 OFFCURVE",
"80 122 CURVE SMOOTH",
"80 38 OFFCURVE",
"141 -14 OFFCURVE",
"207 -14 CURVE SMOOTH"
);
},
{
closed = 1;
nodes = (
"429 278 OFFCURVE",
"452 302 OFFCURVE",
"452 331 CURVE SMOOTH",
"452 361 OFFCURVE",
"429 385 OFFCURVE",
"399 385 CURVE SMOOTH",
"369 385 OFFCURVE",
"346 361 OFFCURVE",
"346 331 CURVE SMOOTH",
"346 302 OFFCURVE",
"369 278 OFFCURVE",
"399 278 CURVE SMOOTH"
);
},
{
closed = 1;
nodes = (
"324 423 OFFCURVE",
"395 467 OFFCURVE",
"474 467 CURVE SMOOTH",
"546 467 OFFCURVE",
"587 430 OFFCURVE",
"587 378 CURVE SMOOTH",
"587 355 OFFCURVE",
"579 337 OFFCURVE",
"567 324 CURVE",
"586 308 LINE",
"609 332 OFFCURVE",
"630 360 OFFCURVE",
"630 408 CURVE SMOOTH",
"630 472 OFFCURVE",
"591 536 OFFCURVE",
"500 536 CURVE SMOOTH",
"388 536 OFFCURVE",
"288 438 OFFCURVE",
"236 346 CURVE",
"236 307 LINE"
);
}
);
width = 715;
}
);
leftMetricsKey = "=knBA";
rightMetricsKey = "=knBHA";
unicode = 0C99;
userData = {
public.markColor = "0.97,1,0,1";
};
},
{
color = 4;
glyphname = knCA;
lastChange = "2016-01-25 15:13:16 +0000";
layers = (
{
layerId = "034236B8-3FA8-43DA-9EDA-EFF269A687EC";
name = Regular;
paths = (
{
closed = 1;
nodes = (
"666 294 LINE",
"666 365 LINE",
"390 365 LINE",
"390 294 LINE"
);
},
{
closed = 1;
nodes = (
"566 331 OFFCURVE",
"584 364 OFFCURVE",
"584 394 CURVE SMOOTH",
"584 430 OFFCURVE",
"557 462 OFFCURVE",
"525 479 CURVE",
"510 448 LINE",
"537 437 OFFCURVE",
"550 416 OFFCURVE",
"550 395 CURVE SMOOTH",
"550 374 OFFCURVE",
"537 354 OFFCURVE",
"510 342 CURVE",
"525 313 LINE"
);
},
{
closed = 1;
nodes = (
"542 434 LINE SMOOTH",
"623 434 OFFCURVE",
"677 480 OFFCURVE",
"677 552 CURVE SMOOTH",
"677 607 OFFCURVE",
"646 648 OFFCURVE",
"603 664 CURVE",
"588 644 LINE",
"612 635 OFFCURVE",
"634 610 OFFCURVE",
"634 576 CURVE SMOOTH",
"634 536 OFFCURVE",
"603 509 OFFCURVE",
"542 509 CURVE SMOOTH",
"390 509 LINE",
"390 434 LINE"
);
},
{
closed = 1;
nodes = (
"450 71 OFFCURVE",
"385 146 OFFCURVE",
"372 221 CURVE",
"363 221 LINE",
"349 145 OFFCURVE",
"284 71 OFFCURVE",
"212 71 CURVE SMOOTH",
"158 71 OFFCURVE",
"131 114 OFFCURVE",
"131 152 CURVE SMOOTH",
"131 187 OFFCURVE",
"155 223 OFFCURVE",
"189 257 CURVE SMOOTH",
"230 298 OFFCURVE",
"278 349 OFFCURVE",
"278 407 CURVE SMOOTH",
"278 465 OFFCURVE",
"230 519 OFFCURVE",
"154 519 CURVE SMOOTH",
"79 519 OFFCURVE",
"40 464 OFFCURVE",
"40 406 CURVE SMOOTH",
"40 380 OFFCURVE",
"48 352 OFFCURVE",
"69 330 CURVE",
"89 345 LINE",
"82 360 OFFCURVE",
"79 372 OFFCURVE",
"79 385 CURVE SMOOTH",
"79 421 OFFCURVE",
"102 452 OFFCURVE",
"149 452 CURVE SMOOTH",
"191 452 OFFCURVE",
"225 427 OFFCURVE",
"225 385 CURVE SMOOTH",
"225 344 OFFCURVE",
"194 311 OFFCURVE",
"162 278 CURVE SMOOTH",
"123 238 OFFCURVE",
"80 193 OFFCURVE",
"80 122 CURVE SMOOTH",
"80 38 OFFCURVE",
"141 -14 OFFCURVE",
"207 -14 CURVE SMOOTH",
"276 -14 OFFCURVE",
"344 43 OFFCURVE",
"367 126 CURVE",
"369 126 LINE",
"392 43 OFFCURVE",
"460 -14 OFFCURVE",
"528 -14 CURVE SMOOTH",
"594 -14 OFFCURVE",
"655 38 OFFCURVE",
"655 135 CURVE SMOOTH",
"655 225 OFFCURVE",
"609 311 OFFCURVE",
"525 327 CURVE",
"506 310 LINE",
"566 287 OFFCURVE",
"607 221 OFFCURVE",
"607 163 CURVE SMOOTH",
"607 116 OFFCURVE",
"582 71 OFFCURVE",
"524 71 CURVE SMOOTH"
);
}
);
width = 737;
}
);
leftMetricsKey = "=knBHA";
rightMetricsKey = "=knBHA";
unicode = 0C9A;
userData = {
public.markColor = "0.97,1,0,1";
};
},
{
color = 4;
glyphname = knCHA;
lastChange = "2016-01-25 15:13:18 +0000";
layers = (
{
layerId = "034236B8-3FA8-43DA-9EDA-EFF269A687EC";
name = Regular;
paths = (
{
closed = 1;
nodes = (
"313 -14 OFFCURVE",
"381 43 OFFCURVE",
"404 126 CURVE",
"406 126 LINE",
"429 43 OFFCURVE",
"497 -14 OFFCURVE",
"577 -14 CURVE SMOOTH",
"678 -14 OFFCURVE",
"740 78 OFFCURVE",
"740 224 CURVE SMOOTH",
"740 416 OFFCURVE",
"586 509 OFFCURVE",
"453 509 CURVE",
"493 434 LINE",
"622 434 OFFCURVE",
"701 372 OFFCURVE",
"701 237 CURVE SMOOTH",
"701 158 OFFCURVE",
"659 71 OFFCURVE",
"570 71 CURVE SMOOTH",
"488 71 OFFCURVE",
"422 146 OFFCURVE",
"409 221 CURVE",
"400 221 LINE",
"386 145 OFFCURVE",
"318 71 OFFCURVE",
"237 71 CURVE SMOOTH",
"152 71 OFFCURVE",
"95 149 OFFCURVE",
"95 263 CURVE SMOOTH",
"95 365 OFFCURVE",
"137 454 OFFCURVE",
"230 454 CURVE SMOOTH",
"268 454 OFFCURVE",
"302 440 OFFCURVE",
"302 401 CURVE SMOOTH",
"302 365 OFFCURVE",
"274 344 OFFCURVE",
"230 344 CURVE SMOOTH",
"185 344 OFFCURVE",
"154 365 OFFCURVE",
"154 408 CURVE SMOOTH",
"154 419 OFFCURVE",
"158 440 OFFCURVE",
"161 450 CURVE",
"130 429 LINE",
"127 413 OFFCURVE",
"126 398 OFFCURVE",
"126 384 CURVE SMOOTH",
"126 308 OFFCURVE",
"169 273 OFFCURVE",
"224 273 CURVE SMOOTH",
"290 273 OFFCURVE",
"332 325 OFFCURVE",
"332 394 CURVE SMOOTH",
"332 457 OFFCURVE",
"296 519 OFFCURVE",
"225 519 CURVE SMOOTH",
"123 519 OFFCURVE",
"55 392 OFFCURVE",
"55 252 CURVE SMOOTH",
"55 82 OFFCURVE",
"132 -14 OFFCURVE",
"234 -14 CURVE SMOOTH"
);
},
{
closed = 1;
nodes = (
"432 -220 OFFCURVE",
"457 -201 OFFCURVE",
"457 -161 CURVE SMOOTH",
"457 -117 OFFCURVE",
"428 -104 OFFCURVE",
"414 16 CURVE",
"398 16 LINE",
"385 -104 OFFCURVE",
"354 -117 OFFCURVE",
"354 -161 CURVE SMOOTH",
"354 -197 OFFCURVE",
"379 -220 OFFCURVE",
"407 -220 CURVE SMOOTH"
);
},
{
closed = 1;
nodes = (
"606 434 LINE SMOOTH",
"686 434 OFFCURVE",
"741 487 OFFCURVE",
"741 552 CURVE SMOOTH",
"741 607 OFFCURVE",
"710 648 OFFCURVE",
"667 664 CURVE",
"652 644 LINE",
"676 635 OFFCURVE",
"698 610 OFFCURVE",
"698 576 CURVE SMOOTH",
"698 536 OFFCURVE",
"667 509 OFFCURVE",
"606 509 CURVE SMOOTH",
"445 509 LINE",
"445 434 LINE"
);
}
);
width = 796;
}
);
unicode = 0C9B;
userData = {
public.markColor = "0.97,1,0,1";
};
},
{
color = 4;
glyphname = knJA;
lastChange = "2016-01-25 15:13:19 +0000";
layers = (
{
layerId = "034236B8-3FA8-43DA-9EDA-EFF269A687EC";
name = Regular;
paths = (
{
closed = 1;
nodes = (
"547 287 OFFCURVE",
"600 339 OFFCURVE",
"600 414 CURVE SMOOTH",
"600 458 OFFCURVE",
"578 503 OFFCURVE",
"541 536 CURVE",
"522 519 LINE",
"547 494 OFFCURVE",
"558 469 OFFCURVE",
"558 443 CURVE SMOOTH",
"558 387 OFFCURVE",
"518 360 OFFCURVE",
"464 360 CURVE SMOOTH",
"398 360 OFFCURVE",
"328 393 OFFCURVE",
"249 480 CURVE",
"217 477 LINE",
"304 356 OFFCURVE",
"390 287 OFFCURVE",
"472 287 CURVE SMOOTH"
);
},
{
closed = 1;
nodes = (
"276 -14 OFFCURVE",
"344 43 OFFCURVE",
"367 126 CURVE",
"369 126 LINE",
"392 43 OFFCURVE",
"460 -14 OFFCURVE",
"528 -14 CURVE SMOOTH",
"594 -14 OFFCURVE",
"655 38 OFFCURVE",
"655 117 CURVE SMOOTH",
"655 172 OFFCURVE",
"626 222 OFFCURVE",
"592 251 CURVE",
"571 236 LINE",
"595 212 OFFCURVE",
"607 183 OFFCURVE",
"607 156 CURVE SMOOTH",
"607 116 OFFCURVE",
"582 71 OFFCURVE",
"525 71 CURVE SMOOTH",
"451 71 OFFCURVE",
"385 146 OFFCURVE",
"372 221 CURVE",
"363 221 LINE",
"349 145 OFFCURVE",
"284 71 OFFCURVE",
"212 71 CURVE SMOOTH",
"158 71 OFFCURVE",
"131 114 OFFCURVE",
"131 152 CURVE SMOOTH",
"131 187 OFFCURVE",
"155 223 OFFCURVE",
"189 257 CURVE SMOOTH",
"230 298 OFFCURVE",
"278 349 OFFCURVE",
"278 407 CURVE SMOOTH",
"278 465 OFFCURVE",
"230 519 OFFCURVE",
"154 519 CURVE SMOOTH",
"79 519 OFFCURVE",
"40 464 OFFCURVE",
"40 406 CURVE SMOOTH",
"40 380 OFFCURVE",
"48 352 OFFCURVE",
"69 330 CURVE",
"89 345 LINE",
"82 360 OFFCURVE",
"79 372 OFFCURVE",
"79 385 CURVE SMOOTH",
"79 421 OFFCURVE",
"102 452 OFFCURVE",
"149 452 CURVE SMOOTH",
"191 452 OFFCURVE",
"225 427 OFFCURVE",
"225 385 CURVE SMOOTH",
"225 344 OFFCURVE",
"194 311 OFFCURVE",
"162 278 CURVE SMOOTH",
"123 238 OFFCURVE",
"80 193 OFFCURVE",
"80 122 CURVE SMOOTH",
"80 38 OFFCURVE",
"141 -14 OFFCURVE",
"207 -14 CURVE SMOOTH"
);
}
);
width = 715;
}
);
leftMetricsKey = "=knBA";
rightMetricsKey = "=knBHA";
unicode = 0C9C;
userData = {
public.markColor = "0.97,1,0,1";
};
},
{
color = 4;
glyphname = knJHA;
lastChange = "2016-01-25 15:13:21 +0000";
layers = (
{
layerId = "034236B8-3FA8-43DA-9EDA-EFF269A687EC";
name = Regular;
paths = (
{
closed = 1;
nodes = (
"416 -14 OFFCURVE",
"510 86 OFFCURVE",
"510 226 CURVE SMOOTH",
"510 315 OFFCURVE",
"464 398 OFFCURVE",
"390 436 CURVE SMOOTH",
"358 453 OFFCURVE",
"321 461 OFFCURVE",
"280 461 CURVE SMOOTH",
"239 461 OFFCURVE",
"202 453 OFFCURVE",
"170 436 CURVE SMOOTH",
"96 398 OFFCURVE",
"50 315 OFFCURVE",
"50 226 CURVE SMOOTH",
"50 86 OFFCURVE",
"144 -14 OFFCURVE",
"280 -14 CURVE SMOOTH"
);
},
{
closed = 1;
nodes = (
"170 71 OFFCURVE",
"95 144 OFFCURVE",
"95 247 CURVE SMOOTH",
"95 348 OFFCURVE",
"179 433 OFFCURVE",
"280 433 CURVE SMOOTH",
"381 433 OFFCURVE",
"465 349 OFFCURVE",
"465 248 CURVE SMOOTH",
"465 145 OFFCURVE",
"389 71 OFFCURVE",
"280 71 CURVE SMOOTH"
);
},
{
closed = 1;
nodes = (
"831 -220 OFFCURVE",
"856 -201 OFFCURVE",
"856 -161 CURVE SMOOTH",
"856 -117 OFFCURVE",
"827 -104 OFFCURVE",
"813 16 CURVE",
"797 16 LINE",
"784 -104 OFFCURVE",
"753 -117 OFFCURVE",
"753 -161 CURVE SMOOTH",
"753 -197 OFFCURVE",
"778 -220 OFFCURVE",
"805 -220 CURVE SMOOTH"
);
},
{
closed = 1;
nodes = (
"213 434 LINE",
"279 451 LINE",
"343 434 LINE",
"375 434 LINE SMOOTH",
"456 434 OFFCURVE",
"510 480 OFFCURVE",
"510 552 CURVE SMOOTH",
"510 607 OFFCURVE",
"479 648 OFFCURVE",
"436 664 CURVE",
"421 644 LINE",
"445 635 OFFCURVE",
"467 610 OFFCURVE",
"467 576 CURVE SMOOTH",
"467 536 OFFCURVE",
"436 509 OFFCURVE",
"375 509 CURVE SMOOTH",
"50 509 LINE",
"50 434 LINE"
);
},
{
closed = 1;
nodes = (
"750 -14 OFFCURVE",
"830 95 OFFCURVE",
"830 242 CURVE SMOOTH",
"830 415 OFFCURVE",
"734 513 OFFCURVE",
"664 513 CURVE SMOOTH",
"632 513 OFFCURVE",
"615 493 OFFCURVE",
"615 470 CURVE SMOOTH",
"615 451 OFFCURVE",
"627 435 OFFCURVE",
"643 430 CURVE SMOOTH",
"666 423 OFFCURVE",
"687 430 OFFCURVE",
"711 420 CURVE SMOOTH",
"747 405 OFFCURVE",
"795 344 OFFCURVE",
"795 255 CURVE SMOOTH",
"795 137 OFFCURVE",
"725 71 OFFCURVE",
"637 71 CURVE SMOOTH",
"568 71 OFFCURVE",
"515 105 OFFCURVE",
"478 207 CURVE",
"458 188 LINE",
"476 61 OFFCURVE",
"551 -14 OFFCURVE",
"637 -14 CURVE SMOOTH"
);
},
{
closed = 1;
nodes = (
"1086 -14 OFFCURVE",
"1166 95 OFFCURVE",
"1166 242 CURVE SMOOTH",
"1166 415 OFFCURVE",
"1070 513 OFFCURVE",
"999 513 CURVE SMOOTH",
"968 513 OFFCURVE",
"951 493 OFFCURVE",
"951 470 CURVE SMOOTH",
"951 451 OFFCURVE",
"963 435 OFFCURVE",
"979 430 CURVE SMOOTH",
"1002 423 OFFCURVE",
"1023 428 OFFCURVE",
"1047 420 CURVE SMOOTH",
"1084 407 OFFCURVE",
"1131 344 OFFCURVE",
"1131 255 CURVE SMOOTH",
"1131 137 OFFCURVE",
"1061 71 OFFCURVE",
"973 71 CURVE SMOOTH",
"904 71 OFFCURVE",
"851 105 OFFCURVE",
"814 207 CURVE",
"794 188 LINE",
"812 61 OFFCURVE",
"887 -14 OFFCURVE",
"973 -14 CURVE SMOOTH"
);
}
);
width = 1221;
}
);
leftMetricsKey = "=knRA";
unicode = 0C9D;
userData = {
public.markColor = "0.97,1,0,1";
};
},
{
color = 4;
glyphname = knNYA;
lastChange = "2016-01-25 15:13:51 +0000";
layers = (
{
layerId = "034236B8-3FA8-43DA-9EDA-EFF269A687EC";
name = Regular;
paths = (
{
closed = 1;
nodes = (
"912 467 OFFCURVE",
"863 519 OFFCURVE",
"791 519 CURVE SMOOTH",
"714 519 OFFCURVE",
"648 461 OFFCURVE",
"625 377 CURVE",
"619 283 LINE",
"629 283 LINE",
"643 358 OFFCURVE",
"693 442 OFFCURVE",
"776 442 CURVE SMOOTH",
"834 442 OFFCURVE",
"865 402 OFFCURVE",
"865 358 CURVE SMOOTH",
"865 340 OFFCURVE",
"860 325 OFFCURVE",
"852 317 CURVE",
"883 296 LINE",
"904 323 OFFCURVE",
"912 356 OFFCURVE",
"912 388 CURVE SMOOTH"
);
},
{
closed = 1;
nodes = (
"79 519 OFFCURVE",
"30 467 OFFCURVE",
"30 388 CURVE SMOOTH",
"30 356 OFFCURVE",
"38 323 OFFCURVE",
"59 296 CURVE",
"90 317 LINE",
"82 325 OFFCURVE",
"77 340 OFFCURVE",
"77 358 CURVE SMOOTH",
"77 402 OFFCURVE",
"108 442 OFFCURVE",
"166 442 CURVE SMOOTH",
"256 442 OFFCURVE",
"306 358 OFFCURVE",
"320 283 CURVE",
"330 283 LINE",
"342 357 OFFCURVE",
"398 441 OFFCURVE",
"482 441 CURVE SMOOTH",
"543 441 OFFCURVE",
"595 390 OFFCURVE",
"595 300 CURVE SMOOTH",
"595 164 OFFCURVE",
"482 71 OFFCURVE",
"351 71 CURVE SMOOTH",
"291 71 OFFCURVE",
"240 89 OFFCURVE",
"240 124 CURVE SMOOTH",
"240 155 OFFCURVE",
"278 184 OFFCURVE",
"343 184 CURVE SMOOTH",
"496 184 OFFCURVE",
"579 46 OFFCURVE",
"579 -45 CURVE SMOOTH",
"579 -76 OFFCURVE",
"589 -97 OFFCURVE",
"610 -97 CURVE SMOOTH",
"626 -97 OFFCURVE",
"638 -84 OFFCURVE",
"638 -53 CURVE SMOOTH",
"638 39 OFFCURVE",
"531 216 OFFCURVE",
"338 216 CURVE SMOOTH",
"244 216 OFFCURVE",
"187 168 OFFCURVE",
"187 105 CURVE SMOOTH",
"187 38 OFFCURVE",
"250 -14 OFFCURVE",
"341 -14 CURVE SMOOTH",
"497 -14 OFFCURVE",
"631 148 OFFCURVE",
"631 315 CURVE SMOOTH",
"631 442 OFFCURVE",
"578 519 OFFCURVE",
"487 519 CURVE SMOOTH",
"414 519 OFFCURVE",
"349 461 OFFCURVE",
"326 377 CURVE",
"324 377 LINE",
"301 461 OFFCURVE",
"235 519 OFFCURVE",
"153 519 CURVE SMOOTH"
);
}
);
width = 942;
}
);
note = "this looks handy...";
unicode = 0C9E;
userData = {
public.markColor = "0.97,1,0,1";
};
},
{
color = 4;
glyphname = knTTA;
lastChange = "2016-01-25 15:13:23 +0000";
layers = (
{
layerId = "034236B8-3FA8-43DA-9EDA-EFF269A687EC";
name = Regular;
paths = (
{
closed = 1;
nodes = (
"313 -14 OFFCURVE",
"381 43 OFFCURVE",
"404 126 CURVE",
"406 126 LINE",
"429 43 OFFCURVE",
"497 -14 OFFCURVE",
"567 -14 CURVE SMOOTH",
"678 -14 OFFCURVE",
"740 78 OFFCURVE",
"740 214 CURVE SMOOTH",
"740 329 OFFCURVE",
"678 409 OFFCURVE",
"570 425 CURVE",
"540 425 LINE",
"556 386 LINE",
"654 378 OFFCURVE",
"701 302 OFFCURVE",
"701 227 CURVE SMOOTH",
"701 138 OFFCURVE",
"649 71 OFFCURVE",
"561 71 CURVE SMOOTH",
"488 71 OFFCURVE",
"422 146 OFFCURVE",
"409 221 CURVE",
"400 221 LINE",
"386 145 OFFCURVE",
"318 71 OFFCURVE",
"243 71 CURVE SMOOTH",
"152 71 OFFCURVE",
"95 149 OFFCURVE",
"95 252 CURVE SMOOTH",
"95 345 OFFCURVE",
"137 414 OFFCURVE",
"230 414 CURVE SMOOTH",
"268 414 OFFCURVE",
"302 400 OFFCURVE",
"302 361 CURVE SMOOTH",
"302 325 OFFCURVE",
"274 304 OFFCURVE",
"227 304 CURVE SMOOTH",
"185 304 OFFCURVE",
"154 325 OFFCURVE",
"154 368 CURVE SMOOTH",
"154 379 OFFCURVE",
"158 400 OFFCURVE",
"161 410 CURVE",
"130 389 LINE",
"127 367 OFFCURVE",
"126 354 OFFCURVE",
"126 341 CURVE SMOOTH",
"126 268 OFFCURVE",
"169 233 OFFCURVE",
"227 233 CURVE SMOOTH",
"290 233 OFFCURVE",
"332 285 OFFCURVE",
"332 351 CURVE SMOOTH",
"332 417 OFFCURVE",
"296 479 OFFCURVE",
"225 479 CURVE SMOOTH",
"123 479 OFFCURVE",
"55 372 OFFCURVE",
"55 241 CURVE SMOOTH",
"55 82 OFFCURVE",
"132 -14 OFFCURVE",
"243 -14 CURVE SMOOTH"
);
},
{
closed = 1;
nodes = (
"229 468 LINE",
"187 497 OFFCURVE",
"169 524 OFFCURVE",
"169 561 CURVE SMOOTH",
"169 606 OFFCURVE",
"192 637 OFFCURVE",
"244 649 CURVE",
"235 671 LINE",
"151 666 OFFCURVE",
"105 620 OFFCURVE",
"105 566 CURVE SMOOTH",
"105 511 OFFCURVE",
"154 471 OFFCURVE",
"208 452 CURVE"
);
},
{
closed = 1;
nodes = (
"638 441 OFFCURVE",
"698 488 OFFCURVE",
"698 554 CURVE SMOOTH",
"698 613 OFFCURVE",
"653 663 OFFCURVE",
"567 671 CURVE",
"555 651 LINE",
"608 636 OFFCURVE",
"637 602 OFFCURVE",
"637 557 CURVE SMOOTH",
"637 509 OFFCURVE",
"606 464 OFFCURVE",
"540 425 CURVE",
"572 407 LINE"
);
}
);
width = 795;
}
);
leftMetricsKey = "=knCHA";
rightMetricsKey = "=knCHA";
unicode = 0C9F;
userData = {
public.markColor = "0.97,1,0,1";
};
},
{
color = 4;
glyphname = knTTHA;
lastChange = "2016-01-24 20:04:03 +0000";
layers = (
{
layerId = "034236B8-3FA8-43DA-9EDA-EFF269A687EC";
name = Regular;
paths = (
{
closed = 1;
nodes = (
"416 -14 OFFCURVE",
"510 86 OFFCURVE",
"510 226 CURVE SMOOTH",
"510 315 OFFCURVE",
"464 398 OFFCURVE",
"390 436 CURVE SMOOTH",
"358 453 OFFCURVE",
"321 461 OFFCURVE",
"280 461 CURVE SMOOTH",
"239 461 OFFCURVE",
"202 453 OFFCURVE",
"170 436 CURVE SMOOTH",
"96 398 OFFCURVE",
"50 315 OFFCURVE",
"50 226 CURVE SMOOTH",
"50 86 OFFCURVE",
"144 -14 OFFCURVE",
"280 -14 CURVE SMOOTH"
);
},
{
closed = 1;
nodes = (
"170 71 OFFCURVE",
"95 144 OFFCURVE",
"95 247 CURVE SMOOTH",
"95 348 OFFCURVE",
"179 433 OFFCURVE",
"280 433 CURVE SMOOTH",
"381 433 OFFCURVE",
"465 349 OFFCURVE",
"465 248 CURVE SMOOTH",
"465 145 OFFCURVE",
"389 71 OFFCURVE",
"280 71 CURVE SMOOTH"
);
},
{
closed = 1;
nodes = (
"314 203 OFFCURVE",
"339 227 OFFCURVE",
"339 261 CURVE SMOOTH",
"339 295 OFFCURVE",
"314 321 OFFCURVE",
"280 321 CURVE SMOOTH",
"246 321 OFFCURVE",
"220 295 OFFCURVE",
"220 261 CURVE SMOOTH",
"220 227 OFFCURVE",
"246 203 OFFCURVE",
"280 203 CURVE SMOOTH"
);
},
{
closed = 1;
nodes = (
"213 434 LINE",
"279 451 LINE",
"343 434 LINE",
"375 434 LINE SMOOTH",
"456 434 OFFCURVE",
"510 480 OFFCURVE",
"510 552 CURVE SMOOTH",
"510 607 OFFCURVE",
"479 648 OFFCURVE",
"436 664 CURVE",
"421 644 LINE",
"445 635 OFFCURVE",
"467 610 OFFCURVE",
"467 576 CURVE SMOOTH",
"467 536 OFFCURVE",
"436 509 OFFCURVE",
"375 509 CURVE SMOOTH",
"50 509 LINE",
"50 434 LINE"
);
}
);
width = 560;
}
);
leftMetricsKey = "=knRA";
rightMetricsKey = "=knRA";
unicode = 0CA0;
userData = {
public.markColor = "0.97,1,0,1";
};
},
{
color = 4;
glyphname = knDDA;
lastChange = "2016-01-24 20:04:03 +0000";
layers = (
{
layerId = "034236B8-3FA8-43DA-9EDA-EFF269A687EC";
name = Regular;
paths = (
{
closed = 1;
nodes = (
"208 467 OFFCURVE",
"55 339 OFFCURVE",
"55 150 CURVE SMOOTH",
"55 33 OFFCURVE",
"117 -14 OFFCURVE",
"182 -14 CURVE SMOOTH",
"253 -14 OFFCURVE",
"321 43 OFFCURVE",
"344 126 CURVE",
"346 126 LINE",
"369 43 OFFCURVE",
"437 -14 OFFCURVE",
"513 -14 CURVE SMOOTH",
"582 -14 OFFCURVE",
"645 33 OFFCURVE",
"645 131 CURVE SMOOTH",
"645 218 OFFCURVE",
"595 355 OFFCURVE",
"486 355 CURVE SMOOTH",
"427 355 OFFCURVE",
"398 315 OFFCURVE",
"398 276 CURVE SMOOTH",
"398 229 OFFCURVE",
"440 185 OFFCURVE",
"498 185 CURVE SMOOTH",
"547 185 OFFCURVE",
"596 216 OFFCURVE",
"596 284 CURVE SMOOTH",
"596 397 OFFCURVE",
"460 467 OFFCURVE",
"354 467 CURVE SMOOTH"
);
},
{
closed = 1;
nodes = (
"448 434 LINE",
"499 434 LINE SMOOTH",
"580 434 OFFCURVE",
"634 480 OFFCURVE",
"634 552 CURVE SMOOTH",
"634 607 OFFCURVE",
"603 648 OFFCURVE",
"560 664 CURVE",
"545 644 LINE",
"569 635 OFFCURVE",
"591 610 OFFCURVE",
"591 576 CURVE SMOOTH",
"591 536 OFFCURVE",
"560 509 OFFCURVE",
"499 509 CURVE SMOOTH",
"55 509 LINE",
"55 434 LINE",
"241 434 LINE",
"354 454 LINE"
);
},
{
closed = 1;
nodes = (
"466 441 OFFCURVE",
"564 355 OFFCURVE",
"564 297 CURVE SMOOTH",
"564 272 OFFCURVE",
"546 243 OFFCURVE",
"495 243 CURVE SMOOTH",
"454 243 OFFCURVE",
"437 262 OFFCURVE",
"437 284 CURVE SMOOTH",
"437 307 OFFCURVE",
"455 326 OFFCURVE",
"489 326 CURVE SMOOTH",
"556 326 OFFCURVE",
"599 254 OFFCURVE",
"599 180 CURVE SMOOTH",
"599 113 OFFCURVE",
"564 71 OFFCURVE",
"505 71 CURVE SMOOTH",
"429 71 OFFCURVE",
"364 145 OFFCURVE",
"350 221 CURVE",
"341 221 LINE",
"327 145 OFFCURVE",
"261 71 OFFCURVE",
"191 71 CURVE SMOOTH",
"138 71 OFFCURVE",
"104 114 OFFCURVE",
"104 181 CURVE SMOOTH",
"104 300 OFFCURVE",
"213 441 OFFCURVE",
"354 441 CURVE SMOOTH"
);
}
);
width = 700;
}
);
leftMetricsKey = "=knDA";
rightMetricsKey = "=knDA";
unicode = 0CA1;
userData = {
public.markColor = "0.97,1,0,1";
};
},
{
color = 4;
glyphname = knDDHA;
lastChange = "2016-01-24 20:04:03 +0000";
layers = (
{
layerId = "034236B8-3FA8-43DA-9EDA-EFF269A687EC";
name = Regular;
paths = (
{
closed = 1;
nodes = (
"370 -220 OFFCURVE",
"395 -201 OFFCURVE",
"395 -161 CURVE SMOOTH",
"395 -117 OFFCURVE",
"366 -104 OFFCURVE",
"352 16 CURVE",
"336 16 LINE",
"323 -104 OFFCURVE",
"292 -117 OFFCURVE",
"292 -161 CURVE SMOOTH",
"292 -197 OFFCURVE",
"317 -220 OFFCURVE",
"344 -220 CURVE SMOOTH"
);
},
{
closed = 1;
nodes = (
"208 467 OFFCURVE",
"55 339 OFFCURVE",
"55 150 CURVE SMOOTH",
"55 33 OFFCURVE",
"117 -14 OFFCURVE",
"182 -14 CURVE SMOOTH",
"253 -14 OFFCURVE",
"321 43 OFFCURVE",
"344 126 CURVE",
"346 126 LINE",
"369 43 OFFCURVE",
"437 -14 OFFCURVE",
"513 -14 CURVE SMOOTH",
"582 -14 OFFCURVE",
"645 33 OFFCURVE",
"645 131 CURVE SMOOTH",
"645 218 OFFCURVE",
"595 355 OFFCURVE",
"486 355 CURVE SMOOTH",
"427 355 OFFCURVE",
"398 315 OFFCURVE",
"398 276 CURVE SMOOTH",
"398 229 OFFCURVE",
"440 185 OFFCURVE",
"498 185 CURVE SMOOTH",
"547 185 OFFCURVE",
"596 216 OFFCURVE",
"596 284 CURVE SMOOTH",
"596 397 OFFCURVE",
"460 467 OFFCURVE",
"354 467 CURVE SMOOTH"
);
},
{
closed = 1;
nodes = (
"448 434 LINE",
"499 434 LINE SMOOTH",
"580 434 OFFCURVE",
"634 480 OFFCURVE",
"634 552 CURVE SMOOTH",
"634 607 OFFCURVE",
"603 648 OFFCURVE",
"560 664 CURVE",
"545 644 LINE",
"569 635 OFFCURVE",
"591 610 OFFCURVE",
"591 576 CURVE SMOOTH",
"591 536 OFFCURVE",
"560 509 OFFCURVE",
"499 509 CURVE SMOOTH",
"55 509 LINE",
"55 434 LINE",
"241 434 LINE",
"354 454 LINE"
);
},
{
closed = 1;
nodes = (
"466 441 OFFCURVE",
"564 355 OFFCURVE",
"564 297 CURVE SMOOTH",
"564 272 OFFCURVE",
"546 243 OFFCURVE",
"495 243 CURVE SMOOTH",
"454 243 OFFCURVE",
"437 262 OFFCURVE",
"437 284 CURVE SMOOTH",
"437 307 OFFCURVE",
"455 326 OFFCURVE",
"489 326 CURVE SMOOTH",
"556 326 OFFCURVE",
"599 254 OFFCURVE",
"599 180 CURVE SMOOTH",
"599 113 OFFCURVE",
"564 71 OFFCURVE",
"505 71 CURVE SMOOTH",
"429 71 OFFCURVE",
"364 145 OFFCURVE",
"350 221 CURVE",
"341 221 LINE",
"327 145 OFFCURVE",
"261 71 OFFCURVE",
"191 71 CURVE SMOOTH",
"138 71 OFFCURVE",
"104 114 OFFCURVE",
"104 181 CURVE SMOOTH",
"104 300 OFFCURVE",
"214 441 OFFCURVE",
"354 441 CURVE SMOOTH"
);
}
);
width = 700;
}
);
leftMetricsKey = "=knDDA";
rightMetricsKey = "=knDDA";
unicode = 0CA2;
userData = {
public.markColor = "0.97,1,0,1";
};
},
{
color = 4;
glyphname = knNNA;
lastChange = "2016-01-24 20:04:03 +0000";
layers = (
{
background = {
paths = (
{
closed = 1;
nodes = (
"244 -14 OFFCURVE",
"282 78 OFFCURVE",
"285 139 CURVE",
"262 151 LINE",
"241 88 OFFCURVE",
"208 66 OFFCURVE",
"165 66 CURVE SMOOTH",
"120 66 OFFCURVE",
"97 90 OFFCURVE",
"97 124 CURVE SMOOTH",
"97 172 OFFCURVE",
"141 210 OFFCURVE",
"228 224 CURVE",
"228 248 LINE",
"147 263 OFFCURVE",
"96 302 OFFCURVE",
"96 359 CURVE SMOOTH",
"96 407 OFFCURVE",
"131 441 OFFCURVE",
"186 441 CURVE SMOOTH",
"268 441 OFFCURVE",
"327 366 OFFCURVE",
"341 283 CURVE",
"350 283 LINE",
"363 365 OFFCURVE",
"428 441 OFFCURVE",
"526 441 CURVE SMOOTH",
"625 441 OFFCURVE",
"690 357 OFFCURVE",
"690 245 CURVE SMOOTH",
"690 128 OFFCURVE",
"618 71 OFFCURVE",
"542 71 CURVE SMOOTH",
"483 71 OFFCURVE",
"444 104 OFFCURVE",
"444 156 CURVE SMOOTH",
"444 201 OFFCURVE",
"473 227 OFFCURVE",
"517 227 CURVE SMOOTH",
"544 227 OFFCURVE",
"565 217 OFFCURVE",
"576 193 CURVE",
"592 208 LINE",
"579 250 OFFCURVE",
"555 287 OFFCURVE",
"505 287 CURVE SMOOTH",
"447 287 OFFCURVE",
"404 237 OFFCURVE",
"404 148 CURVE SMOOTH",
"404 51 OFFCURVE",
"466 -14 OFFCURVE",
"547 -14 CURVE SMOOTH",
"651 -14 OFFCURVE",
"725 97 OFFCURVE",
"725 235 CURVE SMOOTH",
"725 392 OFFCURVE",
"646 519 OFFCURVE",
"522 519 CURVE SMOOTH",
"438 519 OFFCURVE",
"370 461 OFFCURVE",
"347 377 CURVE",
"344 377 LINE",
"321 461 OFFCURVE",
"259 519 OFFCURVE",
"183 519 CURVE SMOOTH",
"108 519 OFFCURVE",
"50 464 OFFCURVE",
"50 389 CURVE SMOOTH",
"50 312 OFFCURVE",
"109 246 OFFCURVE",
"156 238 CURVE",
"94 217 OFFCURVE",
"50 164 OFFCURVE",
"50 100 CURVE SMOOTH",
"50 36 OFFCURVE",
"93 -14 OFFCURVE",
"157 -14 CURVE SMOOTH"
);
}
);
};
layerId = "034236B8-3FA8-43DA-9EDA-EFF269A687EC";
name = Regular;
paths = (
{
closed = 1;
nodes = (
"244 -14 OFFCURVE",
"282 78 OFFCURVE",
"285 139 CURVE",
"262 151 LINE",
"241 88 OFFCURVE",
"208 66 OFFCURVE",
"165 66 CURVE SMOOTH",
"120 66 OFFCURVE",
"97 90 OFFCURVE",
"97 123 CURVE SMOOTH",
"97 172 OFFCURVE",
"150 213 OFFCURVE",
"228 224 CURVE",
"228 248 LINE",
"147 266 OFFCURVE",
"96 309 OFFCURVE",
"96 362 CURVE SMOOTH",
"96 407 OFFCURVE",
"131 441 OFFCURVE",
"186 441 CURVE SMOOTH",
"268 441 OFFCURVE",
"327 366 OFFCURVE",
"341 283 CURVE",
"350 283 LINE",
"363 365 OFFCURVE",
"428 441 OFFCURVE",
"526 441 CURVE SMOOTH",
"625 441 OFFCURVE",
"690 357 OFFCURVE",
"690 245 CURVE SMOOTH",
"690 128 OFFCURVE",
"618 71 OFFCURVE",
"542 71 CURVE SMOOTH",
"483 71 OFFCURVE",
"444 104 OFFCURVE",
"444 156 CURVE SMOOTH",
"444 201 OFFCURVE",
"473 227 OFFCURVE",
"517 227 CURVE SMOOTH",
"544 227 OFFCURVE",
"565 217 OFFCURVE",
"576 193 CURVE",
"592 208 LINE",
"579 250 OFFCURVE",
"555 287 OFFCURVE",
"505 287 CURVE SMOOTH",
"447 287 OFFCURVE",
"404 237 OFFCURVE",
"404 148 CURVE SMOOTH",
"404 51 OFFCURVE",
"466 -14 OFFCURVE",
"547 -14 CURVE SMOOTH",
"651 -14 OFFCURVE",
"725 97 OFFCURVE",
"725 235 CURVE SMOOTH",
"725 392 OFFCURVE",
"646 519 OFFCURVE",
"522 519 CURVE SMOOTH",
"438 519 OFFCURVE",
"370 461 OFFCURVE",
"347 377 CURVE",
"344 377 LINE",
"321 461 OFFCURVE",
"259 519 OFFCURVE",
"183 519 CURVE SMOOTH",
"108 519 OFFCURVE",
"50 464 OFFCURVE",
"50 389 CURVE SMOOTH",
"50 314 OFFCURVE",
"106 251 OFFCURVE",
"152 240 CURVE",
"152 236 LINE",
"92 214 OFFCURVE",
"50 163 OFFCURVE",
"50 100 CURVE SMOOTH",
"50 36 OFFCURVE",
"93 -14 OFFCURVE",
"157 -14 CURVE SMOOTH"
);
}
);
width = 780;
}
);
leftMetricsKey = "=knE";
rightMetricsKey = "=knRRA";
unicode = 0CA3;
userData = {
public.markColor = "0.97,1,0,1";
};
},
{
color = 4;
glyphname = knTA;
lastChange = "2016-01-25 15:13:56 +0000";
layers = (
{
background = {
paths = (
{
closed = 1;
nodes = (
"241 434 LINE",
"345 444 LINE",
"448 434 LINE",
"499 434 LINE SMOOTH",
"580 434 OFFCURVE",
"634 480 OFFCURVE",
"634 552 CURVE SMOOTH",
"634 607 OFFCURVE",
"603 648 OFFCURVE",
"560 664 CURVE",
"545 644 LINE",
"569 635 OFFCURVE",
"591 610 OFFCURVE",
"591 576 CURVE SMOOTH",
"591 536 OFFCURVE",
"560 509 OFFCURVE",
"499 509 CURVE SMOOTH",
"55 509 LINE",
"55 434 LINE"
);
}
);
};
layerId = "034236B8-3FA8-43DA-9EDA-EFF269A687EC";
name = Regular;
paths = (
{
closed = 1;
nodes = (
"444 -14 OFFCURVE",
"539 75 OFFCURVE",
"539 191 CURVE SMOOTH",
"539 307 OFFCURVE",
"440 380 OFFCURVE",
"322 380 CURVE SMOOTH",
"235 380 OFFCURVE",
"178 342 OFFCURVE",
"178 286 CURVE SMOOTH",
"178 230 OFFCURVE",
"234 189 OFFCURVE",
"305 189 CURVE SMOOTH",
"385 189 OFFCURVE",
"452 242 OFFCURVE",
"452 320 CURVE SMOOTH",
"452 385 OFFCURVE",
"405 437 OFFCURVE",
"359 449 CURVE",
"294 440 LINE",
"348 440 OFFCURVE",
"414 394 OFFCURVE",
"414 333 CURVE SMOOTH",
"414 279 OFFCURVE",
"367 247 OFFCURVE",
"308 247 CURVE SMOOTH",
"263 247 OFFCURVE",
"233 265 OFFCURVE",
"233 294 CURVE SMOOTH",
"233 325 OFFCURVE",
"271 344 OFFCURVE",
"327 344 CURVE SMOOTH",
"420 344 OFFCURVE",
"493 293 OFFCURVE",
"493 215 CURVE SMOOTH",
"493 139 OFFCURVE",
"422 71 OFFCURVE",
"293 71 CURVE SMOOTH",
"173 71 OFFCURVE",
"97 129 OFFCURVE",
"97 205 CURVE SMOOTH",
"97 222 OFFCURVE",
"101 240 OFFCURVE",
"108 254 CURVE",
"84 258 LINE",
"72 240 OFFCURVE",
"60 204 OFFCURVE",
"60 169 CURVE SMOOTH",
"60 76 OFFCURVE",
"145 -14 OFFCURVE",
"296 -14 CURVE SMOOTH"
);
},
{
closed = 1;
nodes = (
"394 434 LINE SMOOTH",
"475 434 OFFCURVE",
"529 480 OFFCURVE",
"529 552 CURVE SMOOTH",
"529 607 OFFCURVE",
"498 648 OFFCURVE",
"455 664 CURVE",
"440 644 LINE",
"464 635 OFFCURVE",
"486 610 OFFCURVE",
"486 576 CURVE SMOOTH",
"486 536 OFFCURVE",
"455 509 OFFCURVE",
"394 509 CURVE SMOOTH",
"55 509 LINE",
"55 434 LINE"
);
}
);
width = 594;
}
);
unicode = 0CA4;
userData = {
public.markColor = "0.97,1,0,1";
};
},
{
color = 4;
glyphname = knTHA;
lastChange = "2016-01-24 20:04:03 +0000";
layers = (
{
background = {
paths = (
{
closed = 1;
nodes = (
"253 -14 OFFCURVE",
"321 43 OFFCURVE",
"344 126 CURVE",
"346 126 LINE",
"369 43 OFFCURVE",
"437 -14 OFFCURVE",
"508 -14 CURVE SMOOTH",
"572 -14 OFFCURVE",
"635 33 OFFCURVE",
"635 127 CURVE SMOOTH",
"635 218 OFFCURVE",
"575 355 OFFCURVE",
"466 355 CURVE SMOOTH",
"407 355 OFFCURVE",
"378 315 OFFCURVE",
"378 276 CURVE SMOOTH",
"378 229 OFFCURVE",
"420 185 OFFCURVE",
"478 185 CURVE SMOOTH",
"527 185 OFFCURVE",
"576 216 OFFCURVE",
"576 284 CURVE SMOOTH",
"576 397 OFFCURVE",
"450 467 OFFCURVE",
"345 467 CURVE SMOOTH",
"208 467 OFFCURVE",
"55 339 OFFCURVE",
"55 150 CURVE SMOOTH",
"55 33 OFFCURVE",
"117 -14 OFFCURVE",
"182 -14 CURVE SMOOTH"
);
},
{
closed = 1;
nodes = (
"138 71 OFFCURVE",
"104 114 OFFCURVE",
"104 181 CURVE SMOOTH",
"104 300 OFFCURVE",
"213 441 OFFCURVE",
"345 441 CURVE SMOOTH",
"456 441 OFFCURVE",
"544 355 OFFCURVE",
"544 299 CURVE SMOOTH",
"544 272 OFFCURVE",
"526 243 OFFCURVE",
"475 243 CURVE SMOOTH",
"434 243 OFFCURVE",
"417 262 OFFCURVE",
"417 285 CURVE SMOOTH",
"417 307 OFFCURVE",
"435 326 OFFCURVE",
"469 326 CURVE SMOOTH",
"536 326 OFFCURVE",
"589 254 OFFCURVE",
"589 177 CURVE SMOOTH",
"589 113 OFFCURVE",
"554 71 OFFCURVE",
"500 71 CURVE SMOOTH",
"429 71 OFFCURVE",
"364 145 OFFCURVE",
"350 221 CURVE",
"341 221 LINE",
"327 145 OFFCURVE",
"261 71 OFFCURVE",
"191 71 CURVE SMOOTH"
);
}
);
};
layerId = "034236B8-3FA8-43DA-9EDA-EFF269A687EC";
name = Regular;
paths = (
{
closed = 1;
nodes = (
"253 -14 OFFCURVE",
"321 43 OFFCURVE",
"344 126 CURVE",
"346 126 LINE",
"369 43 OFFCURVE",
"437 -14 OFFCURVE",
"508 -14 CURVE SMOOTH",
"572 -14 OFFCURVE",
"635 33 OFFCURVE",
"635 153 CURVE SMOOTH",
"635 339 OFFCURVE",
"482 467 OFFCURVE",
"345 467 CURVE SMOOTH",
"208 467 OFFCURVE",
"55 339 OFFCURVE",
"55 151 CURVE SMOOTH",
"55 33 OFFCURVE",
"117 -14 OFFCURVE",
"182 -14 CURVE SMOOTH"
);
},
{
closed = 1;
nodes = (
"370 -220 OFFCURVE",
"395 -201 OFFCURVE",
"395 -161 CURVE SMOOTH",
"395 -117 OFFCURVE",
"366 -104 OFFCURVE",
"352 16 CURVE",
"336 16 LINE",
"323 -104 OFFCURVE",
"292 -117 OFFCURVE",
"292 -161 CURVE SMOOTH",
"292 -197 OFFCURVE",
"317 -220 OFFCURVE",
"344 -220 CURVE SMOOTH"
);
},
{
closed = 1;
nodes = (
"138 71 OFFCURVE",
"104 114 OFFCURVE",
"104 181 CURVE SMOOTH",
"104 300 OFFCURVE",
"213 441 OFFCURVE",
"345 441 CURVE SMOOTH",
"477 441 OFFCURVE",
"586 300 OFFCURVE",
"586 180 CURVE SMOOTH",
"586 114 OFFCURVE",
"552 71 OFFCURVE",
"499 71 CURVE SMOOTH",
"429 71 OFFCURVE",
"364 145 OFFCURVE",
"350 221 CURVE",
"341 221 LINE",
"327 145 OFFCURVE",
"261 71 OFFCURVE",
"191 71 CURVE SMOOTH"
);
},
{
closed = 1;
nodes = (
"379 256 OFFCURVE",
"405 282 OFFCURVE",
"405 315 CURVE SMOOTH",
"405 348 OFFCURVE",
"379 375 OFFCURVE",
"346 375 CURVE SMOOTH",
"313 375 OFFCURVE",
"287 348 OFFCURVE",
"287 315 CURVE SMOOTH",
"287 282 OFFCURVE",
"313 256 OFFCURVE",
"346 256 CURVE SMOOTH"
);
},
{
closed = 1;
nodes = (
"241 434 LINE",
"345 444 LINE",
"448 434 LINE",
"499 434 LINE SMOOTH",
"580 434 OFFCURVE",
"634 480 OFFCURVE",
"634 552 CURVE SMOOTH",
"634 607 OFFCURVE",
"603 648 OFFCURVE",
"560 664 CURVE",
"545 644 LINE",
"569 635 OFFCURVE",
"591 610 OFFCURVE",
"591 576 CURVE SMOOTH",
"591 536 OFFCURVE",
"560 509 OFFCURVE",
"499 509 CURVE SMOOTH",
"55 509 LINE",
"55 434 LINE"
);
}
);
width = 690;
}
);
leftMetricsKey = "=knDA";
rightMetricsKey = "=knDA";
unicode = 0CA5;
userData = {
public.markColor = "0.97,1,0,1";
};
},
{
color = 0;
glyphname = knDA;
lastChange = "2016-01-25 15:13:29 +0000";
layers = (
{
layerId = "034236B8-3FA8-43DA-9EDA-EFF269A687EC";
name = Regular;
paths = (
{
closed = 1;
nodes = (
"241 434 LINE",
"345 444 LINE",
"448 434 LINE",
"499 434 LINE SMOOTH",
"580 434 OFFCURVE",
"634 480 OFFCURVE",
"634 552 CURVE SMOOTH",
"634 607 OFFCURVE",
"603 648 OFFCURVE",
"560 664 CURVE",
"545 644 LINE",
"569 635 OFFCURVE",
"591 610 OFFCURVE",
"591 576 CURVE SMOOTH",
"591 536 OFFCURVE",
"560 509 OFFCURVE",
"499 509 CURVE SMOOTH",
"55 509 LINE",
"55 434 LINE"
);
},
{
closed = 1;
nodes = (
"253 -14 OFFCURVE",
"321 43 OFFCURVE",
"344 126 CURVE",
"346 126 LINE",
"369 43 OFFCURVE",
"437 -14 OFFCURVE",
"508 -14 CURVE SMOOTH",
"572 -14 OFFCURVE",
"635 33 OFFCURVE",
"635 153 CURVE SMOOTH",
"635 339 OFFCURVE",
"482 467 OFFCURVE",
"345 467 CURVE SMOOTH",
"208 467 OFFCURVE",
"55 339 OFFCURVE",
"55 151 CURVE SMOOTH",
"55 33 OFFCURVE",
"117 -14 OFFCURVE",
"182 -14 CURVE SMOOTH"
);
},
{
closed = 1;
nodes = (
"138 71 OFFCURVE",
"104 114 OFFCURVE",
"104 181 CURVE SMOOTH",
"104 300 OFFCURVE",
"213 441 OFFCURVE",
"345 441 CURVE SMOOTH",
"477 441 OFFCURVE",
"586 300 OFFCURVE",
"586 180 CURVE SMOOTH",
"586 114 OFFCURVE",
"552 71 OFFCURVE",
"499 71 CURVE SMOOTH",
"429 71 OFFCURVE",
"364 145 OFFCURVE",
"350 221 CURVE",
"341 221 LINE",
"327 145 OFFCURVE",
"261 71 OFFCURVE",
"191 71 CURVE SMOOTH"
);
}
);
width = 690;
}
);
unicode = 0CA6;
userData = {
public.markColor = "0.97,1,0,1";
};
},
{
color = 4;
glyphname = knDHA;
lastChange = "2016-01-24 20:04:03 +0000";
layers = (
{
layerId = "034236B8-3FA8-43DA-9EDA-EFF269A687EC";
name = Regular;
paths = (
{
closed = 1;
nodes = (
"370 -220 OFFCURVE",
"395 -201 OFFCURVE",
"395 -161 CURVE SMOOTH",
"395 -117 OFFCURVE",
"366 -104 OFFCURVE",
"352 16 CURVE",
"336 16 LINE",
"323 -104 OFFCURVE",
"292 -117 OFFCURVE",
"292 -161 CURVE SMOOTH",
"292 -197 OFFCURVE",
"317 -220 OFFCURVE",
"344 -220 CURVE SMOOTH"
);
},
{
closed = 1;
nodes = (
"241 434 LINE",
"345 444 LINE",
"448 434 LINE",
"499 434 LINE SMOOTH",
"580 434 OFFCURVE",
"634 480 OFFCURVE",
"634 552 CURVE SMOOTH",
"634 607 OFFCURVE",
"603 648 OFFCURVE",
"560 664 CURVE",
"545 644 LINE",
"569 635 OFFCURVE",
"591 610 OFFCURVE",
"591 576 CURVE SMOOTH",
"591 536 OFFCURVE",
"560 509 OFFCURVE",
"499 509 CURVE SMOOTH",
"55 509 LINE",
"55 434 LINE"
);
},
{
closed = 1;
nodes = (
"253 -14 OFFCURVE",
"321 43 OFFCURVE",
"344 126 CURVE",
"346 126 LINE",
"369 43 OFFCURVE",
"437 -14 OFFCURVE",
"508 -14 CURVE SMOOTH",
"572 -14 OFFCURVE",
"635 33 OFFCURVE",
"635 153 CURVE SMOOTH",
"635 339 OFFCURVE",
"482 467 OFFCURVE",
"345 467 CURVE SMOOTH",
"208 467 OFFCURVE",
"55 339 OFFCURVE",
"55 151 CURVE SMOOTH",
"55 33 OFFCURVE",
"117 -14 OFFCURVE",
"182 -14 CURVE SMOOTH"
);
},
{
closed = 1;
nodes = (
"138 71 OFFCURVE",
"104 114 OFFCURVE",
"104 181 CURVE SMOOTH",
"104 300 OFFCURVE",
"213 441 OFFCURVE",
"345 441 CURVE SMOOTH",
"477 441 OFFCURVE",
"586 300 OFFCURVE",
"586 180 CURVE SMOOTH",
"586 114 OFFCURVE",
"552 71 OFFCURVE",
"499 71 CURVE SMOOTH",
"429 71 OFFCURVE",
"364 145 OFFCURVE",
"350 221 CURVE",
"341 221 LINE",
"327 145 OFFCURVE",
"261 71 OFFCURVE",
"191 71 CURVE SMOOTH"
);
}
);
width = 690;
}
);
leftMetricsKey = "=knDA";
rightMetricsKey = "=knDA";
unicode = 0CA7;
userData = {
public.markColor = "0.97,1,0,1";
};
},
{
color = 4;
glyphname = knNA;
lastChange = "2016-01-25 15:14:04 +0000";
layers = (
{
layerId = "034236B8-3FA8-43DA-9EDA-EFF269A687EC";
name = Regular;
paths = (
{
closed = 1;
nodes = (
"110 -66 OFFCURVE",
"181 -66 CURVE SMOOTH",
"198 -66 OFFCURVE",
"209 -57 OFFCURVE",
"209 -40 CURVE SMOOTH",
"209 -20 OFFCURVE",
"193 1 OFFCURVE",
"162 12 CURVE SMOOTH",
"117 27 OFFCURVE",
"85 73 OFFCURVE",
"85 122 CURVE SMOOTH",
"85 171 OFFCURVE",
"118 212 OFFCURVE",
"184 212 CURVE SMOOTH",
"259 212 OFFCURVE",
"278 155 OFFCURVE",
"297 98 CURVE SMOOTH",
"316 42 OFFCURVE",
"334 -14 OFFCURVE",
"406 -14 CURVE SMOOTH",
"496 -14 OFFCURVE",
"559 72 OFFCURVE",
"559 176 CURVE SMOOTH",
"559 295 OFFCURVE",
"483 399 OFFCURVE",
"348 437 CURVE",
"222 438 LINE",
"264 432 LINE",
"410 398 OFFCURVE",
"511 311 OFFCURVE",
"511 194 CURVE SMOOTH",
"511 116 OFFCURVE",
"468 71 OFFCURVE",
"411 71 CURVE SMOOTH",
"347 71 OFFCURVE",
"325 125 OFFCURVE",
"302 180 CURVE SMOOTH",
"278 237 OFFCURVE",
"255 294 OFFCURVE",
"185 294 CURVE SMOOTH",
"109 294 OFFCURVE",
"50 224 OFFCURVE",
"50 131 CURVE SMOOTH",
"50 46 OFFCURVE"
);
},
{
closed = 1;
nodes = (
"415 434 LINE SMOOTH",
"497 434 OFFCURVE",
"550 480 OFFCURVE",
"550 552 CURVE SMOOTH",
"550 607 OFFCURVE",
"519 648 OFFCURVE",
"476 664 CURVE",
"461 644 LINE",
"485 635 OFFCURVE",
"507 610 OFFCURVE",
"507 577 CURVE SMOOTH",
"507 537 OFFCURVE",
"476 509 OFFCURVE",
"415 509 CURVE SMOOTH",
"50 509 LINE",
"50 434 LINE"
);
}
);
width = 614;
}
);
unicode = 0CA8;
userData = {
public.markColor = "0.97,1,0,1";
};
},
{
color = 4;
glyphname = knPA;
lastChange = "2016-01-25 15:14:06 +0000";
layers = (
{
layerId = "034236B8-3FA8-43DA-9EDA-EFF269A687EC";
name = Regular;
paths = (
{
closed = 1;
nodes = (
"241 -14 OFFCURVE",
"316 43 OFFCURVE",
"339 126 CURVE",
"341 126 LINE",
"364 43 OFFCURVE",
"432 -14 OFFCURVE",
"501 -14 CURVE SMOOTH",
"592 -14 OFFCURVE",
"629 84 OFFCURVE",
"629 209 CURVE SMOOTH",
"629 291 OFFCURVE",
"614 394 OFFCURVE",
"552 394 CURVE SMOOTH",
"527 394 OFFCURVE",
"510 377 OFFCURVE",
"510 354 CURVE SMOOTH",
"510 343 OFFCURVE",
"514 333 OFFCURVE",
"523 325 CURVE SMOOTH",
"537 312 OFFCURVE",
"557 309 OFFCURVE",
"573 294 CURVE SMOOTH",
"589 277 OFFCURVE",
"599 250 OFFCURVE",
"599 211 CURVE SMOOTH",
"599 131 OFFCURVE",
"563 71 OFFCURVE",
"496 71 CURVE SMOOTH",
"422 71 OFFCURVE",
"358 145 OFFCURVE",
"344 221 CURVE",
"335 221 LINE",
"321 145 OFFCURVE",
"251 71 OFFCURVE",
"176 71 CURVE SMOOTH",
"125 71 OFFCURVE",
"90 104 OFFCURVE",
"90 155 CURVE SMOOTH",
"90 201 OFFCURVE",
"119 227 OFFCURVE",
"160 227 CURVE SMOOTH",
"186 227 OFFCURVE",
"209 216 OFFCURVE",
"222 193 CURVE",
"238 208 LINE",
"225 250 OFFCURVE",
"201 287 OFFCURVE",
"152 287 CURVE SMOOTH",
"93 287 OFFCURVE",
"50 232 OFFCURVE",
"50 148 CURVE SMOOTH",
"50 56 OFFCURVE",
"99 -14 OFFCURVE",
"174 -14 CURVE SMOOTH"
);
},
{
closed = 1;
nodes = (
"375 271 OFFCURVE",
"402 298 OFFCURVE",
"402 331 CURVE SMOOTH",
"402 363 OFFCURVE",
"375 390 OFFCURVE",
"342 390 CURVE SMOOTH",
"308 390 OFFCURVE",
"283 363 OFFCURVE",
"283 331 CURVE SMOOTH",
"283 298 OFFCURVE",
"308 271 OFFCURVE",
"342 271 CURVE SMOOTH"
);
},
{
closed = 1;
nodes = (
"493 434 LINE SMOOTH",
"574 434 OFFCURVE",
"628 480 OFFCURVE",
"628 552 CURVE SMOOTH",
"628 607 OFFCURVE",
"597 648 OFFCURVE",
"554 664 CURVE",
"539 644 LINE",
"563 635 OFFCURVE",
"585 610 OFFCURVE",
"585 576 CURVE SMOOTH",
"585 536 OFFCURVE",
"554 509 OFFCURVE",
"493 509 CURVE SMOOTH",
"50 509 LINE",
"50 434 LINE"
);
}
);
width = 684;
}
);
leftMetricsKey = "=knE";
unicode = 0CAA;
userData = {
public.markColor = "0.97,1,0,1";
};
},
{
color = 4;
glyphname = knPHA;
lastChange = "2016-01-25 15:14:07 +0000";
layers = (
{
layerId = "034236B8-3FA8-43DA-9EDA-EFF269A687EC";
name = Regular;
paths = (
{
closed = 1;
nodes = (
"365 -220 OFFCURVE",
"390 -201 OFFCURVE",
"390 -161 CURVE SMOOTH",
"390 -117 OFFCURVE",
"361 -104 OFFCURVE",
"347 16 CURVE",
"331 16 LINE",
"318 -104 OFFCURVE",
"287 -117 OFFCURVE",
"287 -161 CURVE SMOOTH",
"287 -197 OFFCURVE",
"312 -220 OFFCURVE",
"339 -220 CURVE SMOOTH"
);
},
{
closed = 1;
nodes = (
"241 -14 OFFCURVE",
"316 43 OFFCURVE",
"339 126 CURVE",
"341 126 LINE",
"364 43 OFFCURVE",
"432 -14 OFFCURVE",
"501 -14 CURVE SMOOTH",
"592 -14 OFFCURVE",
"629 84 OFFCURVE",
"629 209 CURVE SMOOTH",
"629 291 OFFCURVE",
"614 394 OFFCURVE",
"552 394 CURVE SMOOTH",
"527 394 OFFCURVE",
"510 377 OFFCURVE",
"510 354 CURVE SMOOTH",
"510 343 OFFCURVE",
"514 333 OFFCURVE",
"523 325 CURVE SMOOTH",
"537 312 OFFCURVE",
"557 309 OFFCURVE",
"573 294 CURVE SMOOTH",
"589 277 OFFCURVE",
"599 250 OFFCURVE",
"599 211 CURVE SMOOTH",
"599 131 OFFCURVE",
"563 71 OFFCURVE",
"496 71 CURVE SMOOTH",
"422 71 OFFCURVE",
"358 145 OFFCURVE",
"344 221 CURVE",
"335 221 LINE",
"321 145 OFFCURVE",
"251 71 OFFCURVE",
"176 71 CURVE SMOOTH",
"125 71 OFFCURVE",
"90 104 OFFCURVE",
"90 155 CURVE SMOOTH",
"90 201 OFFCURVE",
"119 227 OFFCURVE",
"160 227 CURVE SMOOTH",
"186 227 OFFCURVE",
"209 216 OFFCURVE",
"222 193 CURVE",
"238 208 LINE",
"225 250 OFFCURVE",
"201 287 OFFCURVE",
"152 287 CURVE SMOOTH",
"93 287 OFFCURVE",
"50 232 OFFCURVE",
"50 148 CURVE SMOOTH",
"50 56 OFFCURVE",
"99 -14 OFFCURVE",
"174 -14 CURVE SMOOTH"
);
},
{
closed = 1;
nodes = (
"375 271 OFFCURVE",
"402 298 OFFCURVE",
"402 331 CURVE SMOOTH",
"402 363 OFFCURVE",
"375 390 OFFCURVE",
"342 390 CURVE SMOOTH",
"308 390 OFFCURVE",
"283 363 OFFCURVE",
"283 331 CURVE SMOOTH",
"283 298 OFFCURVE",
"308 271 OFFCURVE",
"342 271 CURVE SMOOTH"
);
},
{
closed = 1;
nodes = (
"493 434 LINE SMOOTH",
"574 434 OFFCURVE",
"628 480 OFFCURVE",
"628 552 CURVE SMOOTH",
"628 607 OFFCURVE",
"597 648 OFFCURVE",
"554 664 CURVE",
"539 644 LINE",
"563 635 OFFCURVE",
"585 610 OFFCURVE",
"585 576 CURVE SMOOTH",
"585 536 OFFCURVE",
"554 509 OFFCURVE",
"493 509 CURVE SMOOTH",
"50 509 LINE",
"50 434 LINE"
);
}
);
width = 684;
}
);
leftMetricsKey = "=knE";
unicode = 0CAB;
userData = {
public.markColor = "0.97,1,0,1";
};
},
{
color = 4;
glyphname = knBA;
lastChange = "2016-01-25 15:10:13 +0000";
layers = (
{
layerId = "034236B8-3FA8-43DA-9EDA-EFF269A687EC";
name = Regular;
paths = (
{
closed = 1;
nodes = (
"640 -14 OFFCURVE",
"685 99 OFFCURVE",
"685 222 CURVE SMOOTH",
"685 395 OFFCURVE",
"590 513 OFFCURVE",
"519 513 CURVE SMOOTH",
"488 513 OFFCURVE",
"471 493 OFFCURVE",
"471 470 CURVE SMOOTH",
"471 451 OFFCURVE",
"483 435 OFFCURVE",
"499 430 CURVE SMOOTH",
"522 423 OFFCURVE",
"543 428 OFFCURVE",
"567 420 CURVE SMOOTH",
"604 407 OFFCURVE",
"650 324 OFFCURVE",
"650 235 CURVE SMOOTH",
"650 129 OFFCURVE",
"597 71 OFFCURVE",
"525 71 CURVE SMOOTH",
"451 71 OFFCURVE",
"385 146 OFFCURVE",
"372 221 CURVE",
"363 221 LINE",
"349 145 OFFCURVE",
"284 71 OFFCURVE",
"212 71 CURVE SMOOTH",
"158 71 OFFCURVE",
"131 114 OFFCURVE",
"131 152 CURVE SMOOTH",
"131 187 OFFCURVE",
"155 223 OFFCURVE",
"189 257 CURVE SMOOTH",
"230 298 OFFCURVE",
"278 349 OFFCURVE",
"278 407 CURVE SMOOTH",
"278 465 OFFCURVE",
"230 519 OFFCURVE",
"154 519 CURVE SMOOTH",
"79 519 OFFCURVE",
"40 464 OFFCURVE",
"40 406 CURVE SMOOTH",
"40 380 OFFCURVE",
"48 352 OFFCURVE",
"69 330 CURVE",
"89 345 LINE",
"82 360 OFFCURVE",
"79 372 OFFCURVE",
"79 385 CURVE SMOOTH",
"79 421 OFFCURVE",
"102 452 OFFCURVE",
"149 452 CURVE SMOOTH",
"191 452 OFFCURVE",
"225 427 OFFCURVE",
"225 385 CURVE SMOOTH",
"225 344 OFFCURVE",
"194 311 OFFCURVE",
"162 278 CURVE SMOOTH",
"123 238 OFFCURVE",
"80 193 OFFCURVE",
"80 122 CURVE SMOOTH",
"80 38 OFFCURVE",
"141 -14 OFFCURVE",
"207 -14 CURVE SMOOTH",
"276 -14 OFFCURVE",
"344 43 OFFCURVE",
"367 126 CURVE",
"369 126 LINE",
"392 43 OFFCURVE",
"460 -14 OFFCURVE",
"527 -14 CURVE SMOOTH"
);
}
);
width = 740;
}
);
unicode = 0CAC;
userData = {
public.markColor = "0.97,1,0,1";
};
},
{
color = 4;
glyphname = knBHA;
lastChange = "2016-01-25 15:10:16 +0000";
layers = (
{
layerId = "034236B8-3FA8-43DA-9EDA-EFF269A687EC";
name = Regular;
paths = (
{
closed = 1;
nodes = (
"395 -220 OFFCURVE",
"420 -201 OFFCURVE",
"420 -161 CURVE SMOOTH",
"420 -117 OFFCURVE",
"391 -104 OFFCURVE",
"377 16 CURVE",
"361 16 LINE",
"348 -104 OFFCURVE",
"317 -117 OFFCURVE",
"317 -161 CURVE SMOOTH",
"317 -197 OFFCURVE",
"342 -220 OFFCURVE",
"369 -220 CURVE SMOOTH"
);
},
{
closed = 1;
nodes = (
"552 434 LINE SMOOTH",
"633 434 OFFCURVE",
"687 480 OFFCURVE",
"687 552 CURVE SMOOTH",
"687 607 OFFCURVE",
"656 648 OFFCURVE",
"613 664 CURVE",
"598 644 LINE",
"622 635 OFFCURVE",
"644 610 OFFCURVE",
"644 576 CURVE SMOOTH",
"644 536 OFFCURVE",
"613 509 OFFCURVE",
"552 509 CURVE SMOOTH",
"361 509 LINE",
"361 434 LINE"
);
},
{
closed = 1;
nodes = (
"633 -14 OFFCURVE",
"687 84 OFFCURVE",
"687 189 CURVE SMOOTH",
"687 360 OFFCURVE",
"544 470 OFFCURVE",
"408 470 CURVE",
"398 434 LINE",
"550 424 OFFCURVE",
"649 301 OFFCURVE",
"649 195 CURVE SMOOTH",
"649 121 OFFCURVE",
"600 71 OFFCURVE",
"533 71 CURVE SMOOTH",
"451 71 OFFCURVE",
"385 146 OFFCURVE",
"372 221 CURVE",
"363 221 LINE",
"349 145 OFFCURVE",
"284 71 OFFCURVE",
"212 71 CURVE SMOOTH",
"158 71 OFFCURVE",
"131 114 OFFCURVE",
"131 152 CURVE SMOOTH",
"131 187 OFFCURVE",
"155 223 OFFCURVE",
"189 257 CURVE SMOOTH",
"230 298 OFFCURVE",
"278 349 OFFCURVE",
"278 407 CURVE SMOOTH",
"278 465 OFFCURVE",
"230 519 OFFCURVE",
"154 519 CURVE SMOOTH",
"79 519 OFFCURVE",
"40 464 OFFCURVE",
"40 406 CURVE SMOOTH",
"40 380 OFFCURVE",
"48 352 OFFCURVE",
"69 330 CURVE",
"89 345 LINE",
"82 360 OFFCURVE",
"79 372 OFFCURVE",
"79 385 CURVE SMOOTH",
"79 421 OFFCURVE",
"102 452 OFFCURVE",
"149 452 CURVE SMOOTH",
"191 452 OFFCURVE",
"225 427 OFFCURVE",
"225 385 CURVE SMOOTH",
"225 344 OFFCURVE",
"194 311 OFFCURVE",
"162 278 CURVE SMOOTH",
"123 238 OFFCURVE",
"80 193 OFFCURVE",
"80 122 CURVE SMOOTH",
"80 38 OFFCURVE",
"141 -14 OFFCURVE",
"207 -14 CURVE SMOOTH",
"276 -14 OFFCURVE",
"344 43 OFFCURVE",
"367 126 CURVE",
"369 126 LINE",
"392 43 OFFCURVE",
"460 -14 OFFCURVE",
"536 -14 CURVE SMOOTH"
);
}
);
width = 747;
}
);
leftMetricsKey = "=knBA";
rightMetricsKey = "=knBA+5";
unicode = 0CAD;
userData = {
public.markColor = "0.97,1,0,1";
};
},
{
color = 4;
glyphname = knMA;
lastChange = "2016-01-25 14:50:24 +0000";
layers = (
{
layerId = "034236B8-3FA8-43DA-9EDA-EFF269A687EC";
name = Regular;
paths = (
{
closed = 1;
nodes = (
"897 -14 OFFCURVE",
"977 95 OFFCURVE",
"977 242 CURVE SMOOTH",
"977 415 OFFCURVE",
"881 513 OFFCURVE",
"810 513 CURVE SMOOTH",
"779 513 OFFCURVE",
"762 493 OFFCURVE",
"762 470 CURVE SMOOTH",
"762 451 OFFCURVE",
"774 435 OFFCURVE",
"790 430 CURVE SMOOTH",
"813 423 OFFCURVE",
"837 428 OFFCURVE",
"858 420 CURVE SMOOTH",
"895 406 OFFCURVE",
"942 344 OFFCURVE",
"942 255 CURVE SMOOTH",
"942 137 OFFCURVE",
"872 71 OFFCURVE",
"786 71 CURVE SMOOTH",
"705 71 OFFCURVE",
"640 132 OFFCURVE",
"605 235 CURVE",
"609 129 LINE",
"645 45 OFFCURVE",
"711 -14 OFFCURVE",
"784 -14 CURVE SMOOTH"
);
},
{
closed = 1;
nodes = (
"241 -14 OFFCURVE",
"316 43 OFFCURVE",
"339 126 CURVE",
"341 126 LINE",
"364 43 OFFCURVE",
"433 -14 OFFCURVE",
"502 -14 CURVE SMOOTH",
"593 -14 OFFCURVE",
"631 84 OFFCURVE",
"631 178 CURVE SMOOTH",
"631 360 OFFCURVE",
"488 474 OFFCURVE",
"352 474 CURVE",
"342 434 LINE",
"494 424 OFFCURVE",
"593 311 OFFCURVE",
"593 195 CURVE SMOOTH",
"593 121 OFFCURVE",
"554 71 OFFCURVE",
"495 71 CURVE SMOOTH",
"423 71 OFFCURVE",
"358 145 OFFCURVE",
"344 221 CURVE",
"335 221 LINE",
"321 145 OFFCURVE",
"251 71 OFFCURVE",
"175 71 CURVE SMOOTH",
"125 71 OFFCURVE",
"90 104 OFFCURVE",
"90 155 CURVE SMOOTH",
"90 201 OFFCURVE",
"119 227 OFFCURVE",
"161 227 CURVE SMOOTH",
"186 227 OFFCURVE",
"211 217 OFFCURVE",
"222 193 CURVE",
"238 208 LINE",
"225 250 OFFCURVE",
"201 287 OFFCURVE",
"152 287 CURVE SMOOTH",
"93 287 OFFCURVE",
"50 232 OFFCURVE",
"50 147 CURVE SMOOTH",
"50 56 OFFCURVE",
"99 -14 OFFCURVE",
"174 -14 CURVE SMOOTH"
);
},
{
closed = 1;
nodes = (
"493 434 LINE SMOOTH",
"574 434 OFFCURVE",
"628 480 OFFCURVE",
"628 552 CURVE SMOOTH",
"628 607 OFFCURVE",
"597 648 OFFCURVE",
"554 664 CURVE",
"539 644 LINE",
"563 635 OFFCURVE",
"585 610 OFFCURVE",
"585 576 CURVE SMOOTH",
"585 536 OFFCURVE",
"554 509 OFFCURVE",
"493 509 CURVE SMOOTH",
"50 509 LINE",
"50 434 LINE"
);
}
);
width = 1037;
}
);
leftMetricsKey = "=knE";
rightMetricsKey = "=knmU";
unicode = 0CAE;
userData = {
public.markColor = "0.97,1,0,1";
};
},
{
color = 4;
glyphname = knYA;
lastChange = "2016-01-24 20:04:04 +0000";
layers = (
{
layerId = "034236B8-3FA8-43DA-9EDA-EFF269A687EC";
name = Regular;
paths = (
{
closed = 1;
nodes = (
"419 -14 OFFCURVE",
"510 99 OFFCURVE",
"510 250 CURVE SMOOTH",
"510 402 OFFCURVE",
"420 519 OFFCURVE",
"281 519 CURVE SMOOTH",
"142 519 OFFCURVE",
"50 402 OFFCURVE",
"50 250 CURVE SMOOTH",
"50 99 OFFCURVE",
"141 -14 OFFCURVE",
"280 -14 CURVE SMOOTH"
);
},
{
closed = 1;
nodes = (
"179 71 OFFCURVE",
"90 144 OFFCURVE",
"90 259 CURVE SMOOTH",
"90 369 OFFCURVE",
"170 441 OFFCURVE",
"281 441 CURVE SMOOTH",
"392 441 OFFCURVE",
"472 369 OFFCURVE",
"472 254 CURVE SMOOTH",
"472 144 OFFCURVE",
"381 71 OFFCURVE",
"280 71 CURVE SMOOTH"
);
},
{
closed = 1;
nodes = (
"750 -14 OFFCURVE",
"830 95 OFFCURVE",
"830 242 CURVE SMOOTH",
"830 415 OFFCURVE",
"734 509 OFFCURVE",
"663 509 CURVE SMOOTH",
"632 509 OFFCURVE",
"615 493 OFFCURVE",
"615 470 CURVE",
"683 434 LINE SMOOTH",
"730 411 OFFCURVE",
"795 344 OFFCURVE",
"795 255 CURVE SMOOTH",
"795 137 OFFCURVE",
"725 71 OFFCURVE",
"634 71 CURVE SMOOTH",
"568 71 OFFCURVE",
"520 105 OFFCURVE",
"483 207 CURVE",
"463 188 LINE",
"481 61 OFFCURVE",
"551 -14 OFFCURVE",
"640 -14 CURVE SMOOTH"
);
},
{
closed = 1;
nodes = (
"1086 -14 OFFCURVE",
"1166 95 OFFCURVE",
"1166 242 CURVE SMOOTH",
"1166 415 OFFCURVE",
"1070 513 OFFCURVE",
"999 513 CURVE SMOOTH",
"968 513 OFFCURVE",
"951 493 OFFCURVE",
"951 470 CURVE SMOOTH",
"951 451 OFFCURVE",
"963 435 OFFCURVE",
"982 429 CURVE SMOOTH",
"1002 423 OFFCURVE",
"1023 428 OFFCURVE",
"1047 420 CURVE SMOOTH",
"1084 407 OFFCURVE",
"1131 344 OFFCURVE",
"1131 255 CURVE SMOOTH",
"1131 137 OFFCURVE",
"1061 71 OFFCURVE",
"970 71 CURVE SMOOTH",
"904 71 OFFCURVE",
"851 105 OFFCURVE",
"814 207 CURVE",
"794 188 LINE",
"812 61 OFFCURVE",
"887 -14 OFFCURVE",
"976 -14 CURVE SMOOTH"
);
},
{
closed = 1;
nodes = (
"727 434 LINE SMOOTH",
"808 434 OFFCURVE",
"862 480 OFFCURVE",
"862 552 CURVE SMOOTH",
"862 607 OFFCURVE",
"831 648 OFFCURVE",
"788 664 CURVE",
"773 644 LINE",
"797 635 OFFCURVE",
"819 610 OFFCURVE",
"819 576 CURVE SMOOTH",
"819 536 OFFCURVE",
"788 509 OFFCURVE",
"727 509 CURVE SMOOTH",
"535 509 LINE",
"535 434 LINE"
);
}
);
width = 1221;
}
);
leftMetricsKey = "=knRA";
unicode = 0CAF;
userData = {
com.typemytype.robofont.layerData = {
bkgd = {
anchors = (
);
components = (
);
contours = (
);
lib = {
};
name = knYA;
unicodes = (
);
width = 1231;
};
};
public.markColor = "0.97,1,0,1";
};
},
{
color = 4;
glyphname = knRA;
lastChange = "2016-01-25 15:11:39 +0000";
layers = (
{
layerId = "034236B8-3FA8-43DA-9EDA-EFF269A687EC";
name = Regular;
paths = (
{
closed = 1;
nodes = (
"416 -14 OFFCURVE",
"510 86 OFFCURVE",
"510 226 CURVE SMOOTH",
"510 315 OFFCURVE",
"464 398 OFFCURVE",
"390 436 CURVE SMOOTH",
"358 453 OFFCURVE",
"321 461 OFFCURVE",
"280 461 CURVE SMOOTH",
"239 461 OFFCURVE",
"202 453 OFFCURVE",
"170 436 CURVE SMOOTH",
"96 398 OFFCURVE",
"50 315 OFFCURVE",
"50 226 CURVE SMOOTH",
"50 86 OFFCURVE",
"144 -14 OFFCURVE",
"280 -14 CURVE SMOOTH"
);
},
{
closed = 1;
nodes = (
"170 71 OFFCURVE",
"95 144 OFFCURVE",
"95 247 CURVE SMOOTH",
"95 348 OFFCURVE",
"179 433 OFFCURVE",
"280 433 CURVE SMOOTH",
"381 433 OFFCURVE",
"465 349 OFFCURVE",
"465 248 CURVE SMOOTH",
"465 145 OFFCURVE",
"389 71 OFFCURVE",
"280 71 CURVE SMOOTH"
);
},
{
closed = 1;
nodes = (
"213 434 LINE",
"279 451 LINE",
"343 434 LINE",
"375 434 LINE SMOOTH",
"456 434 OFFCURVE",
"510 480 OFFCURVE",
"510 552 CURVE SMOOTH",
"510 607 OFFCURVE",
"479 648 OFFCURVE",
"436 664 CURVE",
"421 644 LINE",
"445 635 OFFCURVE",
"467 610 OFFCURVE",
"467 576 CURVE SMOOTH",
"467 536 OFFCURVE",
"436 509 OFFCURVE",
"375 509 CURVE SMOOTH",
"50 509 LINE",
"50 434 LINE"
);
}
);
width = 560;
}
);
unicode = 0CB0;
userData = {
public.markColor = "0.97,1,0,1";
};
},
{
color = 4;
glyphname = knLA;
lastChange = "2016-01-25 15:14:15 +0000";
layers = (
{
layerId = "034236B8-3FA8-43DA-9EDA-EFF269A687EC";
name = Regular;
paths = (
{
closed = 1;
nodes = (
"552 -13 OFFCURVE",
"657 116 OFFCURVE",
"657 275 CURVE SMOOTH",
"657 416 OFFCURVE",
"572 514 OFFCURVE",
"504 514 CURVE SMOOTH",
"473 514 OFFCURVE",
"453 494 OFFCURVE",
"453 470 CURVE SMOOTH",
"453 452 OFFCURVE",
"465 436 OFFCURVE",
"481 431 CURVE SMOOTH",
"504 424 OFFCURVE",
"525 429 OFFCURVE",
"549 421 CURVE SMOOTH",
"586 408 OFFCURVE",
"622 365 OFFCURVE",
"622 287 CURVE SMOOTH",
"622 156 OFFCURVE",
"520 71 OFFCURVE",
"368 71 CURVE SMOOTH",
"199 71 OFFCURVE",
"100 172 OFFCURVE",
"100 301 CURVE SMOOTH",
"100 387 OFFCURVE",
"142 454 OFFCURVE",
"235 454 CURVE SMOOTH",
"273 454 OFFCURVE",
"307 440 OFFCURVE",
"307 401 CURVE SMOOTH",
"307 365 OFFCURVE",
"279 344 OFFCURVE",
"235 344 CURVE SMOOTH",
"190 344 OFFCURVE",
"159 365 OFFCURVE",
"159 408 CURVE SMOOTH",
"159 419 OFFCURVE",
"163 440 OFFCURVE",
"166 450 CURVE",
"135 429 LINE",
"132 407 OFFCURVE",
"131 394 OFFCURVE",
"131 381 CURVE SMOOTH",
"131 308 OFFCURVE",
"174 273 OFFCURVE",
"229 273 CURVE SMOOTH",
"295 273 OFFCURVE",
"337 325 OFFCURVE",
"337 394 CURVE SMOOTH",
"337 457 OFFCURVE",
"301 519 OFFCURVE",
"226 519 CURVE SMOOTH",
"128 519 OFFCURVE",
"60 414 OFFCURVE",
"60 283 CURVE SMOOTH",
"60 104 OFFCURVE",
"180 -14 OFFCURVE",
"357 -14 CURVE SMOOTH"
);
}
);
width = 717;
}
);
leftMetricsKey = "=|knmU";
rightMetricsKey = "=knmU";
unicode = 0CB2;
userData = {
public.markColor = "0.97,1,0,1";
};
},
{
color = 4;
glyphname = knVA;
lastChange = "2016-01-25 15:05:14 +0000";
layers = (
{
layerId = "034236B8-3FA8-43DA-9EDA-EFF269A687EC";
name = Regular;
paths = (
{
closed = 1;
nodes = (
"241 -14 OFFCURVE",
"310 43 OFFCURVE",
"333 126 CURVE",
"335 126 LINE",
"358 43 OFFCURVE",
"428 -14 OFFCURVE",
"497 -14 CURVE SMOOTH",
"588 -14 OFFCURVE",
"631 84 OFFCURVE",
"631 178 CURVE SMOOTH",
"631 360 OFFCURVE",
"488 474 OFFCURVE",
"352 474 CURVE",
"342 434 LINE",
"494 424 OFFCURVE",
"593 311 OFFCURVE",
"593 195 CURVE SMOOTH",
"593 121 OFFCURVE",
"549 71 OFFCURVE",
"492 71 CURVE SMOOTH",
"420 71 OFFCURVE",
"352 145 OFFCURVE",
"338 221 CURVE",
"329 221 LINE",
"315 145 OFFCURVE",
"251 71 OFFCURVE",
"175 71 CURVE SMOOTH",
"125 71 OFFCURVE",
"90 104 OFFCURVE",
"90 155 CURVE SMOOTH",
"90 204 OFFCURVE",
"122 227 OFFCURVE",
"164 227 CURVE SMOOTH",
"189 227 OFFCURVE",
"212 217 OFFCURVE",
"221 193 CURVE",
"237 208 LINE",
"226 250 OFFCURVE",
"202 287 OFFCURVE",
"152 287 CURVE SMOOTH",
"94 287 OFFCURVE",
"50 232 OFFCURVE",
"50 147 CURVE SMOOTH",
"50 56 OFFCURVE",
"99 -14 OFFCURVE",
"174 -14 CURVE SMOOTH"
);
},
{
closed = 1;
nodes = (
"493 434 LINE SMOOTH",
"574 434 OFFCURVE",
"628 480 OFFCURVE",
"628 552 CURVE SMOOTH",
"628 607 OFFCURVE",
"597 648 OFFCURVE",
"554 664 CURVE",
"539 644 LINE",
"563 635 OFFCURVE",
"585 610 OFFCURVE",
"585 576 CURVE SMOOTH",
"585 536 OFFCURVE",
"554 509 OFFCURVE",
"493 509 CURVE SMOOTH",
"50 509 LINE",
"50 434 LINE"
);
}
);
width = 686;
}
);
leftMetricsKey = "=knE";
unicode = 0CB5;
userData = {
public.markColor = "0.97,1,0,1";
};
},
{
color = 4;
glyphname = knSHA;
lastChange = "2016-01-25 15:14:18 +0000";
layers = (
{
layerId = "034236B8-3FA8-43DA-9EDA-EFF269A687EC";
name = Regular;
paths = (
{
closed = 1;
nodes = (
"418 -14 OFFCURVE",
"519 90 OFFCURVE",
"519 236 CURVE SMOOTH",
"519 380 OFFCURVE",
"416 470 OFFCURVE",
"272 470 CURVE SMOOTH",
"181 470 OFFCURVE",
"141 425 OFFCURVE",
"141 379 CURVE SMOOTH",
"141 342 OFFCURVE",
"167 308 OFFCURVE",
"212 308 CURVE SMOOTH",
"248 308 OFFCURVE",
"266 331 OFFCURVE",
"266 354 CURVE SMOOTH",
"266 375 OFFCURVE",
"250 393 OFFCURVE",
"228 393 CURVE SMOOTH",
"208 393 OFFCURVE",
"194 376 OFFCURVE",
"194 354 CURVE SMOOTH",
"194 351 OFFCURVE",
"193 347 OFFCURVE",
"189 347 CURVE SMOOTH",
"180 347 OFFCURVE",
"172 360 OFFCURVE",
"172 377 CURVE SMOOTH",
"172 412 OFFCURVE",
"206 439 OFFCURVE",
"245 439 CURVE SMOOTH",
"292 439 OFFCURVE",
"330 399 OFFCURVE",
"330 343 CURVE SMOOTH",
"330 273 OFFCURVE",
"271 261 OFFCURVE",
"209 261 CURVE SMOOTH",
"102 261 OFFCURVE",
"55 222 OFFCURVE",
"55 154 CURVE SMOOTH",
"55 66 OFFCURVE",
"133 -14 OFFCURVE",
"270 -14 CURVE SMOOTH"
);
},
{
closed = 1;
nodes = (
"165 71 OFFCURVE",
"102 126 OFFCURVE",
"102 178 CURVE SMOOTH",
"102 209 OFFCURVE",
"125 231 OFFCURVE",
"209 231 CURVE SMOOTH",
"322 231 OFFCURVE",
"362 274 OFFCURVE",
"362 340 CURVE SMOOTH",
"362 383 OFFCURVE",
"345 420 OFFCURVE",
"313 440 CURVE",
"394 435 OFFCURVE",
"469 373 OFFCURVE",
"469 257 CURVE SMOOTH",
"469 138 OFFCURVE",
"390 71 OFFCURVE",
"270 71 CURVE SMOOTH"
);
},
{
closed = 1;
nodes = (
"194 434 LINE",
"295 459 LINE",
"403 434 LINE",
"484 434 OFFCURVE",
"538 480 OFFCURVE",
"538 552 CURVE SMOOTH",
"538 607 OFFCURVE",
"507 648 OFFCURVE",
"464 664 CURVE",
"449 644 LINE",
"473 635 OFFCURVE",
"495 610 OFFCURVE",
"495 576 CURVE SMOOTH",
"495 536 OFFCURVE",
"464 509 OFFCURVE",
"403 509 CURVE SMOOTH",
"58 509 LINE",
"58 434 LINE"
);
}
);
width = 578;
}
);
unicode = 0CB6;
userData = {
public.markColor = "0.97,1,0,1";
};
},
{
color = 4;
glyphname = knSSA;
lastChange = "2016-01-25 15:14:20 +0000";
layers = (
{
layerId = "034236B8-3FA8-43DA-9EDA-EFF269A687EC";
name = Regular;
paths = (
{
closed = 1;
nodes = (
"370 -220 OFFCURVE",
"395 -201 OFFCURVE",
"395 -161 CURVE SMOOTH",
"395 -117 OFFCURVE",
"366 -104 OFFCURVE",
"352 16 CURVE",
"336 16 LINE",
"323 -104 OFFCURVE",
"292 -117 OFFCURVE",
"292 -161 CURVE SMOOTH",
"292 -197 OFFCURVE",
"317 -220 OFFCURVE",
"344 -220 CURVE SMOOTH"
);
},
{
closed = 1;
nodes = (
"246 -14 OFFCURVE",
"321 43 OFFCURVE",
"344 126 CURVE",
"346 126 LINE",
"369 43 OFFCURVE",
"437 -14 OFFCURVE",
"506 -14 CURVE SMOOTH",
"597 -14 OFFCURVE",
"634 84 OFFCURVE",
"634 209 CURVE SMOOTH",
"634 291 OFFCURVE",
"619 394 OFFCURVE",
"557 394 CURVE SMOOTH",
"532 394 OFFCURVE",
"515 377 OFFCURVE",
"515 354 CURVE SMOOTH",
"515 343 OFFCURVE",
"519 333 OFFCURVE",
"528 325 CURVE SMOOTH",
"542 312 OFFCURVE",
"562 309 OFFCURVE",
"578 294 CURVE SMOOTH",
"594 277 OFFCURVE",
"604 250 OFFCURVE",
"604 211 CURVE SMOOTH",
"604 131 OFFCURVE",
"568 71 OFFCURVE",
"501 71 CURVE SMOOTH",
"427 71 OFFCURVE",
"363 145 OFFCURVE",
"349 221 CURVE",
"340 221 LINE",
"326 145 OFFCURVE",
"256 71 OFFCURVE",
"181 71 CURVE SMOOTH",
"130 71 OFFCURVE",
"95 104 OFFCURVE",
"95 155 CURVE SMOOTH",
"95 201 OFFCURVE",
"124 227 OFFCURVE",
"165 227 CURVE SMOOTH",
"191 227 OFFCURVE",
"214 216 OFFCURVE",
"227 193 CURVE",
"243 208 LINE",
"230 250 OFFCURVE",
"206 287 OFFCURVE",
"157 287 CURVE SMOOTH",
"98 287 OFFCURVE",
"55 232 OFFCURVE",
"55 148 CURVE SMOOTH",
"55 56 OFFCURVE",
"104 -14 OFFCURVE",
"179 -14 CURVE SMOOTH"
);
},
{
closed = 1;
nodes = (
"380 271 OFFCURVE",
"407 298 OFFCURVE",
"407 331 CURVE SMOOTH",
"407 363 OFFCURVE",
"380 390 OFFCURVE",
"347 390 CURVE SMOOTH",
"313 390 OFFCURVE",
"288 363 OFFCURVE",
"288 331 CURVE SMOOTH",
"288 298 OFFCURVE",
"313 271 OFFCURVE",
"347 271 CURVE SMOOTH"
);
},
{
closed = 1;
nodes = (
"498 434 LINE SMOOTH",
"579 434 OFFCURVE",
"633 480 OFFCURVE",
"633 552 CURVE SMOOTH",
"633 607 OFFCURVE",
"602 648 OFFCURVE",
"559 664 CURVE",
"544 644 LINE",
"568 635 OFFCURVE",
"590 610 OFFCURVE",
"590 576 CURVE SMOOTH",
"590 536 OFFCURVE",
"559 509 OFFCURVE",
"498 509 CURVE SMOOTH",
"55 509 LINE",
"55 434 LINE"
);
},
{
closed = 1;
nodes = (
"696 -86 OFFCURVE",
"711 -70 OFFCURVE",
"711 -48 CURVE SMOOTH",
"711 -35 OFFCURVE",
"706 -25 OFFCURVE",
"697 -14 CURVE SMOOTH",
"676 11 OFFCURVE",
"631 41 OFFCURVE",
"591 87 CURVE SMOOTH",
"442 260 LINE",
"421 242 LINE",
"562 61 LINE SMOOTH",
"598 14 OFFCURVE",
"615 -38 OFFCURVE",
"637 -65 CURVE SMOOTH",
"647 -78 OFFCURVE",
"658 -86 OFFCURVE",
"674 -86 CURVE SMOOTH"
);
}
);
width = 721;
}
);
unicode = 0CB7;
userData = {
public.markColor = "0.97,1,0,1";
};
},
{
color = 4;
glyphname = knSA;
lastChange = "2016-01-25 15:14:22 +0000";
layers = (
{
layerId = "034236B8-3FA8-43DA-9EDA-EFF269A687EC";
name = Regular;
paths = (
{
closed = 1;
nodes = (
"100 120 OFFCURVE",
"152 170 OFFCURVE",
"218 170 CURVE SMOOTH",
"365 170 OFFCURVE",
"387 -14 OFFCURVE",
"498 -14 CURVE SMOOTH",
"577 -14 OFFCURVE",
"610 62 OFFCURVE",
"610 150 CURVE SMOOTH",
"610 237 OFFCURVE",
"581 319 OFFCURVE",
"521 377 CURVE",
"498 360 LINE",
"540 310 OFFCURVE",
"566 249 OFFCURVE",
"566 188 CURVE SMOOTH",
"566 114 OFFCURVE",
"536 71 OFFCURVE",
"482 71 CURVE SMOOTH",
"369 71 OFFCURVE",
"352 247 OFFCURVE",
"219 247 CURVE SMOOTH",
"124 247 OFFCURVE",
"64 144 OFFCURVE",
"64 -6 CURVE",
"93 -14 LINE"
);
},
{
closed = 1;
nodes = (
"345 288 OFFCURVE",
"367 314 OFFCURVE",
"367 347 CURVE SMOOTH",
"367 380 OFFCURVE",
"345 404 OFFCURVE",
"309 404 CURVE SMOOTH",
"273 404 OFFCURVE",
"251 380 OFFCURVE",
"251 347 CURVE SMOOTH",
"251 314 OFFCURVE",
"273 288 OFFCURVE",
"309 288 CURVE SMOOTH"
);
},
{
closed = 1;
nodes = (
"479 434 LINE SMOOTH",
"560 434 OFFCURVE",
"614 480 OFFCURVE",
"614 552 CURVE SMOOTH",
"614 607 OFFCURVE",
"583 648 OFFCURVE",
"540 664 CURVE",
"525 644 LINE",
"549 635 OFFCURVE",
"571 610 OFFCURVE",
"571 576 CURVE SMOOTH",
"571 536 OFFCURVE",
"540 509 OFFCURVE",
"479 509 CURVE SMOOTH",
"45 509 LINE",
"45 434 LINE"
);
}
);
width = 664;
}
);
unicode = 0CB8;
userData = {
public.markColor = "0.97,1,0,1";
};
},
{
color = 4;
glyphname = knHA;
lastChange = "2016-01-25 15:14:24 +0000";
layers = (
{
layerId = "034236B8-3FA8-43DA-9EDA-EFF269A687EC";
name = Regular;
paths = (
{
closed = 1;
nodes = (
"533 434 LINE SMOOTH",
"614 434 OFFCURVE",
"668 480 OFFCURVE",
"668 552 CURVE SMOOTH",
"668 607 OFFCURVE",
"637 648 OFFCURVE",
"594 664 CURVE",
"579 644 LINE",
"603 635 OFFCURVE",
"625 610 OFFCURVE",
"625 576 CURVE SMOOTH",
"625 536 OFFCURVE",
"594 509 OFFCURVE",
"533 509 CURVE SMOOTH",
"55 509 LINE",
"55 434 LINE"
);
},
{
closed = 1;
nodes = (
"292 -14 OFFCURVE",
"342 32 OFFCURVE",
"368 106 CURVE",
"365 247 LINE",
"338 302 OFFCURVE",
"296 340 OFFCURVE",
"221 340 CURVE SMOOTH",
"126 340 OFFCURVE",
"55 266 OFFCURVE",
"55 162 CURVE SMOOTH",
"55 64 OFFCURVE",
"126 -14 OFFCURVE",
"221 -14 CURVE SMOOTH"
);
},
{
closed = 1;
nodes = (
"159 71 OFFCURVE",
"105 113 OFFCURVE",
"105 187 CURVE SMOOTH",
"105 256 OFFCURVE",
"159 302 OFFCURVE",
"221 302 CURVE SMOOTH",
"289 302 OFFCURVE",
"341 259 OFFCURVE",
"341 187 CURVE SMOOTH",
"341 113 OFFCURVE",
"288 71 OFFCURVE",
"221 71 CURVE SMOOTH"
);
},
{
closed = 1;
nodes = (
"380 381 OFFCURVE",
"345 448 OFFCURVE",
"229 470 CURVE",
"229 435 LINE",
"311 427 OFFCURVE",
"340 363 OFFCURVE",
"340 269 CURVE",
"380 234 LINE"
);
},
{
closed = 1;
nodes = (
"598 -14 OFFCURVE",
"669 64 OFFCURVE",
"669 162 CURVE SMOOTH",
"669 266 OFFCURVE",
"598 340 OFFCURVE",
"503 340 CURVE SMOOTH",
"428 340 OFFCURVE",
"386 302 OFFCURVE",
"359 247 CURVE",
"356 106 LINE",
"382 32 OFFCURVE",
"431 -14 OFFCURVE",
"503 -14 CURVE SMOOTH"
);
},
{
closed = 1;
nodes = (
"435 71 OFFCURVE",
"383 113 OFFCURVE",
"383 187 CURVE SMOOTH",
"383 259 OFFCURVE",
"435 302 OFFCURVE",
"497 302 CURVE SMOOTH",
"565 302 OFFCURVE",
"619 256 OFFCURVE",
"619 187 CURVE SMOOTH",
"619 113 OFFCURVE",
"564 71 OFFCURVE",
"497 71 CURVE SMOOTH"
);
}
);
width = 724;
}
);
unicode = 0CB9;
userData = {
public.markColor = "0.97,1,0,1";
};
},
{
color = 4;
glyphname = knRRA;
lastChange = "2016-01-25 14:56:10 +0000";
layers = (
{
layerId = "034236B8-3FA8-43DA-9EDA-EFF269A687EC";
name = Regular;
paths = (
{
closed = 1;
nodes = (
"313 -14 OFFCURVE",
"377 43 OFFCURVE",
"400 126 CURVE",
"402 126 LINE",
"425 43 OFFCURVE",
"495 -14 OFFCURVE",
"572 -14 CURVE SMOOTH",
"671 -14 OFFCURVE",
"748 82 OFFCURVE",
"748 243 CURVE SMOOTH",
"748 392 OFFCURVE",
"680 519 OFFCURVE",
"578 519 CURVE SMOOTH",
"507 519 OFFCURVE",
"471 457 OFFCURVE",
"471 394 CURVE SMOOTH",
"471 325 OFFCURVE",
"513 273 OFFCURVE",
"576 273 CURVE",
"576 344 LINE",
"529 344 OFFCURVE",
"501 365 OFFCURVE",
"501 400 CURVE SMOOTH",
"501 439 OFFCURVE",
"535 454 OFFCURVE",
"573 454 CURVE SMOOTH",
"666 454 OFFCURVE",
"708 365 OFFCURVE",
"708 265 CURVE SMOOTH",
"708 149 OFFCURVE",
"651 71 OFFCURVE",
"567 71 CURVE SMOOTH",
"485 71 OFFCURVE",
"418 146 OFFCURVE",
"405 221 CURVE",
"396 221 LINE",
"382 145 OFFCURVE",
"318 71 OFFCURVE",
"236 71 CURVE SMOOTH",
"152 71 OFFCURVE",
"95 149 OFFCURVE",
"95 266 CURVE SMOOTH",
"95 365 OFFCURVE",
"137 454 OFFCURVE",
"230 454 CURVE SMOOTH",
"268 454 OFFCURVE",
"302 439 OFFCURVE",
"302 400 CURVE SMOOTH",
"302 365 OFFCURVE",
"274 344 OFFCURVE",
"227 344 CURVE",
"227 273 LINE",
"290 273 OFFCURVE",
"332 325 OFFCURVE",
"332 394 CURVE SMOOTH",
"332 457 OFFCURVE",
"296 519 OFFCURVE",
"225 519 CURVE SMOOTH",
"123 519 OFFCURVE",
"55 392 OFFCURVE",
"55 242 CURVE SMOOTH",
"55 82 OFFCURVE",
"132 -14 OFFCURVE",
"234 -14 CURVE SMOOTH"
);
},
{
closed = 1;
nodes = (
"626 273 LINE",
"626 344 LINE",
"178 344 LINE",
"178 273 LINE"
);
}
);
width = 803;
}
);
leftMetricsKey = "=knCHA";
rightMetricsKey = "=knCHA";
unicode = 0CB1;
userData = {
public.markColor = "0.97,1,0,1";
};
},
{
color = 4;
glyphname = knLLA;
lastChange = "2016-01-25 15:10:28 +0000";
layers = (
{
layerId = "034236B8-3FA8-43DA-9EDA-EFF269A687EC";
name = Regular;
paths = (
{
closed = 1;
nodes = (
"383 -14 OFFCURVE",
"427 34 OFFCURVE",
"427 103 CURVE SMOOTH",
"427 205 OFFCURVE",
"330 225 OFFCURVE",
"236 245 CURVE SMOOTH",
"149 263 OFFCURVE",
"65 280 OFFCURVE",
"65 356 CURVE SMOOTH",
"65 422 OFFCURVE",
"131 454 OFFCURVE",
"194 454 CURVE SMOOTH",
"250 454 OFFCURVE",
"265 431 OFFCURVE",
"265 412 CURVE SMOOTH",
"265 390 OFFCURVE",
"245 373 OFFCURVE",
"206 373 CURVE SMOOTH",
"163 373 OFFCURVE",
"143 394 OFFCURVE",
"143 427 CURVE SMOOTH",
"143 450 OFFCURVE",
"151 468 OFFCURVE",
"155 477 CURVE",
"131 482 LINE",
"119 460 OFFCURVE",
"113 436 OFFCURVE",
"113 410 CURVE SMOOTH",
"113 350 OFFCURVE",
"149 310 OFFCURVE",
"205 310 CURVE SMOOTH",
"271 310 OFFCURVE",
"295 363 OFFCURVE",
"295 411 CURVE SMOOTH",
"295 467 OFFCURVE",
"262 519 OFFCURVE",
"180 519 CURVE SMOOTH",
"95 519 OFFCURVE",
"30 460 OFFCURVE",
"30 363 CURVE SMOOTH",
"30 204 OFFCURVE",
"169 182 OFFCURVE",
"275 166 CURVE SMOOTH",
"339 156 OFFCURVE",
"391 148 OFFCURVE",
"391 112 CURVE SMOOTH",
"391 83 OFFCURVE",
"358 71 OFFCURVE",
"320 71 CURVE SMOOTH",
"278 71 OFFCURVE",
"249 85 OFFCURVE",
"249 113 CURVE SMOOTH",
"249 151 OFFCURVE",
"305 170 OFFCURVE",
"370 192 CURVE SMOOTH",
"458 222 OFFCURVE",
"563 257 OFFCURVE",
"563 354 CURVE SMOOTH",
"563 434 OFFCURVE",
"489 471 OFFCURVE",
"428 471 CURVE",
"419 434 LINE",
"489 434 OFFCURVE",
"526 400 OFFCURVE",
"526 353 CURVE SMOOTH",
"526 285 OFFCURVE",
"448 257 OFFCURVE",
"369 229 CURVE SMOOTH",
"286 199 OFFCURVE",
"200 168 OFFCURVE",
"200 87 CURVE SMOOTH",
"200 28 OFFCURVE",
"245 -14 OFFCURVE",
"311 -14 CURVE SMOOTH"
);
},
{
closed = 1;
nodes = (
"465 434 LINE SMOOTH",
"546 434 OFFCURVE",
"600 480 OFFCURVE",
"600 552 CURVE SMOOTH",
"600 607 OFFCURVE",
"569 648 OFFCURVE",
"526 664 CURVE",
"511 644 LINE",
"535 635 OFFCURVE",
"557 610 OFFCURVE",
"557 576 CURVE SMOOTH",
"557 536 OFFCURVE",
"526 509 OFFCURVE",
"465 509 CURVE SMOOTH",
"384 509 LINE",
"384 434 LINE"
);
}
);
width = 610;
}
);
unicode = 0CB3;
userData = {
public.markColor = "0.97,1,0,1";
};
},
{
color = 4;
glyphname = knLLLA;
lastChange = "2016-01-25 14:50:16 +0000";
layers = (
{
layerId = "034236B8-3FA8-43DA-9EDA-EFF269A687EC";
name = Regular;
paths = (
{
closed = 1;
nodes = (
"313 -14 OFFCURVE",
"377 43 OFFCURVE",
"400 126 CURVE",
"402 126 LINE",
"425 43 OFFCURVE",
"495 -14 OFFCURVE",
"571 -14 CURVE SMOOTH",
"671 -14 OFFCURVE",
"748 82 OFFCURVE",
"748 254 CURVE SMOOTH",
"748 392 OFFCURVE",
"680 519 OFFCURVE",
"578 519 CURVE SMOOTH",
"507 519 OFFCURVE",
"471 457 OFFCURVE",
"471 394 CURVE SMOOTH",
"471 325 OFFCURVE",
"513 273 OFFCURVE",
"580 273 CURVE SMOOTH",
"634 273 OFFCURVE",
"677 308 OFFCURVE",
"677 381 CURVE SMOOTH",
"677 394 OFFCURVE",
"676 407 OFFCURVE",
"673 429 CURVE",
"642 450 LINE",
"645 440 OFFCURVE",
"649 419 OFFCURVE",
"649 408 CURVE SMOOTH",
"649 365 OFFCURVE",
"618 344 OFFCURVE",
"574 344 CURVE SMOOTH",
"529 344 OFFCURVE",
"501 365 OFFCURVE",
"501 401 CURVE SMOOTH",
"501 440 OFFCURVE",
"535 454 OFFCURVE",
"572 454 CURVE SMOOTH",
"666 454 OFFCURVE",
"708 365 OFFCURVE",
"708 265 CURVE SMOOTH",
"708 149 OFFCURVE",
"651 71 OFFCURVE",
"567 71 CURVE SMOOTH",
"485 71 OFFCURVE",
"418 146 OFFCURVE",
"405 221 CURVE",
"396 221 LINE",
"382 145 OFFCURVE",
"318 71 OFFCURVE",
"236 71 CURVE SMOOTH",
"152 71 OFFCURVE",
"95 149 OFFCURVE",
"95 266 CURVE SMOOTH",
"95 365 OFFCURVE",
"137 454 OFFCURVE",
"230 454 CURVE SMOOTH",
"268 454 OFFCURVE",
"302 440 OFFCURVE",
"302 401 CURVE SMOOTH",
"302 365 OFFCURVE",
"274 344 OFFCURVE",
"230 344 CURVE SMOOTH",
"185 344 OFFCURVE",
"154 365 OFFCURVE",
"154 408 CURVE SMOOTH",
"154 419 OFFCURVE",
"158 440 OFFCURVE",
"161 450 CURVE",
"130 429 LINE",
"127 407 OFFCURVE",
"126 394 OFFCURVE",
"126 381 CURVE SMOOTH",
"126 308 OFFCURVE",
"169 273 OFFCURVE",
"224 273 CURVE SMOOTH",
"290 273 OFFCURVE",
"332 325 OFFCURVE",
"332 394 CURVE SMOOTH",
"332 457 OFFCURVE",
"296 519 OFFCURVE",
"225 519 CURVE SMOOTH",
"123 519 OFFCURVE",
"55 392 OFFCURVE",
"55 249 CURVE SMOOTH",
"55 82 OFFCURVE",
"132 -14 OFFCURVE",
"234 -14 CURVE SMOOTH"
);
}
);
width = 803;
}
);
leftMetricsKey = "=knCHA";
rightMetricsKey = "=knCHA";
unicode = 0CDE;
userData = {
public.markColor = "0.97,1,0,1";
};
},
{
color = 4;
glyphname = knAnusvara;
lastChange = "2016-01-25 15:12:10 +0000";
layers = (
{
layerId = "034236B8-3FA8-43DA-9EDA-EFF269A687EC";
name = Regular;
paths = (
{
closed = 1;
nodes = (
"378 -14 OFFCURVE",
"474 109 OFFCURVE",
"474 250 CURVE SMOOTH",
"474 392 OFFCURVE",
"379 519 OFFCURVE",
"263 519 CURVE SMOOTH",
"146 519 OFFCURVE",
"50 392 OFFCURVE",
"50 250 CURVE SMOOTH",
"50 109 OFFCURVE",
"146 -14 OFFCURVE",
"262 -14 CURVE SMOOTH"
);
},
{
closed = 1;
nodes = (
"177 71 OFFCURVE",
"87 144 OFFCURVE",
"87 259 CURVE SMOOTH",
"87 369 OFFCURVE",
"168 441 OFFCURVE",
"263 441 CURVE SMOOTH",
"357 441 OFFCURVE",
"438 369 OFFCURVE",
"438 254 CURVE SMOOTH",
"438 144 OFFCURVE",
"347 71 OFFCURVE",
"262 71 CURVE SMOOTH"
);
}
);
width = 524;
}
);
unicode = 0C82;
userData = {
public.markColor = "0.97,1,0,1";
};
},
{
color = 4;
glyphname = knCandrabindu;
lastChange = "2016-01-17 18:56:06 +0000";
layers = (
{
layerId = "034236B8-3FA8-43DA-9EDA-EFF269A687EC";
name = Regular;
paths = (
{
closed = 1;
nodes = (
"93 651 OFFCURVE",
"152 714 OFFCURVE",
"153 807 CURVE",
"123 807 LINE",
"113 747 OFFCURVE",
"75 709 OFFCURVE",
"1 709 CURVE SMOOTH",
"-72 709 OFFCURVE",
"-109 747 OFFCURVE",
"-120 807 CURVE",
"-150 807 LINE",
"-147 714 OFFCURVE",
"-89 651 OFFCURVE",
"1 651 CURVE SMOOTH"
);
},
{
closed = 1;
nodes = (
"27 819 OFFCURVE",
"47 839 OFFCURVE",
"47 866 CURVE SMOOTH",
"47 895 OFFCURVE",
"27 914 OFFCURVE",
"0 914 CURVE SMOOTH",
"-28 914 OFFCURVE",
"-48 895 OFFCURVE",
"-48 866 CURVE SMOOTH",
"-48 839 OFFCURVE",
"-28 819 OFFCURVE",
"0 819 CURVE SMOOTH"
);
}
);
width = 3;
}
);
unicode = 0C81;
userData = {
public.markColor = "0.97,1,0,1";
};
},
{
color = 4;
glyphname = knVisarga;
lastChange = "2016-01-17 18:56:06 +0000";
layers = (
{
layerId = "034236B8-3FA8-43DA-9EDA-EFF269A687EC";
name = Regular;
paths = (
{
closed = 1;
nodes = (
"237 -14 OFFCURVE",
"279 35 OFFCURVE",
"279 93 CURVE SMOOTH",
"279 151 OFFCURVE",
"237 200 OFFCURVE",
"184 200 CURVE SMOOTH",
"132 200 OFFCURVE",
"90 151 OFFCURVE",
"90 93 CURVE SMOOTH",
"90 35 OFFCURVE",
"132 -14 OFFCURVE",
"184 -14 CURVE SMOOTH"
);
},
{
closed = 1;
nodes = (
"152 34 OFFCURVE",
"125 59 OFFCURVE",
"125 93 CURVE SMOOTH",
"125 126 OFFCURVE",
"152 153 OFFCURVE",
"184 153 CURVE SMOOTH",
"217 153 OFFCURVE",
"244 126 OFFCURVE",
"244 93 CURVE SMOOTH",
"244 59 OFFCURVE",
"217 34 OFFCURVE",
"184 34 CURVE SMOOTH"
);
},
{
closed = 1;
nodes = (
"237 271 OFFCURVE",
"279 319 OFFCURVE",
"279 377 CURVE SMOOTH",
"279 436 OFFCURVE",
"237 484 OFFCURVE",
"184 484 CURVE SMOOTH",
"132 484 OFFCURVE",
"90 436 OFFCURVE",
"90 377 CURVE SMOOTH",
"90 319 OFFCURVE",
"132 271 OFFCURVE",
"184 271 CURVE SMOOTH"
);
},
{
closed = 1;
nodes = (
"152 318 OFFCURVE",
"125 344 OFFCURVE",
"125 377 CURVE SMOOTH",
"125 410 OFFCURVE",
"152 437 OFFCURVE",
"184 437 CURVE SMOOTH",
"217 437 OFFCURVE",
"244 410 OFFCURVE",
"244 377 CURVE SMOOTH",
"244 344 OFFCURVE",
"217 318 OFFCURVE",
"184 318 CURVE SMOOTH"
);
}
);
width = 369;
}
);
unicode = 0C83;
userData = {
public.markColor = "0.97,1,0,1";
};
},
{
color = 4;
glyphname = knNukta;
lastChange = "2016-01-17 18:56:06 +0000";
layers = (
{
layerId = "034236B8-3FA8-43DA-9EDA-EFF269A687EC";
name = Regular;
paths = (
{
closed = 1;
nodes = (
"372 -177 OFFCURVE",
"396 -152 OFFCURVE",
"396 -120 CURVE SMOOTH",
"396 -87 OFFCURVE",
"372 -63 OFFCURVE",
"339 -63 CURVE SMOOTH",
"307 -63 OFFCURVE",
"282 -87 OFFCURVE",
"282 -120 CURVE SMOOTH",
"282 -152 OFFCURVE",
"307 -177 OFFCURVE",
"339 -177 CURVE SMOOTH"
);
},
{
closed = 1;
nodes = (
"170 -177 OFFCURVE",
"194 -152 OFFCURVE",
"194 -120 CURVE SMOOTH",
"194 -87 OFFCURVE",
"170 -63 OFFCURVE",
"137 -63 CURVE SMOOTH",
"105 -63 OFFCURVE",
"80 -87 OFFCURVE",
"80 -120 CURVE SMOOTH",
"80 -152 OFFCURVE",
"105 -177 OFFCURVE",
"137 -177 CURVE SMOOTH"
);
}
);
width = 476;
}
);
unicode = 0CBC;
userData = {
public.markColor = "0.97,1,0,1";
};
},
{
color = 4;
glyphname = knAvagraha;
lastChange = "2016-01-17 18:56:06 +0000";
layers = (
{
layerId = "034236B8-3FA8-43DA-9EDA-EFF269A687EC";
name = Regular;
paths = (
{
closed = 1;
nodes = (
"289 -14 OFFCURVE",
"361 40 OFFCURVE",
"361 123 CURVE SMOOTH",
"361 284 OFFCURVE",
"90 288 OFFCURVE",
"90 384 CURVE SMOOTH",
"90 411 OFFCURVE",
"112 437 OFFCURVE",
"164 437 CURVE SMOOTH",
"356 437 LINE",
"356 519 LINE",
"161 519 LINE SMOOTH",
"83 519 OFFCURVE",
"38 467 OFFCURVE",
"38 404 CURVE SMOOTH",
"38 380 OFFCURVE",
"44 354 OFFCURVE",
"63 331 CURVE SMOOTH",
"126 258 OFFCURVE",
"311 229 OFFCURVE",
"311 150 CURVE SMOOTH",
"311 116 OFFCURVE",
"278 93 OFFCURVE",
"215 93 CURVE SMOOTH",
"138 93 OFFCURVE",
"85 126 OFFCURVE",
"59 178 CURVE",
"35 154 LINE",
"47 45 OFFCURVE",
"115 -14 OFFCURVE",
"206 -14 CURVE SMOOTH"
);
}
);
width = 406;
}
);
unicode = 0CBD;
userData = {
public.markColor = "0.97,1,0,1";
};
},
{
color = 4;
glyphname = knZero;
lastChange = "2016-01-17 18:56:06 +0000";
layers = (
{
layerId = "034236B8-3FA8-43DA-9EDA-EFF269A687EC";
name = Regular;
paths = (
{
closed = 1;
nodes = (
"365 71 OFFCURVE",
"439 117 OFFCURVE",
"439 251 CURVE SMOOTH",
"439 372 OFFCURVE",
"376 434 OFFCURVE",
"267 434 CURVE SMOOTH",
"158 434 OFFCURVE",
"95 372 OFFCURVE",
"95 251 CURVE SMOOTH",
"95 117 OFFCURVE",
"169 71 OFFCURVE",
"267 71 CURVE SMOOTH"
);
},
{
closed = 1;
nodes = (
"152 -14 OFFCURVE",
"55 85 OFFCURVE",
"55 251 CURVE SMOOTH",
"55 411 OFFCURVE",
"141 519 OFFCURVE",
"267 519 CURVE SMOOTH",
"393 519 OFFCURVE",
"479 411 OFFCURVE",
"479 251 CURVE SMOOTH",
"479 85 OFFCURVE",
"382 -14 OFFCURVE",
"267 -14 CURVE SMOOTH"
);
}
);
width = 534;
}
);
unicode = 0CE6;
userData = {
public.markColor = "0.97,1,0,1";
};
},
{
color = 4;
glyphname = knOne;
lastChange = "2016-01-17 18:56:06 +0000";
layers = (
{
background = {
paths = (
{
closed = 1;
nodes = (
"376 434 OFFCURVE",
"439 372 OFFCURVE",
"439 251 CURVE SMOOTH",
"439 137 OFFCURVE",
"387 106 OFFCURVE",
"314 57 CURVE",
"362 -14 LINE",
"445 65 OFFCURVE",
"479 138 OFFCURVE",
"479 249 CURVE SMOOTH",
"479 411 OFFCURVE",
"393 519 OFFCURVE",
"267 519 CURVE",
"141 519 OFFCURVE",
"55 411 OFFCURVE",
"55 249 CURVE SMOOTH",
"55 138 OFFCURVE",
"89 65 OFFCURVE",
"172 -14 CURVE",
"220 57 LINE",
"147 106 OFFCURVE",
"95 137 OFFCURVE",
"95 251 CURVE SMOOTH",
"95 372 OFFCURVE",
"158 434 OFFCURVE",
"267 434 CURVE"
);
}
);
};
layerId = "034236B8-3FA8-43DA-9EDA-EFF269A687EC";
name = Regular;
paths = (
{
closed = 1;
nodes = (
"376 434 OFFCURVE",
"439 372 OFFCURVE",
"439 251 CURVE SMOOTH",
"439 157 OFFCURVE",
"398 100 OFFCURVE",
"314 62 CURVE",
"362 -14 LINE",
"445 65 OFFCURVE",
"479 138 OFFCURVE",
"479 249 CURVE SMOOTH",
"479 411 OFFCURVE",
"393 519 OFFCURVE",
"267 519 CURVE SMOOTH",
"141 519 OFFCURVE",
"55 411 OFFCURVE",
"55 249 CURVE SMOOTH",
"55 138 OFFCURVE",
"89 65 OFFCURVE",
"172 -14 CURVE",
"220 62 LINE",
"136 100 OFFCURVE",
"95 157 OFFCURVE",
"95 251 CURVE SMOOTH",
"95 372 OFFCURVE",
"158 434 OFFCURVE",
"267 434 CURVE SMOOTH"
);
}
);
width = 534;
}
);
unicode = 0CE7;
userData = {
public.markColor = "0.97,1,0,1";
};
},
{
color = 4;
glyphname = knTwo;
lastChange = "2016-01-17 18:56:06 +0000";
layers = (
{
layerId = "034236B8-3FA8-43DA-9EDA-EFF269A687EC";
name = Regular;
paths = (
{
closed = 1;
nodes = (
"190 415 OFFCURVE",
"221 439 OFFCURVE",
"264 439 CURVE SMOOTH",
"332 439 OFFCURVE",
"403 380 OFFCURVE",
"403 265 CURVE SMOOTH",
"403 147 OFFCURVE",
"334 62 OFFCURVE",
"190 62 CURVE SMOOTH",
"25 62 LINE",
"25 -14 LINE",
"167 -14 LINE SMOOTH",
"356 -14 OFFCURVE",
"443 105 OFFCURVE",
"443 265 CURVE SMOOTH",
"443 423 OFFCURVE",
"369 519 OFFCURVE",
"275 519 CURVE SMOOTH",
"194 519 OFFCURVE",
"151 450 OFFCURVE",
"151 372 CURVE SMOOTH",
"151 301 OFFCURVE",
"189 243 OFFCURVE",
"247 243 CURVE SMOOTH",
"296 243 OFFCURVE",
"331 284 OFFCURVE",
"338 326 CURVE",
"322 346 LINE",
"309 331 OFFCURVE",
"289 323 OFFCURVE",
"263 323 CURVE SMOOTH",
"219 323 OFFCURVE",
"190 345 OFFCURVE",
"190 379 CURVE SMOOTH"
);
}
);
width = 498;
}
);
unicode = 0CE8;
userData = {
public.markColor = "0.97,1,0,1";
};
},
{
color = 4;
glyphname = knThree;
lastChange = "2016-01-17 18:56:06 +0000";
layers = (
{
layerId = "034236B8-3FA8-43DA-9EDA-EFF269A687EC";
name = Regular;
paths = (
{
closed = 1;
nodes = (
"295 -14 OFFCURVE",
"376 124 OFFCURVE",
"376 278 CURVE SMOOTH",
"376 423 OFFCURVE",
"298 519 OFFCURVE",
"199 519 CURVE SMOOTH",
"122 519 OFFCURVE",
"86 462 OFFCURVE",
"86 390 CURVE SMOOTH",
"86 319 OFFCURVE",
"122 274 OFFCURVE",
"174 274 CURVE SMOOTH",
"224 274 OFFCURVE",
"264 315 OFFCURVE",
"271 357 CURVE",
"255 377 LINE",
"242 362 OFFCURVE",
"218 354 OFFCURVE",
"188 354 CURVE SMOOTH",
"148 354 OFFCURVE",
"123 369 OFFCURVE",
"123 397 CURVE SMOOTH",
"123 423 OFFCURVE",
"145 439 OFFCURVE",
"188 439 CURVE SMOOTH",
"271 439 OFFCURVE",
"336 380 OFFCURVE",
"336 263 CURVE SMOOTH",
"336 134 OFFCURVE",
"259 71 OFFCURVE",
"174 71 CURVE SMOOTH",
"126 71 OFFCURVE",
"94 91 OFFCURVE",
"94 126 CURVE SMOOTH",
"94 158 OFFCURVE",
"121 177 OFFCURVE",
"166 177 CURVE SMOOTH",
"311 177 OFFCURVE",
"314 -14 OFFCURVE",
"459 -14 CURVE SMOOTH",
"540 -14 OFFCURVE",
"573 47 OFFCURVE",
"578 95 CURVE",
"562 109 LINE",
"540 82 OFFCURVE",
"511 71 OFFCURVE",
"479 71 CURVE SMOOTH",
"364 71 OFFCURVE",
"293 214 OFFCURVE",
"165 214 CURVE SMOOTH",
"93 214 OFFCURVE",
"50 169 OFFCURVE",
"50 104 CURVE SMOOTH",
"50 42 OFFCURVE",
"90 -14 OFFCURVE",
"170 -14 CURVE SMOOTH"
);
}
);
width = 598;
}
);
unicode = 0CE9;
userData = {
public.markColor = "0.97,1,0,1";
};
},
{
color = 4;
glyphname = knFour;
lastChange = "2016-01-17 18:56:06 +0000";
layers = (
{
layerId = "034236B8-3FA8-43DA-9EDA-EFF269A687EC";
name = Regular;
paths = (
{
closed = 1;
nodes = (
"408 -14 OFFCURVE",
"452 34 OFFCURVE",
"452 102 CURVE SMOOTH",
"452 203 OFFCURVE",
"354 224 OFFCURVE",
"257 245 CURVE SMOOTH",
"173 263 OFFCURVE",
"90 281 OFFCURVE",
"90 356 CURVE SMOOTH",
"90 422 OFFCURVE",
"156 454 OFFCURVE",
"220 454 CURVE SMOOTH",
"275 454 OFFCURVE",
"290 430 OFFCURVE",
"290 412 CURVE SMOOTH",
"290 391 OFFCURVE",
"270 373 OFFCURVE",
"231 373 CURVE SMOOTH",
"188 373 OFFCURVE",
"168 394 OFFCURVE",
"168 430 CURVE SMOOTH",
"168 450 OFFCURVE",
"174 465 OFFCURVE",
"180 477 CURVE",
"156 482 LINE",
"144 460 OFFCURVE",
"138 436 OFFCURVE",
"138 410 CURVE SMOOTH",
"138 350 OFFCURVE",
"174 310 OFFCURVE",
"231 310 CURVE SMOOTH",
"296 310 OFFCURVE",
"320 363 OFFCURVE",
"320 414 CURVE SMOOTH",
"320 467 OFFCURVE",
"287 519 OFFCURVE",
"206 519 CURVE SMOOTH",
"120 519 OFFCURVE",
"55 460 OFFCURVE",
"55 355 CURVE SMOOTH",
"55 205 OFFCURVE",
"193 183 OFFCURVE",
"298 166 CURVE SMOOTH",
"363 155 OFFCURVE",
"416 146 OFFCURVE",
"416 111 CURVE SMOOTH",
"416 83 OFFCURVE",
"383 71 OFFCURVE",
"344 71 CURVE SMOOTH",
"303 71 OFFCURVE",
"271 85 OFFCURVE",
"271 114 CURVE SMOOTH",
"271 203 OFFCURVE",
"589 186 OFFCURVE",
"589 370 CURVE SMOOTH",
"589 450 OFFCURVE",
"525 513 OFFCURVE",
"460 513 CURVE SMOOTH",
"424 513 OFFCURVE",
"409 493 OFFCURVE",
"409 471 CURVE SMOOTH",
"409 451 OFFCURVE",
"421 435 OFFCURVE",
"437 430 CURVE SMOOTH",
"448 427 OFFCURVE",
"458 426 OFFCURVE",
"469 425 CURVE SMOOTH",
"480 425 OFFCURVE",
"493 424 OFFCURVE",
"508 418 CURVE SMOOTH",
"535 408 OFFCURVE",
"552 387 OFFCURVE",
"552 354 CURVE SMOOTH",
"552 285 OFFCURVE",
"474 257 OFFCURVE",
"395 229 CURVE SMOOTH",
"311 199 OFFCURVE",
"225 168 OFFCURVE",
"225 87 CURVE SMOOTH",
"225 28 OFFCURVE",
"270 -14 OFFCURVE",
"337 -14 CURVE SMOOTH"
);
}
);
width = 637;
}
);
unicode = 0CEA;
userData = {
public.markColor = "0.97,1,0,1";
};
},
{
color = 4;
glyphname = knFive;
lastChange = "2016-01-17 18:56:06 +0000";
layers = (
{
layerId = "034236B8-3FA8-43DA-9EDA-EFF269A687EC";
name = Regular;
paths = (
{
closed = 1;
nodes = (
"244 439 OFFCURVE",
"298 380 OFFCURVE",
"298 262 CURVE SMOOTH",
"298 134 OFFCURVE",
"237 69 OFFCURVE",
"166 69 CURVE SMOOTH",
"131 69 OFFCURVE",
"108 85 OFFCURVE",
"108 117 CURVE SMOOTH",
"108 168 OFFCURVE",
"168 197 OFFCURVE",
"325 231 CURVE SMOOTH",
"512 271 OFFCURVE",
"579 325 OFFCURVE",
"579 416 CURVE SMOOTH",
"579 477 OFFCURVE",
"548 518 OFFCURVE",
"498 518 CURVE SMOOTH",
"443 518 OFFCURVE",
"406 471 OFFCURVE",
"406 402 CURVE SMOOTH",
"406 291 OFFCURVE",
"492 212 OFFCURVE",
"492 146 CURVE SMOOTH",
"492 106 OFFCURVE",
"461 79 OFFCURVE",
"416 67 CURVE",
"454 -7 LINE",
"502 19 OFFCURVE",
"531 67 OFFCURVE",
"531 121 CURVE SMOOTH",
"531 217 OFFCURVE",
"437 293 OFFCURVE",
"437 376 CURVE SMOOTH",
"437 421 OFFCURVE",
"465 439 OFFCURVE",
"495 439 CURVE SMOOTH",
"523 439 OFFCURVE",
"547 424 OFFCURVE",
"547 391 CURVE SMOOTH",
"547 340 OFFCURVE",
"488 299 OFFCURVE",
"316 262 CURVE SMOOTH",
"141 224 OFFCURVE",
"66 184 OFFCURVE",
"66 98 CURVE SMOOTH",
"66 35 OFFCURVE",
"106 -14 OFFCURVE",
"178 -14 CURVE SMOOTH",
"297 -14 OFFCURVE",
"330 124 OFFCURVE",
"330 260 CURVE SMOOTH",
"330 423 OFFCURVE",
"270 519 OFFCURVE",
"172 519 CURVE SMOOTH",
"97 519 OFFCURVE",
"61 462 OFFCURVE",
"61 391 CURVE SMOOTH",
"61 319 OFFCURVE",
"98 274 OFFCURVE",
"150 274 CURVE SMOOTH",
"199 274 OFFCURVE",
"239 315 OFFCURVE",
"245 358 CURVE",
"229 377 LINE",
"213 363 OFFCURVE",
"193 354 OFFCURVE",
"163 354 CURVE SMOOTH",
"123 354 OFFCURVE",
"98 369 OFFCURVE",
"98 397 CURVE SMOOTH",
"98 423 OFFCURVE",
"120 439 OFFCURVE",
"163 439 CURVE SMOOTH"
);
}
);
width = 660;
}
);
unicode = 0CEB;
userData = {
public.markColor = "0.97,1,0,1";
};
},
{
color = 4;
glyphname = knSix;
lastChange = "2016-01-17 18:56:06 +0000";
layers = (
{
layerId = "034236B8-3FA8-43DA-9EDA-EFF269A687EC";
name = Regular;
paths = (
{
closed = 1;
nodes = (
"68 543 OFFCURVE",
"107 597 OFFCURVE",
"169 597 CURVE SMOOTH",
"222 597 OFFCURVE",
"259 557 OFFCURVE",
"259 495 CURVE SMOOTH",
"259 400 OFFCURVE",
"173 374 OFFCURVE",
"173 318 CURVE SMOOTH",
"173 288 OFFCURVE",
"199 267 OFFCURVE",
"249 267 CURVE SMOOTH",
"301 267 OFFCURVE",
"329 289 OFFCURVE",
"329 320 CURVE SMOOTH",
"329 354 OFFCURVE",
"296 380 OFFCURVE",
"243 380 CURVE SMOOTH",
"157 380 OFFCURVE",
"90 310 OFFCURVE",
"90 219 CURVE SMOOTH",
"90 134 OFFCURVE",
"149 62 OFFCURVE",
"258 62 CURVE SMOOTH",
"448 62 LINE",
"448 -14 LINE",
"259 -14 LINE SMOOTH",
"129 -14 OFFCURVE",
"50 77 OFFCURVE",
"50 214 CURVE SMOOTH",
"50 352 OFFCURVE",
"129 442 OFFCURVE",
"236 442 CURVE SMOOTH",
"308 442 OFFCURVE",
"359 400 OFFCURVE",
"359 322 CURVE SMOOTH",
"359 253 OFFCURVE",
"319 204 OFFCURVE",
"251 204 CURVE SMOOTH",
"197 204 OFFCURVE",
"142 236 OFFCURVE",
"142 300 CURVE SMOOTH",
"142 377 OFFCURVE",
"220 412 OFFCURVE",
"220 464 CURVE SMOOTH",
"220 495 OFFCURVE",
"191 517 OFFCURVE",
"149 517 CURVE SMOOTH",
"118 517 OFFCURVE",
"95 505 OFFCURVE",
"80 479 CURVE",
"68 487 LINE"
);
}
);
width = 473;
}
);
unicode = 0CEC;
userData = {
public.markColor = "0.97,1,0,1";
};
},
{
color = 4;
glyphname = knSeven;
lastChange = "2016-01-17 18:56:06 +0000";
layers = (
{
layerId = "034236B8-3FA8-43DA-9EDA-EFF269A687EC";
name = Regular;
paths = (
{
closed = 1;
nodes = (
"89 88 OFFCURVE",
"119 62 OFFCURVE",
"188 62 CURVE SMOOTH",
"448 62 LINE",
"448 -14 LINE",
"199 -14 LINE SMOOTH",
"109 -14 OFFCURVE",
"50 32 OFFCURVE",
"50 114 CURVE SMOOTH",
"50 279 OFFCURVE",
"290 263 OFFCURVE",
"290 376 CURVE SMOOTH",
"290 417 OFFCURVE",
"259 440 OFFCURVE",
"219 440 CURVE SMOOTH",
"170 440 OFFCURVE",
"144 405 OFFCURVE",
"144 375 CURVE SMOOTH",
"144 364 OFFCURVE",
"148 353 OFFCURVE",
"154 345 CURVE",
"134 330 LINE",
"113 352 OFFCURVE",
"105 381 OFFCURVE",
"105 407 CURVE SMOOTH",
"105 465 OFFCURVE",
"144 519 OFFCURVE",
"224 519 CURVE SMOOTH",
"298 519 OFFCURVE",
"343 473 OFFCURVE",
"343 407 CURVE SMOOTH",
"343 250 OFFCURVE",
"89 234 OFFCURVE",
"89 125 CURVE SMOOTH"
);
},
{
closed = 0;
nodes = (
"188 62 LINE",
"448 62 LINE",
"448 -14 LINE",
"199 -14 LINE"
);
}
);
width = 485;
}
);
unicode = 0CED;
userData = {
public.markColor = "0.97,1,0,1";
};
},
{
color = 4;
glyphname = knEight;
lastChange = "2016-01-17 18:56:06 +0000";
layers = (
{
layerId = "034236B8-3FA8-43DA-9EDA-EFF269A687EC";
name = Regular;
paths = (
{
closed = 1;
nodes = (
"508 117 OFFCURVE",
"460 70 OFFCURVE",
"361 70 CURVE SMOOTH",
"210 70 OFFCURVE",
"100 171 OFFCURVE",
"100 304 CURVE SMOOTH",
"100 387 OFFCURVE",
"142 454 OFFCURVE",
"232 454 CURVE SMOOTH",
"273 454 OFFCURVE",
"307 440 OFFCURVE",
"307 401 CURVE SMOOTH",
"307 365 OFFCURVE",
"279 344 OFFCURVE",
"235 344 CURVE SMOOTH",
"190 344 OFFCURVE",
"159 365 OFFCURVE",
"159 408 CURVE SMOOTH",
"159 424 OFFCURVE",
"163 440 OFFCURVE",
"166 450 CURVE",
"135 429 LINE",
"132 415 OFFCURVE",
"131 398 OFFCURVE",
"131 384 CURVE SMOOTH",
"131 310 OFFCURVE",
"174 273 OFFCURVE",
"229 273 CURVE SMOOTH",
"295 273 OFFCURVE",
"337 325 OFFCURVE",
"337 391 CURVE SMOOTH",
"337 457 OFFCURVE",
"301 519 OFFCURVE",
"226 519 CURVE SMOOTH",
"128 519 OFFCURVE",
"60 414 OFFCURVE",
"60 283 CURVE SMOOTH",
"60 104 OFFCURVE",
"180 -14 OFFCURVE",
"351 -14 CURVE SMOOTH",
"475 -14 OFFCURVE",
"556 51 OFFCURVE",
"556 149 CURVE SMOOTH",
"556 209 OFFCURVE",
"527 250 OFFCURVE",
"500 288 CURVE SMOOTH",
"480 317 OFFCURVE",
"461 344 OFFCURVE",
"461 374 CURVE SMOOTH",
"461 410 OFFCURVE",
"488 434 OFFCURVE",
"542 434 CURVE SMOOTH",
"583 434 LINE",
"583 508 LINE",
"536 508 LINE SMOOTH",
"466 508 OFFCURVE",
"420 465 OFFCURVE",
"420 395 CURVE SMOOTH",
"420 345 OFFCURVE",
"444 310 OFFCURVE",
"467 276 CURVE SMOOTH",
"488 245 OFFCURVE",
"508 216 OFFCURVE",
"508 177 CURVE SMOOTH"
);
}
);
width = 628;
}
);
unicode = 0CEE;
userData = {
public.markColor = "0.97,1,0,1";
};
},
{
color = 4;
glyphname = knNine;
lastChange = "2016-01-17 18:56:06 +0000";
layers = (
{
layerId = "034236B8-3FA8-43DA-9EDA-EFF269A687EC";
name = Regular;
paths = (
{
closed = 1;
nodes = (
"352 -14 OFFCURVE",
"370 7 OFFCURVE",
"370 28 CURVE SMOOTH",
"370 43 OFFCURVE",
"361 57 OFFCURVE",
"347 63 CURVE SMOOTH",
"337 67 OFFCURVE",
"327 68 OFFCURVE",
"315 69 CURVE SMOOTH",
"304 69 OFFCURVE",
"291 70 OFFCURVE",
"276 73 CURVE SMOOTH",
"215 86 OFFCURVE",
"173 127 OFFCURVE",
"173 198 CURVE SMOOTH",
"173 271 OFFCURVE",
"218 318 OFFCURVE",
"279 318 CURVE SMOOTH",
"323 318 OFFCURVE",
"344 293 OFFCURVE",
"344 270 CURVE SMOOTH",
"344 244 OFFCURVE",
"316 221 OFFCURVE",
"252 221 CURVE SMOOTH",
"162 221 OFFCURVE",
"91 266 OFFCURVE",
"91 336 CURVE SMOOTH",
"91 395 OFFCURVE",
"142 434 OFFCURVE",
"225 434 CURVE SMOOTH",
"492 434 LINE",
"492 508 LINE",
"221 508 LINE SMOOTH",
"122 508 OFFCURVE",
"55 446 OFFCURVE",
"55 353 CURVE SMOOTH",
"55 239 OFFCURVE",
"153 151 OFFCURVE",
"261 151 CURVE SMOOTH",
"343 151 OFFCURVE",
"380 201 OFFCURVE",
"380 255 CURVE SMOOTH",
"380 308 OFFCURVE",
"344 350 OFFCURVE",
"279 350 CURVE SMOOTH",
"202 350 OFFCURVE",
"138 291 OFFCURVE",
"138 189 CURVE SMOOTH",
"138 68 OFFCURVE",
"230 -14 OFFCURVE",
"310 -14 CURVE SMOOTH"
);
}
);
width = 555;
}
);
unicode = 0CEF;
userData = {
public.markColor = "0.97,1,0,1";
};
},
{
color = 6;
glyphname = .notdef;
layers = (
{
layerId = "034236B8-3FA8-43DA-9EDA-EFF269A687EC";
name = Regular;
paths = (
{
closed = 1;
nodes = (
"570 0 LINE",
"570 701 LINE",
"180 701 LINE",
"180 0 LINE"
);
},
{
closed = 1;
nodes = (
"234 651 LINE",
"516 651 LINE",
"516 50 LINE",
"234 50 LINE"
);
}
);
width = 750;
}
);
userData = {
public.markColor = "0,0.67,0.91,1";
};
},
{
color = 6;
glyphname = indianrupee;
layers = (
{
layerId = "034236B8-3FA8-43DA-9EDA-EFF269A687EC";
name = Regular;
paths = (
{
closed = 1;
nodes = (
"166 264 LINE SMOOTH",
"306 264 OFFCURVE",
"394 343 OFFCURVE",
"394 458 CURVE SMOOTH",
"394 582 OFFCURVE",
"328 652 OFFCURVE",
"159 652 CURVE SMOOTH",
"67 652 LINE",
"67 617 LINE",
"166 617 LINE SMOOTH",
"280 617 OFFCURVE",
"332 554 OFFCURVE",
"332 458 CURVE SMOOTH",
"332 371 OFFCURVE",
"275 319 OFFCURVE",
"166 319 CURVE SMOOTH",
"65 319 LINE",
"65 264 LINE"
);
},
{
closed = 1;
nodes = (
"346 0 LINE",
"138 264 LINE",
"65 264 LINE",
"269 0 LINE"
);
},
{
closed = 1;
nodes = (
"486 445 LINE",
"486 502 LINE",
"65 502 LINE",
"65 445 LINE"
);
},
{
closed = 1;
nodes = (
"486 617 LINE",
"486 674 LINE",
"65 674 LINE",
"65 617 LINE"
);
}
);
width = 536;
}
);
userData = {
com.typemytype.robofont.layerData = {
bkgd = {
anchors = (
);
components = (
);
contours = (
);
lib = {
};
name = indianrupee;
unicodes = (
);
width = 536;
};
};
com.typemytype.robofont.mark = (
1,
0.725,
0.715,
1
);
public.markColor = "0,0.67,0.91,1";
};
},
{
color = 6;
glyphname = zerowidthnonjoiner;
layers = (
{
layerId = "034236B8-3FA8-43DA-9EDA-EFF269A687EC";
name = Regular;
paths = (
{
closed = 1;
nodes = (
"24 -230 LINE",
"24 811 LINE",
"-23 811 LINE",
"-23 -230 LINE"
);
}
);
width = 0;
}
);
unicode = 200C;
userData = {
public.markColor = "0,0.67,0.91,1";
};
},
{
color = 6;
glyphname = zerowidthjoiner;
layers = (
{
layerId = "034236B8-3FA8-43DA-9EDA-EFF269A687EC";
name = Regular;
paths = (
{
closed = 1;
nodes = (
"24 -230 LINE",
"24 635 LINE",
"96 560 LINE",
"129 593 LINE",
"33 688 LINE",
"129 784 LINE",
"97 816 LINE",
"1 721 LINE",
"-94 816 LINE",
"-127 783 LINE",
"-32 688 LINE",
"-125 595 LINE",
"-92 562 LINE",
"-23 635 LINE",
"-23 -230 LINE"
);
}
);
width = 0;
}
);
unicode = FEFF;
userData = {
public.markColor = "0,0.67,0.91,1";
};
},
{
color = 6;
glyphname = dottedcircle;
layers = (
{
layerId = "034236B8-3FA8-43DA-9EDA-EFF269A687EC";
name = Regular;
paths = (
{
closed = 1;
nodes = (
"267 44 OFFCURVE",
"286 64 OFFCURVE",
"286 90 CURVE SMOOTH",
"286 114 OFFCURVE",
"267 134 OFFCURVE",
"242 134 CURVE SMOOTH",
"216 134 OFFCURVE",
"197 114 OFFCURVE",
"197 90 CURVE SMOOTH",
"197 64 OFFCURVE",
"216 44 OFFCURVE",
"242 44 CURVE SMOOTH"
);
},
{
closed = 1;
nodes = (
"165 121 OFFCURVE",
"184 139 OFFCURVE",
"184 165 CURVE SMOOTH",
"184 190 OFFCURVE",
"165 209 OFFCURVE",
"140 209 CURVE SMOOTH",
"114 209 OFFCURVE",
"96 190 OFFCURVE",
"96 165 CURVE SMOOTH",
"96 139 OFFCURVE",
"114 121 OFFCURVE",
"140 121 CURVE SMOOTH"
);
},
{
closed = 1;
nodes = (
"114 238 OFFCURVE",
"132 256 OFFCURVE",
"132 281 CURVE SMOOTH",
"132 307 OFFCURVE",
"114 326 OFFCURVE",
"88 326 CURVE SMOOTH",
"63 326 OFFCURVE",
"44 307 OFFCURVE",
"44 281 CURVE SMOOTH",
"44 256 OFFCURVE",
"63 238 OFFCURVE",
"88 238 CURVE SMOOTH"
);
},
{
closed = 1;
nodes = (
"394 30 OFFCURVE",
"413 48 OFFCURVE",
"413 74 CURVE SMOOTH",
"413 100 OFFCURVE",
"394 118 OFFCURVE",
"368 118 CURVE SMOOTH",
"342 118 OFFCURVE",
"324 100 OFFCURVE",
"324 74 CURVE SMOOTH",
"324 48 OFFCURVE",
"342 30 OFFCURVE",
"368 30 CURVE SMOOTH"
);
},
{
closed = 1;
nodes = (
"127 363 OFFCURVE",
"147 382 OFFCURVE",
"147 407 CURVE SMOOTH",
"147 432 OFFCURVE",
"127 451 OFFCURVE",
"103 451 CURVE SMOOTH",
"77 451 OFFCURVE",
"57 432 OFFCURVE",
"57 407 CURVE SMOOTH",
"57 382 OFFCURVE",
"77 363 OFFCURVE",
"103 363 CURVE SMOOTH"
);
},
{
closed = 1;
nodes = (
"514 83 OFFCURVE",
"534 101 OFFCURVE",
"534 127 CURVE SMOOTH",
"534 152 OFFCURVE",
"514 171 OFFCURVE",
"489 171 CURVE SMOOTH",
"464 171 OFFCURVE",
"445 152 OFFCURVE",
"445 127 CURVE SMOOTH",
"445 101 OFFCURVE",
"464 83 OFFCURVE",
"489 83 CURVE SMOOTH"
);
},
{
closed = 1;
nodes = (
"209 472 OFFCURVE",
"227 491 OFFCURVE",
"227 517 CURVE SMOOTH",
"227 542 OFFCURVE",
"209 561 OFFCURVE",
"183 561 CURVE SMOOTH",
"157 561 OFFCURVE",
"139 542 OFFCURVE",
"139 517 CURVE SMOOTH",
"139 491 OFFCURVE",
"157 472 OFFCURVE",
"183 472 CURVE SMOOTH"
);
},
{
closed = 1;
nodes = (
"587 181 OFFCURVE",
"606 200 OFFCURVE",
"606 225 CURVE SMOOTH",
"606 251 OFFCURVE",
"587 270 OFFCURVE",
"563 270 CURVE SMOOTH",
"537 270 OFFCURVE",
"518 251 OFFCURVE",
"518 225 CURVE SMOOTH",
"518 200 OFFCURVE",
"537 181 OFFCURVE",
"563 181 CURVE SMOOTH"
);
},
{
closed = 1;
nodes = (
"327 516 OFFCURVE",
"345 534 OFFCURVE",
"345 560 CURVE SMOOTH",
"345 586 OFFCURVE",
"327 604 OFFCURVE",
"301 604 CURVE SMOOTH",
"275 604 OFFCURVE",
"257 586 OFFCURVE",
"257 560 CURVE SMOOTH",
"257 534 OFFCURVE",
"275 516 OFFCURVE",
"301 516 CURVE SMOOTH"
);
},
{
closed = 1;
nodes = (
"597 315 OFFCURVE",
"616 333 OFFCURVE",
"616 359 CURVE SMOOTH",
"616 385 OFFCURVE",
"597 403 OFFCURVE",
"572 403 CURVE SMOOTH",
"546 403 OFFCURVE",
"528 385 OFFCURVE",
"528 359 CURVE SMOOTH",
"528 333 OFFCURVE",
"546 315 OFFCURVE",
"572 315 CURVE SMOOTH"
);
},
{
closed = 1;
nodes = (
"453 501 OFFCURVE",
"471 521 OFFCURVE",
"471 545 CURVE SMOOTH",
"471 571 OFFCURVE",
"453 590 OFFCURVE",
"428 590 CURVE SMOOTH",
"402 590 OFFCURVE",
"383 571 OFFCURVE",
"383 545 CURVE SMOOTH",
"383 521 OFFCURVE",
"402 501 OFFCURVE",
"428 501 CURVE SMOOTH"
);
},
{
closed = 1;
nodes = (
"548 433 OFFCURVE",
"566 452 OFFCURVE",
"566 477 CURVE SMOOTH",
"566 503 OFFCURVE",
"548 522 OFFCURVE",
"522 522 CURVE SMOOTH",
"497 522 OFFCURVE",
"478 503 OFFCURVE",
"478 477 CURVE SMOOTH",
"478 452 OFFCURVE",
"497 433 OFFCURVE",
"522 433 CURVE SMOOTH"
);
}
);
width = 660;
}
);
unicode = 25CC;
userData = {
public.markColor = "0,0.67,0.91,1";
};
},
{
color = 10;
glyphname = knReph;
lastChange = "2016-01-24 20:04:01 +0000";
layers = (
{
layerId = "034236B8-3FA8-43DA-9EDA-EFF269A687EC";
name = Regular;
paths = (
{
closed = 1;
nodes = (
"361 293 LINE",
"338 293 OFFCURVE",
"243 293 OFFCURVE",
"208 293 CURVE SMOOTH",
"121 293 OFFCURVE",
"91 327 OFFCURVE",
"91 365 CURVE SMOOTH",
"91 403 OFFCURVE",
"120 434 OFFCURVE",
"223 434 CURVE SMOOTH",
"492 434 LINE",
"492 508 LINE",
"219 508 LINE SMOOTH",
"101 508 OFFCURVE",
"55 444 OFFCURVE",
"55 369 CURVE SMOOTH",
"55 286 OFFCURVE",
"119 220 OFFCURVE",
"216 220 CURVE SMOOTH",
"361 220 LINE"
);
},
{
closed = 1;
nodes = (
"336 293 LINE",
"278 293 LINE SMOOTH",
"186 293 OFFCURVE",
"98 241 OFFCURVE",
"98 140 CURVE SMOOTH",
"98 46 OFFCURVE",
"166 -14 OFFCURVE",
"236 -14 CURVE SMOOTH",
"272 -14 OFFCURVE",
"290 7 OFFCURVE",
"290 27 CURVE SMOOTH",
"290 44 OFFCURVE",
"281 56 OFFCURVE",
"267 63 CURVE SMOOTH",
"252 71 OFFCURVE",
"228 65 OFFCURVE",
"197 73 CURVE SMOOTH",
"156 83 OFFCURVE",
"133 107 OFFCURVE",
"133 142 CURVE SMOOTH",
"133 178 OFFCURVE",
"158 220 OFFCURVE",
"249 220 CURVE SMOOTH",
"336 220 LINE"
);
}
);
width = 517;
}
);
userData = {
public.markColor = "0.75,0.75,0.75,1";
};
},
{
color = (255,215,172,1);
glyphname = knKAc2;
lastChange = "2016-01-20 15:51:15 +0000";
layers = (
{
layerId = "034236B8-3FA8-43DA-9EDA-EFF269A687EC";
name = Regular;
paths = (
{
closed = 1;
nodes = (
"84 -412 OFFCURVE",
"127 -364 OFFCURVE",
"127 -297 CURVE SMOOTH",
"127 -230 OFFCURVE",
"83 -179 OFFCURVE",
"14 -179 CURVE SMOOTH",
"-54 -179 OFFCURVE",
"-98 -230 OFFCURVE",
"-98 -297 CURVE SMOOTH",
"-98 -364 OFFCURVE",
"-55 -412 OFFCURVE",
"15 -412 CURVE SMOOTH"
);
},
{
closed = 1;
nodes = (
"-38 -359 OFFCURVE",
"-65 -332 OFFCURVE",
"-65 -282 CURVE SMOOTH",
"-65 -225 OFFCURVE",
"-30 -196 OFFCURVE",
"15 -196 CURVE SMOOTH",
"60 -196 OFFCURVE",
"94 -225 OFFCURVE",
"94 -282 CURVE SMOOTH",
"94 -332 OFFCURVE",
"67 -359 OFFCURVE",
"15 -359 CURVE SMOOTH"
);
},
{
closed = 1;
nodes = (
"-22 -201 LINE",
"14 -193 LINE",
"52 -201 LINE",
"150 -201 LINE",
"150 -159 LINE",
"-125 -159 LINE",
"-125 -201 LINE"
);
},
{
closed = 1;
nodes = (
"42 -129 OFFCURVE",
"51 -90 OFFCURVE",
"51 -41 CURVE SMOOTH",
"51 27 OFFCURVE",
"31 51 OFFCURVE",
"10 51 CURVE SMOOTH",
"-4 51 OFFCURVE",
"-13 41 OFFCURVE",
"-13 27 CURVE SMOOTH",
"-13 17 OFFCURVE",
"-10 9 OFFCURVE",
"3 -1 CURVE SMOOTH",
"13 -10 OFFCURVE",
"22 -31 OFFCURVE",
"22 -69 CURVE SMOOTH",
"22 -98 OFFCURVE",
"17 -135 OFFCURVE",
"3 -162 CURVE",
"20 -169 LINE"
);
}
);
width = 34;
}
);
userData = {
com.typemytype.robofont.layerData = {
bkgd = {
anchors = (
);
components = (
);
contours = (
);
lib = {
};
name = knKAc2;
unicodes = (
);
width = 34;
};
};
com.typemytype.robofont.mark = (
1,
0.842,
0.674,
1
);
};
},
{
color = (255,215,172,1);
glyphname = knKHAc2;
lastChange = "2016-01-17 19:28:56 +0000";
layers = (
{
layerId = "034236B8-3FA8-43DA-9EDA-EFF269A687EC";
name = Regular;
paths = (
{
closed = 1;
nodes = (
"118 -109 OFFCURVE",
"83 -24 OFFCURVE",
"48 25 CURVE SMOOTH",
"36 43 OFFCURVE",
"25 54 OFFCURVE",
"10 54 CURVE SMOOTH",
"-4 54 OFFCURVE",
"-13 44 OFFCURVE",
"-13 28 CURVE SMOOTH",
"-13 13 OFFCURVE",
"-4 -1 OFFCURVE",
"14 -14 CURVE SMOOTH",
"54 -44 OFFCURVE",
"93 -114 OFFCURVE",
"93 -216 CURVE SMOOTH",
"93 -326 OFFCURVE",
"48 -359 OFFCURVE",
"-1 -359 CURVE SMOOTH",
"-82 -359 OFFCURVE",
"-123 -267 OFFCURVE",
"-222 -267 CURVE SMOOTH",
"-273 -267 OFFCURVE",
"-296 -291 OFFCURVE",
"-296 -333 CURVE SMOOTH",
"-296 -387 OFFCURVE",
"-259 -412 OFFCURVE",
"-207 -412 CURVE SMOOTH",
"-121 -412 OFFCURVE",
"-56 -343 OFFCURVE",
"-56 -222 CURVE SMOOTH",
"-56 -118 OFFCURVE",
"-103 -75 OFFCURVE",
"-160 -75 CURVE SMOOTH",
"-210 -75 OFFCURVE",
"-243 -108 OFFCURVE",
"-243 -154 CURVE SMOOTH",
"-243 -191 OFFCURVE",
"-221 -215 OFFCURVE",
"-188 -215 CURVE SMOOTH",
"-159 -215 OFFCURVE",
"-142 -196 OFFCURVE",
"-142 -174 CURVE SMOOTH",
"-142 -155 OFFCURVE",
"-155 -146 OFFCURVE",
"-173 -146 CURVE SMOOTH",
"-192 -146 OFFCURVE",
"-202 -159 OFFCURVE",
"-202 -178 CURVE SMOOTH",
"-202 -181 OFFCURVE",
"-203 -181 OFFCURVE",
"-204 -181 CURVE SMOOTH",
"-211 -181 OFFCURVE",
"-217 -172 OFFCURVE",
"-217 -158 CURVE SMOOTH",
"-217 -136 OFFCURVE",
"-198 -116 OFFCURVE",
"-163 -116 CURVE SMOOTH",
"-128 -116 OFFCURVE",
"-86 -135 OFFCURVE",
"-86 -222 CURVE SMOOTH",
"-86 -313 OFFCURVE",
"-133 -359 OFFCURVE",
"-210 -359 CURVE SMOOTH",
"-247 -359 OFFCURVE",
"-265 -349 OFFCURVE",
"-265 -327 CURVE SMOOTH",
"-265 -305 OFFCURVE",
"-244 -295 OFFCURVE",
"-219 -295 CURVE SMOOTH",
"-136 -295 OFFCURVE",
"-82 -412 OFFCURVE",
"9 -412 CURVE SMOOTH",
"69 -412 OFFCURVE",
"118 -361 OFFCURVE",
"118 -224 CURVE SMOOTH"
);
}
);
width = 48;
}
);
userData = {
com.typemytype.robofont.layerData = {
bkgd = {
anchors = (
);
components = (
);
contours = (
);
lib = {
};
name = knKHAc2;
unicodes = (
);
width = 88;
};
};
com.typemytype.robofont.mark = (
1,
0.842,
0.674,
1
);
};
},
{
color = (255,215,172,1);
glyphname = knGAc2;
lastChange = "2016-01-17 19:29:00 +0000";
layers = (
{
layerId = "034236B8-3FA8-43DA-9EDA-EFF269A687EC";
name = Regular;
paths = (
{
closed = 1;
nodes = (
"3 -104 OFFCURVE",
"56 -169 OFFCURVE",
"56 -320 CURVE SMOOTH",
"56 -412 LINE",
"111 -412 LINE",
"111 -336 LINE SMOOTH",
"111 -192 OFFCURVE",
"33 -75 OFFCURVE",
"-39 -75 CURVE SMOOTH",
"-111 -75 OFFCURVE",
"-188 -192 OFFCURVE",
"-188 -336 CURVE SMOOTH",
"-188 -412 LINE",
"-134 -412 LINE",
"-134 -320 LINE SMOOTH",
"-134 -169 OFFCURVE",
"-79 -104 OFFCURVE",
"-39 -104 CURVE SMOOTH"
);
}
);
width = 0;
}
);
userData = {
com.typemytype.robofont.layerData = {
bkgd = {
anchors = (
);
components = (
);
contours = (
);
lib = {
};
name = knGAc2;
unicodes = (
);
width = 0;
};
};
com.typemytype.robofont.mark = (
1,
0.842,
0.674,
1
);
};
},
{
color = (255,215,172,1);
glyphname = knGHAc2;
lastChange = "2016-01-19 18:21:27 +0000";
layers = (
{
layerId = "034236B8-3FA8-43DA-9EDA-EFF269A687EC";
name = Regular;
paths = (
{
closed = 1;
nodes = (
"245 -244 OFFCURVE",
"271 -220 OFFCURVE",
"271 -173 CURVE SMOOTH",
"271 -131 OFFCURVE",
"251 -91 OFFCURVE",
"208 -68 CURVE",
"194 -85 LINE",
"223 -107 OFFCURVE",
"236 -128 OFFCURVE",
"236 -152 CURVE SMOOTH",
"236 -176 OFFCURVE",
"223 -192 OFFCURVE",
"195 -192 CURVE SMOOTH",
"170 -192 OFFCURVE",
"142 -180 OFFCURVE",
"118 -113 CURVE",
"114 -131 LINE",
"133 -232 OFFCURVE",
"172 -244 OFFCURVE",
"202 -244 CURVE SMOOTH"
);
},
{
closed = 1;
nodes = (
"-44 -469 OFFCURVE",
"-25 -475 OFFCURVE",
"-25 -503 CURVE SMOOTH",
"-25 -530 OFFCURVE",
"-43 -544 OFFCURVE",
"-61 -544 CURVE SMOOTH",
"-79 -544 OFFCURVE",
"-95 -530 OFFCURVE",
"-95 -503 CURVE SMOOTH",
"-95 -475 OFFCURVE",
"-78 -469 OFFCURVE",
"-70 -396 CURVE",
"-52 -396 LINE"
);
},
{
closed = 1;
nodes = (
"113 -306 OFFCURVE",
"97 -359 OFFCURVE",
"46 -359 CURVE SMOOTH",
"-6 -359 OFFCURVE",
"-45 -303 OFFCURVE",
"-55 -249 CURVE",
"-69 -249 LINE",
"-79 -303 OFFCURVE",
"-122 -359 OFFCURVE",
"-176 -359 CURVE SMOOTH",
"-209 -359 OFFCURVE",
"-232 -338 OFFCURVE",
"-232 -298 CURVE SMOOTH",
"-232 -261 OFFCURVE",
"-213 -244 OFFCURVE",
"-188 -244 CURVE SMOOTH",
"-166 -244 OFFCURVE",
"-153 -257 OFFCURVE",
"-144 -272 CURVE",
"-127 -260 LINE",
"-135 -230 OFFCURVE",
"-155 -204 OFFCURVE",
"-195 -204 CURVE SMOOTH",
"-238 -204 OFFCURVE",
"-260 -235 OFFCURVE",
"-260 -299 CURVE SMOOTH",
"-260 -368 OFFCURVE",
"-233 -412 OFFCURVE",
"-176 -412 CURVE SMOOTH",
"-128 -412 OFFCURVE",
"-79 -380 OFFCURVE",
"-65 -323 CURVE",
"-59 -323 LINE",
"-45 -380 OFFCURVE",
"4 -412 OFFCURVE",
"49 -412 CURVE SMOOTH",
"115 -412 OFFCURVE",
"138 -344 OFFCURVE",
"138 -257 CURVE SMOOTH",
"138 -109 OFFCURVE",
"83 -24 OFFCURVE",
"50 23 CURVE SMOOTH",
"36 43 OFFCURVE",
"25 54 OFFCURVE",
"10 54 CURVE SMOOTH",
"-4 54 OFFCURVE",
"-13 44 OFFCURVE",
"-13 29 CURVE SMOOTH",
"-13 13 OFFCURVE",
"-4 -1 OFFCURVE",
"14 -14 CURVE SMOOTH",
"54 -44 OFFCURVE",
"113 -124 OFFCURVE",
"113 -246 CURVE SMOOTH"
);
}
);
width = 50;
}
);
userData = {
com.typemytype.robofont.layerData = {
bkgd = {
anchors = (
);
components = (
);
contours = (
);
lib = {
};
name = knGHAc2;
unicodes = (
);
width = 103;
};
};
com.typemytype.robofont.mark = (
1,
0.842,
0.674,
1
);
};
},
{
color = (255,215,172,1);
glyphname = knNGAc2;
lastChange = "2016-01-17 19:29:06 +0000";
layers = (
{
layerId = "034236B8-3FA8-43DA-9EDA-EFF269A687EC";
name = Regular;
paths = (
{
closed = 1;
nodes = (
"-126 -412 OFFCURVE",
"-84 -376 OFFCURVE",
"-69 -323 CURVE",
"-65 -323 LINE",
"-51 -376 OFFCURVE",
"-9 -412 OFFCURVE",
"40 -412 CURVE SMOOTH",
"82 -412 OFFCURVE",
"115 -385 OFFCURVE",
"115 -333 CURVE SMOOTH",
"115 -295 OFFCURVE",
"97 -261 OFFCURVE",
"75 -243 CURVE",
"59 -257 LINE",
"75 -271 OFFCURVE",
"84 -289 OFFCURVE",
"84 -311 CURVE SMOOTH",
"84 -340 OFFCURVE",
"68 -359 OFFCURVE",
"36 -359 CURVE SMOOTH",
"-14 -359 OFFCURVE",
"-51 -312 OFFCURVE",
"-60 -263 CURVE",
"-75 -263 LINE",
"-83 -312 OFFCURVE",
"-120 -359 OFFCURVE",
"-168 -359 CURVE SMOOTH",
"-198 -359 OFFCURVE",
"-216 -340 OFFCURVE",
"-216 -317 CURVE SMOOTH",
"-216 -292 OFFCURVE",
"-196 -269 OFFCURVE",
"-175 -244 CURVE SMOOTH",
"-150 -215 OFFCURVE",
"-123 -184 OFFCURVE",
"-123 -144 CURVE SMOOTH",
"-123 -109 OFFCURVE",
"-145 -75 OFFCURVE",
"-197 -75 CURVE SMOOTH",
"-250 -75 OFFCURVE",
"-275 -109 OFFCURVE",
"-275 -149 CURVE SMOOTH",
"-275 -169 OFFCURVE",
"-269 -182 OFFCURVE",
"-256 -195 CURVE",
"-243 -186 LINE",
"-246 -181 OFFCURVE",
"-250 -172 OFFCURVE",
"-250 -160 CURVE SMOOTH",
"-250 -135 OFFCURVE",
"-234 -119 OFFCURVE",
"-202 -119 CURVE SMOOTH",
"-170 -119 OFFCURVE",
"-157 -135 OFFCURVE",
"-157 -160 CURVE SMOOTH",
"-157 -182 OFFCURVE",
"-174 -201 OFFCURVE",
"-194 -223 CURVE SMOOTH",
"-220 -251 OFFCURVE",
"-249 -284 OFFCURVE",
"-249 -331 CURVE SMOOTH",
"-249 -379 OFFCURVE",
"-219 -412 OFFCURVE",
"-174 -412 CURVE SMOOTH"
);
},
{
closed = 1;
nodes = (
"-27 -228 OFFCURVE",
"-13 -216 OFFCURVE",
"-13 -194 CURVE SMOOTH",
"-13 -172 OFFCURVE",
"-27 -160 OFFCURVE",
"-48 -160 CURVE SMOOTH",
"-69 -160 OFFCURVE",
"-82 -172 OFFCURVE",
"-82 -194 CURVE SMOOTH",
"-82 -216 OFFCURVE",
"-69 -228 OFFCURVE",
"-48 -228 CURVE SMOOTH"
);
},
{
closed = 1;
nodes = (
"-95 -141 OFFCURVE",
"-47 -109 OFFCURVE",
"10 -109 CURVE SMOOTH",
"52 -109 OFFCURVE",
"73 -127 OFFCURVE",
"73 -157 CURVE SMOOTH",
"73 -176 OFFCURVE",
"65 -189 OFFCURVE",
"56 -197 CURVE",
"69 -210 LINE",
"87 -195 OFFCURVE",
"99 -172 OFFCURVE",
"99 -142 CURVE SMOOTH",
"99 -100 OFFCURVE",
"77 -65 OFFCURVE",
"20 -65 CURVE SMOOTH",
"-55 -65 OFFCURVE",
"-118 -127 OFFCURVE",
"-151 -185 CURVE",
"-151 -215 LINE"
);
}
);
width = 0;
}
);
userData = {
com.typemytype.robofont.layerData = {
bkgd = {
anchors = (
);
components = (
);
contours = (
);
lib = {
};
name = knNGAc2;
unicodes = (
);
width = 0;
};
};
com.typemytype.robofont.mark = (
1,
0.842,
0.674,
1
);
};
},
{
color = (255,215,172,1);
glyphname = knCAc2;
lastChange = "2016-01-17 19:29:09 +0000";
layers = (
{
layerId = "034236B8-3FA8-43DA-9EDA-EFF269A687EC";
name = Regular;
paths = (
{
closed = 1;
nodes = (
"122 -218 LINE",
"122 -172 LINE",
"-52 -172 LINE",
"-52 -218 LINE"
);
},
{
closed = 1;
nodes = (
"-14 -359 OFFCURVE",
"-51 -312 OFFCURVE",
"-60 -263 CURVE",
"-75 -263 LINE",
"-83 -312 OFFCURVE",
"-120 -359 OFFCURVE",
"-168 -359 CURVE SMOOTH",
"-198 -359 OFFCURVE",
"-216 -340 OFFCURVE",
"-216 -317 CURVE SMOOTH",
"-216 -292 OFFCURVE",
"-196 -269 OFFCURVE",
"-175 -244 CURVE SMOOTH",
"-150 -215 OFFCURVE",
"-123 -184 OFFCURVE",
"-123 -144 CURVE SMOOTH",
"-123 -109 OFFCURVE",
"-145 -75 OFFCURVE",
"-197 -75 CURVE SMOOTH",
"-250 -75 OFFCURVE",
"-275 -109 OFFCURVE",
"-275 -149 CURVE SMOOTH",
"-275 -169 OFFCURVE",
"-269 -182 OFFCURVE",
"-256 -195 CURVE",
"-243 -186 LINE",
"-246 -181 OFFCURVE",
"-250 -172 OFFCURVE",
"-250 -160 CURVE SMOOTH",
"-250 -135 OFFCURVE",
"-234 -119 OFFCURVE",
"-202 -119 CURVE SMOOTH",
"-170 -119 OFFCURVE",
"-157 -135 OFFCURVE",
"-157 -160 CURVE SMOOTH",
"-157 -182 OFFCURVE",
"-174 -201 OFFCURVE",
"-194 -223 CURVE SMOOTH",
"-220 -251 OFFCURVE",
"-249 -284 OFFCURVE",
"-249 -331 CURVE SMOOTH",
"-249 -379 OFFCURVE",
"-219 -412 OFFCURVE",
"-174 -412 CURVE SMOOTH",
"-126 -412 OFFCURVE",
"-84 -376 OFFCURVE",
"-69 -323 CURVE",
"-65 -323 LINE",
"-51 -376 OFFCURVE",
"-9 -412 OFFCURVE",
"40 -412 CURVE SMOOTH",
"87 -412 OFFCURVE",
"118 -379 OFFCURVE",
"118 -320 CURVE SMOOTH",
"118 -272 OFFCURVE",
"98 -207 OFFCURVE",
"44 -197 CURVE",
"24 -207 LINE",
"62 -222 OFFCURVE",
"87 -263 OFFCURVE",
"87 -304 CURVE SMOOTH",
"87 -338 OFFCURVE",
"70 -359 OFFCURVE",
"36 -359 CURVE SMOOTH"
);
}
);
width = 0;
}
);
userData = {
com.typemytype.robofont.layerData = {
bkgd = {
anchors = (
);
components = (
);
contours = (
);
lib = {
};
name = knCAc2;
unicodes = (
);
width = 0;
};
};
com.typemytype.robofont.mark = (
1,
0.842,
0.674,
1
);
};
},
{
color = (255,215,172,1);
glyphname = knCHAc2;
lastChange = "2016-01-24 20:04:01 +0000";
layers = (
{
layerId = "034236B8-3FA8-43DA-9EDA-EFF269A687EC";
name = Regular;
paths = (
{
closed = 1;
nodes = (
"144 -136 OFFCURVE",
"95 -37 OFFCURVE",
"53 23 CURVE SMOOTH",
"39 43 OFFCURVE",
"25 53 OFFCURVE",
"11 53 CURVE SMOOTH",
"-3 53 OFFCURVE",
"-13 43 OFFCURVE",
"-13 27 CURVE SMOOTH",
"-13 12 OFFCURVE",
"-4 -2 OFFCURVE",
"13 -15 CURVE SMOOTH",
"55 -46 OFFCURVE",
"117 -140 OFFCURVE",
"117 -242 CURVE SMOOTH",
"117 -300 OFFCURVE",
"96 -360 OFFCURVE",
"36 -360 CURVE SMOOTH",
"-17 -360 OFFCURVE",
"-57 -313 OFFCURVE",
"-65 -264 CURVE",
"-80 -264 LINE",
"-89 -313 OFFCURVE",
"-128 -360 OFFCURVE",
"-182 -360 CURVE SMOOTH",
"-238 -360 OFFCURVE",
"-266 -310 OFFCURVE",
"-266 -239 CURVE SMOOTH",
"-266 -172 OFFCURVE",
"-242 -116 OFFCURVE",
"-183 -116 CURVE SMOOTH",
"-155 -116 OFFCURVE",
"-140 -125 OFFCURVE",
"-140 -150 CURVE SMOOTH",
"-140 -172 OFFCURVE",
"-151 -186 OFFCURVE",
"-184 -186 CURVE SMOOTH",
"-216 -186 OFFCURVE",
"-231 -172 OFFCURVE",
"-231 -146 CURVE SMOOTH",
"-231 -138 OFFCURVE",
"-230 -129 OFFCURVE",
"-226 -119 CURVE",
"-247 -132 LINE",
"-248 -147 OFFCURVE",
"-249 -156 OFFCURVE",
"-249 -162 CURVE SMOOTH",
"-249 -208 OFFCURVE",
"-221 -230 OFFCURVE",
"-181 -230 CURVE SMOOTH",
"-138 -230 OFFCURVE",
"-112 -204 OFFCURVE",
"-112 -149 CURVE SMOOTH",
"-112 -106 OFFCURVE",
"-128 -75 OFFCURVE",
"-175 -75 CURVE SMOOTH",
"-251 -75 OFFCURVE",
"-296 -156 OFFCURVE",
"-296 -256 CURVE SMOOTH",
"-296 -351 OFFCURVE",
"-253 -413 OFFCURVE",
"-184 -413 CURVE SMOOTH",
"-131 -413 OFFCURVE",
"-89 -377 OFFCURVE",
"-76 -325 CURVE",
"-69 -325 LINE",
"-56 -377 OFFCURVE",
"-14 -413 OFFCURVE",
"41 -413 CURVE SMOOTH",
"122 -413 OFFCURVE",
"144 -334 OFFCURVE",
"144 -256 CURVE SMOOTH"
);
},
{
closed = 1;
nodes = (
"-57 -469 OFFCURVE",
"-38 -475 OFFCURVE",
"-38 -506 CURVE SMOOTH",
"-38 -530 OFFCURVE",
"-56 -544 OFFCURVE",
"-74 -544 CURVE SMOOTH",
"-92 -544 OFFCURVE",
"-108 -530 OFFCURVE",
"-108 -505 CURVE SMOOTH",
"-108 -475 OFFCURVE",
"-91 -469 OFFCURVE",
"-83 -396 CURVE",
"-65 -396 LINE"
);
}
);
width = 50;
}
);
userData = {
com.typemytype.robofont.layerData = {
bkgd = {
anchors = (
);
components = (
);
contours = (
);
lib = {
};
name = knCHAc2;
unicodes = (
);
width = 65;
};
};
com.typemytype.robofont.mark = (
1,
0.842,
0.674,
1
);
};
},
{
color = (255,215,172,1);
glyphname = knJAc2;
lastChange = "2016-01-17 19:28:40 +0000";
layers = (
{
layerId = "034236B8-3FA8-43DA-9EDA-EFF269A687EC";
name = Regular;
paths = (
{
closed = 1;
nodes = (
"45 -222 OFFCURVE",
"79 -191 OFFCURVE",
"79 -142 CURVE SMOOTH",
"79 -114 OFFCURVE",
"68 -85 OFFCURVE",
"45 -64 CURVE",
"31 -75 LINE",
"45 -92 OFFCURVE",
"52 -107 OFFCURVE",
"52 -125 CURVE SMOOTH",
"52 -159 OFFCURVE",
"27 -177 OFFCURVE",
"-8 -177 CURVE SMOOTH",
"-49 -177 OFFCURVE",
"-87 -157 OFFCURVE",
"-137 -101 CURVE",
"-163 -103 LINE",
"-108 -179 OFFCURVE",
"-55 -222 OFFCURVE",
"-1 -222 CURVE SMOOTH"
);
},
{
closed = 1;
nodes = (
"-126 -412 OFFCURVE",
"-84 -376 OFFCURVE",
"-69 -323 CURVE",
"-65 -323 LINE",
"-51 -376 OFFCURVE",
"-9 -412 OFFCURVE",
"40 -412 CURVE SMOOTH",
"82 -412 OFFCURVE",
"115 -385 OFFCURVE",
"115 -333 CURVE SMOOTH",
"115 -295 OFFCURVE",
"97 -261 OFFCURVE",
"75 -243 CURVE",
"59 -257 LINE",
"75 -271 OFFCURVE",
"84 -289 OFFCURVE",
"84 -311 CURVE SMOOTH",
"84 -340 OFFCURVE",
"68 -359 OFFCURVE",
"36 -359 CURVE SMOOTH",
"-14 -359 OFFCURVE",
"-51 -312 OFFCURVE",
"-60 -263 CURVE",
"-75 -263 LINE",
"-83 -312 OFFCURVE",
"-120 -359 OFFCURVE",
"-168 -359 CURVE SMOOTH",
"-198 -359 OFFCURVE",
"-216 -340 OFFCURVE",
"-216 -317 CURVE SMOOTH",
"-216 -292 OFFCURVE",
"-196 -269 OFFCURVE",
"-175 -244 CURVE SMOOTH",
"-150 -215 OFFCURVE",
"-123 -184 OFFCURVE",
"-123 -144 CURVE SMOOTH",
"-123 -109 OFFCURVE",
"-145 -75 OFFCURVE",
"-197 -75 CURVE SMOOTH",
"-250 -75 OFFCURVE",
"-275 -109 OFFCURVE",
"-275 -149 CURVE SMOOTH",
"-275 -169 OFFCURVE",
"-269 -182 OFFCURVE",
"-256 -195 CURVE",
"-243 -186 LINE",
"-246 -181 OFFCURVE",
"-250 -172 OFFCURVE",
"-250 -160 CURVE SMOOTH",
"-250 -135 OFFCURVE",
"-234 -119 OFFCURVE",
"-202 -119 CURVE SMOOTH",
"-170 -119 OFFCURVE",
"-157 -135 OFFCURVE",
"-157 -160 CURVE SMOOTH",
"-157 -182 OFFCURVE",
"-174 -201 OFFCURVE",
"-194 -223 CURVE SMOOTH",
"-220 -251 OFFCURVE",
"-249 -284 OFFCURVE",
"-249 -331 CURVE SMOOTH",
"-249 -379 OFFCURVE",
"-219 -412 OFFCURVE",
"-174 -412 CURVE SMOOTH"
);
}
);
width = 0;
}
);
userData = {
com.typemytype.robofont.layerData = {
bkgd = {
anchors = (
);
components = (
);
contours = (
);
lib = {
};
name = knJAc2;
unicodes = (
);
width = 0;
};
};
com.typemytype.robofont.mark = (
1,
0.842,
0.674,
1
);
};
},
{
color = (255,215,172,1);
glyphname = knJHAc2;
lastChange = "2016-01-17 19:28:30 +0000";
layers = (
{
layerId = "034236B8-3FA8-43DA-9EDA-EFF269A687EC";
name = Regular;
paths = (
{
closed = 1;
nodes = (
"57 -412 OFFCURVE",
"112 -343 OFFCURVE",
"112 -250 CURVE SMOOTH",
"112 -137 OFFCURVE",
"47 -75 OFFCURVE",
"3 -75 CURVE SMOOTH",
"-18 -75 OFFCURVE",
"-29 -87 OFFCURVE",
"-29 -102 CURVE SMOOTH",
"-29 -114 OFFCURVE",
"-20 -125 OFFCURVE",
"-10 -127 CURVE SMOOTH",
"4 -131 OFFCURVE",
"18 -129 OFFCURVE",
"33 -134 CURVE SMOOTH",
"56 -142 OFFCURVE",
"87 -181 OFFCURVE",
"87 -243 CURVE SMOOTH",
"87 -316 OFFCURVE",
"41 -359 OFFCURVE",
"-19 -359 CURVE SMOOTH",
"-62 -359 OFFCURVE",
"-91 -337 OFFCURVE",
"-110 -273 CURVE",
"-128 -284 LINE",
"-116 -366 OFFCURVE",
"-69 -412 OFFCURVE",
"-12 -412 CURVE SMOOTH"
);
},
{
closed = 1;
nodes = (
"-141 -412 OFFCURVE",
"-85 -343 OFFCURVE",
"-85 -259 CURVE SMOOTH",
"-85 -166 OFFCURVE",
"-144 -101 OFFCURVE",
"-239 -101 CURVE SMOOTH",
"-332 -101 OFFCURVE",
"-391 -166 OFFCURVE",
"-391 -259 CURVE SMOOTH",
"-391 -343 OFFCURVE",
"-334 -412 OFFCURVE",
"-239 -412 CURVE SMOOTH"
);
},
{
closed = 1;
nodes = (
"-308 -359 OFFCURVE",
"-353 -310 OFFCURVE",
"-353 -245 CURVE SMOOTH",
"-353 -174 OFFCURVE",
"-305 -134 OFFCURVE",
"-239 -134 CURVE SMOOTH",
"-172 -134 OFFCURVE",
"-122 -174 OFFCURVE",
"-122 -245 CURVE SMOOTH",
"-122 -310 OFFCURVE",
"-169 -359 OFFCURVE",
"-239 -359 CURVE SMOOTH"
);
},
{
closed = 1;
nodes = (
"107 -469 OFFCURVE",
"126 -475 OFFCURVE",
"126 -506 CURVE SMOOTH",
"126 -530 OFFCURVE",
"108 -544 OFFCURVE",
"90 -544 CURVE SMOOTH",
"72 -544 OFFCURVE",
"56 -530 OFFCURVE",
"56 -505 CURVE SMOOTH",
"56 -475 OFFCURVE",
"73 -469 OFFCURVE",
"81 -396 CURVE",
"99 -396 LINE"
);
},
{
closed = 1;
nodes = (
"268 -412 OFFCURVE",
"323 -343 OFFCURVE",
"323 -245 CURVE SMOOTH",
"323 -137 OFFCURVE",
"258 -75 OFFCURVE",
"214 -75 CURVE SMOOTH",
"193 -75 OFFCURVE",
"182 -87 OFFCURVE",
"182 -102 CURVE SMOOTH",
"182 -114 OFFCURVE",
"191 -125 OFFCURVE",
"201 -127 CURVE SMOOTH",
"215 -131 OFFCURVE",
"229 -129 OFFCURVE",
"244 -134 CURVE SMOOTH",
"267 -142 OFFCURVE",
"298 -181 OFFCURVE",
"298 -241 CURVE SMOOTH",
"298 -316 OFFCURVE",
"252 -359 OFFCURVE",
"188 -359 CURVE SMOOTH",
"139 -359 OFFCURVE",
"110 -334 OFFCURVE",
"101 -288 CURVE",
"84 -329 LINE",
"103 -372 OFFCURVE",
"142 -412 OFFCURVE",
"197 -412 CURVE SMOOTH"
);
}
);
width = 0;
}
);
userData = {
com.typemytype.robofont.layerData = {
bkgd = {
anchors = (
);
components = (
);
contours = (
);
lib = {
};
name = knJHAc2;
unicodes = (
);
width = 0;
};
};
com.typemytype.robofont.mark = (
1,
0.842,
0.674,
1
);
};
},
{
color = (255,215,172,1);
glyphname = knNYAc2;
lastChange = "2016-01-17 19:32:35 +0000";
layers = (
{
background = {
paths = (
{
closed = 1;
nodes = (
"-294 -62 OFFCURVE",
"-326 -96 OFFCURVE",
"-326 -148 CURVE SMOOTH",
"-326 -169 OFFCURVE",
"-322 -190 OFFCURVE",
"-308 -209 CURVE",
"-286 -195 LINE",
"-292 -189 OFFCURVE",
"-295 -180 OFFCURVE",
"-295 -168 CURVE SMOOTH",
"-295 -139 OFFCURVE",
"-276 -112 OFFCURVE",
"-237 -112 CURVE SMOOTH",
"-178 -112 OFFCURVE",
"-145 -168 OFFCURVE",
"-136 -218 CURVE",
"-130 -218 LINE",
"-122 -169 OFFCURVE",
"-84 -113 OFFCURVE",
"-29 -113 CURVE SMOOTH",
"10 -113 OFFCURVE",
"45 -147 OFFCURVE",
"45 -206 CURVE SMOOTH",
"45 -295 OFFCURVE",
"-29 -357 OFFCURVE",
"-115 -357 CURVE SMOOTH",
"-154 -357 OFFCURVE",
"-188 -344 OFFCURVE",
"-188 -322 CURVE SMOOTH",
"-188 -301 OFFCURVE",
"-163 -283 OFFCURVE",
"-121 -283 CURVE SMOOTH",
"-20 -283 OFFCURVE",
"35 -373 OFFCURVE",
"35 -433 CURVE SMOOTH",
"35 -453 OFFCURVE",
"42 -467 OFFCURVE",
"55 -467 CURVE SMOOTH",
"66 -467 OFFCURVE",
"74 -458 OFFCURVE",
"74 -439 CURVE SMOOTH",
"74 -377 OFFCURVE",
"3 -260 OFFCURVE",
"-124 -260 CURVE SMOOTH",
"-186 -260 OFFCURVE",
"-223 -293 OFFCURVE",
"-223 -333 CURVE SMOOTH",
"-223 -378 OFFCURVE",
"-181 -412 OFFCURVE",
"-122 -412 CURVE SMOOTH",
"-19 -412 OFFCURVE",
"69 -306 OFFCURVE",
"69 -195 CURVE SMOOTH",
"69 -112 OFFCURVE",
"34 -62 OFFCURVE",
"-26 -62 CURVE SMOOTH",
"-73 -62 OFFCURVE",
"-116 -100 OFFCURVE",
"-132 -155 CURVE",
"-133 -155 LINE",
"-148 -100 OFFCURVE",
"-192 -62 OFFCURVE",
"-246 -62 CURVE SMOOTH"
);
}
);
};
layerId = "034236B8-3FA8-43DA-9EDA-EFF269A687EC";
name = Regular;
paths = (
{
closed = 1;
nodes = (
"66 -467 OFFCURVE",
"74 -457 OFFCURVE",
"74 -430 CURVE SMOOTH",
"74 -353 OFFCURVE",
"18 -262 OFFCURVE",
"-105 -262 CURVE SMOOTH",
"-167 -262 OFFCURVE",
"-202 -286 OFFCURVE",
"-202 -334 CURVE SMOOTH",
"-202 -383 OFFCURVE",
"-167 -412 OFFCURVE",
"-102 -412 CURVE SMOOTH",
"-8 -412 OFFCURVE",
"76 -355 OFFCURVE",
"76 -218 CURVE SMOOTH",
"76 -131 OFFCURVE",
"32 -75 OFFCURVE",
"-31 -75 CURVE SMOOTH",
"-83 -75 OFFCURVE",
"-117 -112 OFFCURVE",
"-132 -165 CURVE",
"-135 -165 LINE",
"-151 -112 OFFCURVE",
"-191 -75 OFFCURVE",
"-242 -75 CURVE SMOOTH",
"-294 -75 OFFCURVE",
"-321 -114 OFFCURVE",
"-321 -165 CURVE SMOOTH",
"-321 -182 OFFCURVE",
"-318 -201 OFFCURVE",
"-304 -219 CURVE",
"-282 -203 LINE",
"-287 -193 OFFCURVE",
"-290 -183 OFFCURVE",
"-290 -172 CURVE SMOOTH",
"-290 -139 OFFCURVE",
"-273 -123 OFFCURVE",
"-242 -123 CURVE SMOOTH",
"-186 -123 OFFCURVE",
"-149 -177 OFFCURVE",
"-140 -224 CURVE",
"-129 -224 LINE",
"-120 -177 OFFCURVE",
"-87 -123 OFFCURVE",
"-31 -123 CURVE SMOOTH",
"13 -123 OFFCURVE",
"45 -156 OFFCURVE",
"45 -225 CURVE SMOOTH",
"45 -322 OFFCURVE",
"-14 -359 OFFCURVE",
"-99 -359 CURVE SMOOTH",
"-147 -359 OFFCURVE",
"-169 -347 OFFCURVE",
"-169 -324 CURVE SMOOTH",
"-169 -304 OFFCURVE",
"-147 -292 OFFCURVE",
"-108 -292 CURVE SMOOTH",
"-13 -292 OFFCURVE",
"35 -366 OFFCURVE",
"35 -438 CURVE SMOOTH",
"35 -456 OFFCURVE",
"39 -467 OFFCURVE",
"53 -467 CURVE SMOOTH"
);
},
{
closed = 1;
nodes = (
"76 -178 OFFCURVE",
"111 -123 OFFCURVE",
"166 -123 CURVE SMOOTH",
"209 -123 OFFCURVE",
"220 -156 OFFCURVE",
"220 -174 CURVE SMOOTH",
"220 -188 OFFCURVE",
"216 -198 OFFCURVE",
"211 -203 CURVE",
"233 -218 LINE",
"246 -203 OFFCURVE",
"253 -185 OFFCURVE",
"253 -163 CURVE SMOOTH",
"253 -116 OFFCURVE",
"222 -75 OFFCURVE",
"169 -75 CURVE SMOOTH",
"111 -75 OFFCURVE",
"62 -125 OFFCURVE",
"61 -183 CURVE",
"75 -224 LINE"
);
}
);
width = 0;
}
);
userData = {
com.typemytype.robofont.layerData = {
bkgd = {
anchors = (
);
components = (
);
contours = (
);
lib = {
};
name = knNYAc2;
unicodes = (
);
width = 108;
};
};
com.typemytype.robofont.mark = (
1,
0.842,
0.674,
1
);
};
},
